<svg width="16" height="15" viewBox="0 0 16 15" fill="none" xmlns="http://www.w3.org/2000/svg">
<path d="M11 7.25C11.2125 7.25 11.3906 7.17813 11.5344 7.03438C11.6781 6.89063 11.75 6.7125 11.75 6.5C11.75 6.2875 11.6781 6.10938 11.5344 5.96562C11.3906 5.82188 11.2125 5.75 11 5.75C10.7875 5.75 10.6094 5.82188 10.4656 5.96562C10.3219 6.10938 10.25 6.2875 10.25 6.5C10.25 6.7125 10.3219 6.89063 10.4656 7.03438C10.6094 7.17813 10.7875 7.25 11 7.25ZM5 5.75H8.75V4.25H5V5.75ZM2.375 14.75C1.95 13.325 1.53125 11.9031 1.11875 10.4844C0.70625 9.06563 0.5 7.6125 0.5 6.125C0.5 4.975 0.9 4 1.7 3.2C2.5 2.4 3.475 2 4.625 2H8.375C8.7375 1.525 9.17812 1.15625 9.69687 0.89375C10.2156 0.63125 10.775 0.5 11.375 0.5C11.6875 0.5 11.9531 0.609375 12.1719 0.828125C12.3906 1.04688 12.5 1.3125 12.5 1.625C12.5 1.6875 12.4688 1.83125 12.4062 2.05625C12.3562 2.19375 12.3094 2.33438 12.2656 2.47813C12.2219 2.62188 12.1875 2.76875 12.1625 2.91875L13.8688 4.625H15.5V9.85625L13.3813 10.55L12.125 14.75H8V13.25H6.5V14.75H2.375Z" fill="white"/>
</svg>
