<?xml version="1.0" encoding="UTF-8"?> <svg xmlns="http://www.w3.org/2000/svg" width="125" height="120" viewBox="0 0 125 120" fill="none"> <g filter="url(#filter0_f_44_441)"> <g filter="url(#filter1_b_44_441)"> <path d="M48.482 80.0662C34.4086 70.1572 29.3241 53.1423 37.1255 42.0623C44.9269 30.9823 62.6599 30.033 76.7332 39.942C90.8066 49.851 95.8911 66.8659 88.0897 77.9459C80.2883 89.0259 62.5554 89.9752 48.482 80.0662Z" fill="#E40ECF" fill-opacity="0.2"></path> </g> <g filter="url(#filter2_b_44_441)"> <path fill-rule="evenodd" clip-rule="evenodd" d="M37.8294 42.5579C30.2436 53.3318 35.1876 69.8767 48.8722 79.512C62.5568 89.1472 79.7999 88.2242 87.3858 77.4503C94.9716 66.6763 90.0276 50.1314 76.343 40.4962C62.6584 30.8609 45.4153 31.784 37.8294 42.5579ZM37.1255 42.0623C29.3241 53.1423 34.4086 70.1572 48.482 80.0662C62.5554 89.9752 80.2883 89.0259 88.0897 77.9459C95.8911 66.8659 90.8066 49.851 76.7332 39.942C62.6599 30.033 44.9269 30.9823 37.1255 42.0623Z" fill="#E40ECF"></path> </g> <path fill-rule="evenodd" clip-rule="evenodd" d="M54.3633 71.7134C62.5772 77.4968 72.9272 76.9428 77.4804 70.4759C82.0337 64.009 79.0662 54.0782 70.8522 48.2948C62.6382 42.5114 52.2883 43.0654 47.735 49.5323C43.1817 55.9992 46.1493 65.93 54.3633 71.7134ZM81.5471 73.3392C87.3454 65.1041 83.5664 52.4579 73.1065 45.0931C62.6466 37.7283 49.4667 38.4338 43.6683 46.669C37.87 54.9041 41.649 67.5503 52.109 74.9151C62.5689 82.2799 75.7488 81.5744 81.5471 73.3392ZM66.0598 72.5493L63.6979 70.0898C62.708 69.0618 62.48 67.6827 63.1371 66.7494L69.0789 58.3106L71.4448 60.7728C72.4307 61.798 72.6609 63.1739 72.0038 64.1073L66.0598 72.5493ZM65.59 54.7615C66.5915 55.7967 66.8382 57.1805 66.183 58.1111L62.0289 64.011L59.6294 61.5275C58.6238 60.4894 58.3793 59.1024 59.0345 58.1718L60.5025 56.0869L57.2642 52.7641C56.2608 51.7228 56.0122 50.3328 56.6697 49.3991L58.2322 47.1798L65.59 54.7615Z" fill="#E40ECF"></path> </g> <defs> <filter id="filter0_f_44_441" x="0.466797" y="0.0893555" width="124.282" height="119.83" filterUnits="userSpaceOnUse" color-interpolation-filters="sRGB"> <feFlood flood-opacity="0" result="BackgroundImageFix"></feFlood> <feBlend mode="normal" in="SourceGraphic" in2="BackgroundImageFix" result="shape"></feBlend> <feGaussianBlur stdDeviation="16.5" result="effect1_foregroundBlur_44_441"></feGaussianBlur> </filter> <filter id="filter1_b_44_441" x="12.4668" y="12.0894" width="100.282" height="95.8296" filterUnits="userSpaceOnUse" color-interpolation-filters="sRGB"> <feFlood flood-opacity="0" result="BackgroundImageFix"></feFlood> <feGaussianBlur in="BackgroundImage" stdDeviation="10.5"></feGaussianBlur> <feComposite in2="SourceAlpha" operator="in" result="effect1_backgroundBlur_44_441"></feComposite> <feBlend mode="normal" in="SourceGraphic" in2="effect1_backgroundBlur_44_441" result="shape"></feBlend> </filter> <filter id="filter2_b_44_441" x="12.4668" y="12.0894" width="100.282" height="95.8296" filterUnits="userSpaceOnUse" color-interpolation-filters="sRGB"> <feFlood flood-opacity="0" result="BackgroundImageFix"></feFlood> <feGaussianBlur in="BackgroundImage" stdDeviation="10.5"></feGaussianBlur> <feComposite in2="SourceAlpha" operator="in" result="effect1_backgroundBlur_44_441"></feComposite> <feBlend mode="normal" in="SourceGraphic" in2="effect1_backgroundBlur_44_441" result="shape"></feBlend> </filter> </defs> </svg> 