<?xml version="1.0" standalone="no"?>
<!DOCTYPE svg PUBLIC "-//W3C//DTD SVG 20010904//EN"
 "http://www.w3.org/TR/2001/REC-SVG-20010904/DTD/svg10.dtd">
<svg version="1.0" xmlns="http://www.w3.org/2000/svg"
 width="256.000000pt" height="256.000000pt" viewBox="0 0 256.000000 256.000000"
 preserveAspectRatio="xMidYMid meet">

<g transform="translate(0.000000,256.000000) scale(0.100000,-0.100000)"
fill="#000000" stroke="none">
<path d="M1069 2424 c-123 -22 -369 -108 -369 -129 0 -4 39 -49 88 -101 68
-74 91 -93 107 -89 253 72 470 79 701 20 l98 -25 30 38 c17 20 57 65 90 99
l59 63 -66 29 c-93 42 -213 78 -314 96 -105 18 -321 18 -424 -1z"/>
<path d="M2266 1909 c-3 -19 -25 -96 -48 -172 l-41 -138 41 -87 c76 -160 105
-273 118 -459 6 -87 4 -110 -14 -170 -81 -266 -429 -537 -821 -640 -128 -34
-290 -36 -404 -5 -397 108 -783 402 -864 660 -34 107 14 382 103 594 l45 106
-29 84 c-16 45 -38 118 -48 161 -9 42 -20 77 -24 77 -11 0 -86 -134 -123 -220
-67 -156 -82 -240 -82 -450 0 -207 14 -288 79 -446 198 -487 718 -798 1242
-744 532 55 947 408 1076 915 20 79 23 114 22 280 0 174 -2 198 -27 290 -28
102 -126 315 -170 369 l-24 29 -7 -34z"/>
<path d="M642 1438 c-7 -7 -12 -38 -12 -74 l0 -62 47 -31 c65 -43 192 -82 291
-88 l82 -6 0 25 c0 34 -57 89 -149 143 -142 83 -236 116 -259 93z"/>
<path d="M1835 1429 c-139 -57 -311 -185 -303 -227 8 -41 187 -18 308 39 92
43 110 62 110 118 0 98 -18 109 -115 70z"/>
<path d="M1164 995 c-12 -18 -15 -39 -12 -76 6 -58 44 -105 109 -134 34 -16
39 -22 39 -51 0 -21 -9 -44 -22 -60 -23 -26 -23 -26 -130 -20 -70 5 -108 4
-108 -3 0 -5 5 -13 10 -16 6 -3 10 -15 10 -25 0 -10 7 -23 17 -28 9 -5 21 -24
27 -43 19 -56 36 -48 36 18 l0 58 175 0 175 0 0 -52 c0 -66 16 -77 37 -24 9
23 22 41 28 41 7 0 16 11 19 24 3 13 9 32 12 41 6 15 -2 16 -95 10 -101 -8
-101 -8 -126 19 -16 18 -25 39 -25 60 0 28 5 36 29 46 53 21 84 64 92 127 7
49 6 62 -10 83 -17 24 -23 25 -144 28 -125 3 -126 2 -143 -23z"/>
<path d="M1200 571 c0 -17 42 -24 51 -10 8 11 13 9 28 -8 21 -25 47 -30 54
-10 2 6 16 12 32 12 15 0 30 6 32 13 4 9 -20 12 -96 12 -56 0 -101 -4 -101 -9z"/>
</g>
</svg>
