<?xml version="1.0" standalone="yes"?>
<svg xmlns="http://www.w3.org/2000/svg" width="1000" height="730">
<path style="fill:#fffefe; stroke:none;" d="M0 0L0 163L280 163L280 0L0 0z"/>
<path style="fill:#030201; stroke:none;" d="M280 0L280 149L280 182C280 187.941 279.241 193.383 286.005 195.589C292.178 197.602 298.636 188.922 303 185.45C314.983 175.917 328.956 167.481 344 164C340.515 174.937 331.474 184.941 325.862 195C315.742 213.141 307.156 232.379 300.344 252C293.923 270.497 289.277 289.7 286.08 309C284.488 318.611 285.145 332.023 281.4 340.895C279.712 344.896 274.531 346.394 271 348.309C262.863 352.72 254.111 357.491 247.015 363.465C243.944 366.049 237.567 372.057 238.817 376.721C239.825 380.481 246.084 380.093 249 379.829C259.681 378.864 269.831 376.308 280 373C282.455 404.1 285.012 434.736 293.424 465C299.223 485.862 309.067 505.396 315 526L291 539.752L280.603 546.39L280 562L280 599L280 730L1000 730L1000 0L280 0z"/>
<path style="fill:#675a42; stroke:none;" d="M357 15L363 12L357 15z"/>
<path style="fill:#ffa409; stroke:none;" d="M338 442C349.039 440.574 359.817 437.529 371 437.039C405.943 435.509 440.386 444.297 470 463.053C484.882 472.479 495.863 486.042 510 496C525.742 460.653 543.452 425.846 579 406.312C654.475 364.837 750.253 412.671 770 496C784.665 488.854 796.7 471.805 811 462.695C848.908 438.547 899.691 429.152 943 443C943 402.805 933.712 361.669 919.947 324C915.388 311.525 910.663 298.905 904.752 287C901.899 281.253 895.48 272.913 895.246 266.424C895.038 260.645 899.509 253.418 901.333 248C906.242 233.416 911.084 218.803 915.29 204C926.932 163.029 935 120.657 935 78C935 60.0873 935.983 28.2086 922.471 14.2786C913.837 5.37793 890.223 16.6345 881 20.5787C842.882 36.8802 809.439 66.852 782.729 98C775.412 106.533 768.234 115.112 761.349 124C759.063 126.952 756.253 132.003 751.985 131.897C746.558 131.761 740.163 127.847 735 126.194C723.139 122.399 711.214 119.404 699 117.001C666.183 110.544 632.131 110.606 599 114.166C581.479 116.049 563.74 120.213 547 125.67C542.159 127.248 531.184 133.792 526.3 131.762C522.73 130.279 520.089 124.922 517.789 122C511.36 113.831 504.758 105.757 497.834 98C470.757 67.6635 440.557 40.9848 404 22.7531C393.782 17.6572 373.722 7.66144 362.004 11.9082C353.497 14.9911 351.305 28.2734 349.576 36C343.957 61.1143 344.706 87.562 347.17 113C350.653 148.976 359.316 184.462 369.72 219C373.058 230.082 376.975 241.031 380.667 252C382.187 256.513 385.606 262.132 385.037 267C384.293 273.364 379.022 280.289 376.258 286C370.916 297.041 366.262 308.483 362.053 320C347.811 358.974 338 400.403 338 442z"/>
<path style="fill:#675a42; stroke:none;" d="M367 11L367 12L372 12L367 11M909 11L909 12L913 12L909 11M918.667 11.3333L919.333 11.6667L918.667 11.3333M374 12L374 13L377 13L374 12M904.667 12.3333L905.333 12.6667L904.667 12.3333M921 12L922 13L921 12M379.667 13.3333L380.333 13.6667L379.667 13.3333M899 13L899 14L902 14L899 13M922 13L923 14L922 13M383 14L384 15L383 14M896.667 14.3333L897.333 14.6667L896.667 14.3333M386 15L387 16L386 15M893.667 15.3333L894.333 15.6667L893.667 15.3333M923 15L924 16L923 15M389 16L390 17L389 16M890.667 16.3333L891.333 16.6667L890.667 16.3333M924 16L925 17L924 16M355 17L356 18L355 17M392 17L393 18L392 17M888 17L889 18L888 17M394.667 18.3333L395.333 18.6667L394.667 18.3333M885 18L886 19L885 18M925 18L926 19L925 18M354 19L355 20L354 19M397 19L398 20L397 19M883 19L884 20L883 19M399 20L400 21L399 20M880.667 20.3333L881.333 20.6667L880.667 20.3333M926 20L927 21L926 20M353.333 21.6667L353.667 22.3333L353.333 21.6667M401.667 21.3333L402.333 21.6667L401.667 21.3333M878 21L879 22L878 21M403.667 22.3333L404.333 22.6667L403.667 22.3333M618.667 22.3333L619.333 22.6667L618.667 22.3333z"/>
<path style="fill:#ed1a1b; stroke:none;" d="M479 61L479 63C492.917 73.6039 504.589 88.6046 515.753 102C519.378 106.349 524.732 116.541 530.289 118.292C534.365 119.576 541.06 115.577 545 114.424C557.19 110.859 569.472 107.427 582 105.25C618.964 98.8258 656.967 97.7454 694 104.424C707.478 106.855 720.917 109.96 734 114.026C738.451 115.409 746.325 119.953 750.91 117.879C756.979 115.133 762.229 105.054 766.435 100C777.544 86.6533 792.072 75.0935 802 61C780.671 52.1199 760.371 41.8113 738 35.4275C680.594 19.046 618.159 17.1002 560 30.8843C531.367 37.6705 505.929 49.7884 479 61z"/>
<path style="fill:#675a42; stroke:none;" d="M661.667 22.3333L662.333 22.6667L661.667 22.3333M876 22L877 23L876 22M405.667 23.3333L406.333 23.6667L405.667 23.3333M605 23L606 24L605 23M674 23L675 24L674 23M874 23L875 24L874 23M927 23L928 24L927 23M352.333 24.6667L352.667 25.3333L352.333 24.6667M407.667 24.3333L408.333 24.6667L407.667 24.3333M596 24L597 25L596 24M872 24L873 25L872 24M409.667 25.3333L410.333 25.6667L409.667 25.3333M589 25L590 26L589 25M870 25L871 26L870 25M928.333 25.6667L928.667 26.3333L928.333 25.6667M411 26L412 27L411 26M697 26L698 27L697 26M868 26L869 27L868 26M351.333 27.6667L351.667 28.3333L351.333 27.6667M413 27L414 28L413 27M703 27L704 28L703 27M866 27L867 28L866 27M415 28L416 29L415 28M571 28L572 29L571 28M864 28L865 29L864 28M929.333 28.6667L929.667 29.3333L929.333 28.6667M417 29L418 30L417 29M713 29L714 30L713 29M863 29L864 30L863 29M350.333 30.6667L350.667 31.3333L350.333 30.6667M419 30L420 31L419 30M718 30L719 31L718 30M861 30L862 31L861 30M420 31L421 32L420 31M859 31L860 32L859 31M422 32L423 33L422 32M726 32L727 33L726 32M858 32L859 33L858 32M930.333 32.6667L930.667 33.3333L930.333 32.6667M730 33L731 34L730 33M856 33L857 34L856 33M349 34L349 37L350 37L349 34M425 34L426 35L425 34M546 34L547 35L546 34M427 35L428 36L427 35M853 35L854 36L853 35M428 36L429 37L428 36M851 36L852 37L851 36M931.333 36.6667L931.667 37.3333L931.333 36.6667M430 37L431 38L430 37M850 37L851 38L850 37M431 38L432 39L431 38M533 38L534 39L533 38M848 38L849 39L848 38M348.333 39.6667L348.667 40.3333L348.333 39.6667M433 39L434 40L433 39M530 39L531 40L530 39M847 39L848 40L847 39M434 40L435 41L434 40M527 40L528 41L527 40M436 41L437 42L436 41M524 41L525 42L524 41M844 41L845 42L844 41M932 41L932 44L933 44L932 41M437 42L438 43L437 42M438 43L439 44L438 43M761 43L762 44L761 43M841 43L842 44L841 43M347 44L347 48L348 48L347 44M440 44L441 45L440 44M516 44L517 45L516 44M840 44L841 45L840 44M441 45L442 46L441 45M837 46L838 47L837 46M444 47L445 48L444 47M836 47L837 48L836 47M933 47L933 50L934 50L933 47M445 48L446 49L445 48M446 49L447 50L446 49M833 49L834 50L833 49M832 50L833 51L832 50M346 51L346 56L347 56L346 51M449 51L450 52L449 51M499 51L500 52L499 51M831 51L832 52L831 51M450 52L451 53L450 52M783 52L784 53L783 52M451 53L452 54L451 53M828 53L829 54L828 53M827 54L828 55L827 54M454 55L455 56L454 55M826 55L827 56L826 55M934 55L934 61L935 61L934 55M455 56L456 57L455 56M456 57L457 58L456 57M823 57L824 58L823 57M822 58L823 59L822 58M821 59L822 60L821 59M460 60L461 61L460 60M820 60L821 61L820 60M461 61L462 62L461 61M819 61L820 62L819 61M345 62L345 74L346 74L345 62M462 62L463 63L462 62M463 63L464 64L463 63M464 64L465 65L464 64M481 64L482 65L481 64M465 65L466 66L465 65M814 65L815 66L814 65M813 66L814 67L813 66M812 67L813 68L812 67M811 68L812 69L811 68M810 69L811 70L810 69M935 69L935 89L936 89L935 69M471 70L472 71L471 70M809 70L810 71L809 70M472 71L473 72L472 71M808 71L809 72L808 71M473 72L474 73L473 72M807 72L808 73L807 72M474 73L475 74L474 73M806 73L807 74L806 73M475 74L476 75L475 74M805 74L806 75L805 74M476 75L477 76L476 75M492 75L493 76L492 75M804 75L805 76L804 75M477 76L478 77L477 76M493 76L494 77L493 76M478 77L479 78L478 77M479 78L480 79L479 78z"/>
<path style="fill:#fffefe; stroke:none;" d="M373 79C373 132.384 382.86 179.336 400 230C406.778 224.482 411.357 215.832 416.801 209C426.134 197.286 436.282 186.47 447 176.015C451.463 171.661 464.976 164.191 466.006 157.911C467.229 150.454 455.367 135.852 451.279 130C433.576 104.665 405.777 79.6765 373 79z"/>
<path style="fill:#675a42; stroke:none;" d="M480 79L481 80L480 79z"/>
<path style="fill:#fffefe; stroke:none;" d="M881 230C892.712 179.401 913.755 132.447 907 79C874.197 80.4119 846.089 105.036 828.671 131C824.506 137.208 814.438 149.232 814.708 156.996C814.926 163.246 827.625 170.878 832 174.715C844.008 185.249 854.757 197.404 864.576 210C869.399 216.188 874.086 226.217 881 230z"/>
<path style="fill:#675a42; stroke:none;" d="M481 80L482 81L481 80M482 81L483 82L482 81M483 82L484 83L483 82M797 82L798 83L797 82M484 83L485 84L484 83M780 83L781 84L780 83M796 83L797 84L796 83M345 84L345 98L346 98L345 84M485 84L486 85L485 84M795 84L796 85L795 84M486 85L487 86L486 85M794 85L795 86L794 85M793 86L794 87L793 86M792 87L793 88L792 87M791 88L792 89L791 88M790 89L791 90L790 89M789 90L790 91L789 90M788 91L789 92L788 91M492 92L493 93L492 92M772 92L773 93L772 92M493 93L494 94L493 93M494 94L495 95L494 94M495 95L496 96L495 95M496 96L497 97L496 96M497 97L498 98L497 97M783 97L784 98L783 97M782 98L783 99L782 98M766 99L767 100L766 99M781 99L782 100L781 99M934 99L934 106L935 106L934 99M620.667 100.333L621.333 100.667L620.667 100.333M659 100L660 101L659 100M780 100L781 101L780 100M500 101L501 102L500 101M672 101L673 102L672 101M501 102L502 103L501 102M599 102L600 103L599 102M502 103L503 104L502 103M688 103L689 104L688 103M346 104L346 111L347 111L346 104M503 104L504 105L503 104M694 104L695 105L694 104M777 104L778 105L777 104M580 105L581 106L580 105M776 105L777 106L776 105M575 106L576 107L575 106M775 106L776 107L775 106M709 107L710 108L709 107M774 107L775 108L774 107M506 108L507 109L506 108M521 108L522 109L521 108M566 108L567 109L566 108M507 109L508 110L507 109M562 109L563 110L562 109M508 110L509 111L508 110M558 110L559 111L558 110M757 110L758 111L757 110M509 111L510 112L509 111M626 111L626 112L655 112L626 111M771 111L772 112L771 111M933 111L933 116L934 116L933 111M611 112L611 113L617 113L611 112M663 112L663 113L670 113L663 112M770 112L771 113L770 112M601 113L601 114L606 114L601 113M675 113L675 114L680 114L675 113M769 113L770 114L769 113M511 114L512 115L511 114M544 114L545 115L544 114M593 114L593 115L597 115L593 114M683 114L683 115L687 115L683 114M347 115L347 120L348 120L347 115M512 115L513 116L512 115M541 115L542 116L541 115M587 115L587 116L590 116L587 115M690 115L690 116L694 116L690 115M513 116L514 117L513 116M538 116L539 117L538 116M581 116L581 117L585 117L581 116M696 116L696 117L699 117L696 116M767 116L768 117L767 116M528 117L529 118L528 117M535 117L536 118L535 117M576 117L576 118L579 118L576 117M701 117L701 118L704 118L701 117M766 117L767 118L766 117M572.667 118.333L573.333 118.667L572.667 118.333M706 118L706 119L709 119L706 118M765 118L766 119L765 118M515 119L516 120L515 119M567 119L567 120L570 120L567 119M711.667 119.333L712.333 119.667L711.667 119.333M516 120L517 121L516 120M564.667 120.333L565.333 120.667L564.667 120.333M715.667 120.333L716.333 120.667L715.667 120.333M932 120L932 124L933 124L932 120M517 121L518 122L517 121M560.667 121.333L561.333 121.667L560.667 121.333M719.667 121.333L720.333 121.667L719.667 121.333M763 121L764 122L763 121M556.667 122.333L557.333 122.667L556.667 122.333M722 122L722 123L725 123L722 122M762 122L763 123L762 122M348 123L348 127L349 127L348 123M553.667 123.333L554.333 123.667L553.667 123.333M726.667 123.333L727.333 123.667L726.667 123.333M761 123L762 124L761 123M519 124L520 125L519 124M549.667 124.333L550.333 124.667L549.667 124.333M729.667 124.333L730.333 124.667L729.667 124.333M520 125L521 126L520 125M546.667 125.333L547.333 125.667L546.667 125.333M732.667 125.333L733.333 125.667L732.667 125.333M760 125L761 126L760 125M544 126L545 127L544 126M736 126L737 127L736 126M759 126L760 127L759 126M541 127L542 128L541 127M738.667 127.333L739.333 127.667L738.667 127.333M758 127L759 128L758 127M522 128L523 129L522 128M538 128L539 129L538 128M741.667 128.333L742.333 128.667L741.667 128.333M931 128L931 131L932 131L931 128M523 129L524 130L523 129M535.667 129.333L536.333 129.667L535.667 129.333M744 129L745 130L744 129M349 130L349 135L350 135L349 130M533 130L534 131L533 130M747 130L748 131L747 130M756 130L757 131L756 130M530 131L531 132L530 131M749 131L750 132L749 131M755 131L756 132L755 131M525 132L526 133L525 132M528 132L529 133L528 132M752 132L753 133L752 132M930 135L930 138L931 138L930 135M350 138L350 141L351 141L350 138M929 141L929 144L930 144L929 141M351.333 144.667L351.667 145.333L351.333 144.667M928 147L928 150L929 150L928 147M352 149L352 152L353 152L352 149M927 152L927 155L928 155L927 152M353 154L353 157L354 157L353 154M926 157L926 160L927 160L926 157M354 159L354 162L355 162L354 159M925.333 162.667L925.667 163.333L925.333 162.667z"/>
<path style="fill:#ffa409; stroke:none;" d="M0 163L0 260L35 260C36.72 272.773 41.0083 285.676 44.7199 298C46.3684 303.473 50.068 310.17 49.436 316C48.4783 324.833 41.6936 334.574 38.6921 343C31.8442 362.224 26.17 383.462 26 404C49.1274 403.007 70.8158 403.179 92 414.32C102.111 419.638 109.95 429.314 120 434C137.639 391.643 191.393 360.229 235 385.465C254.733 396.884 263.198 414.142 272 434L285 426C280.93 409.48 280 390.957 280 374C274.249 374.846 268.67 376.809 263 378.113C259.728 378.865 256.344 379.507 253 379.83C241.165 380.976 234.4 376.697 244.44 366.289C253.914 356.468 272.301 352.936 280.142 342.61C283.223 338.552 282.609 329.96 283 325C274.101 325 262.082 326.703 255.148 319.786C246.245 310.905 256.984 298.199 266 295.108C273.978 292.373 280.198 296.27 287 300C295.515 269.711 303.227 240.617 316.781 212C324.538 195.622 336.309 181.258 344 165C336.843 163.941 329.226 168.592 323 171.756C303.92 181.454 290.035 196.218 276.05 212C271.956 216.621 266.668 227.465 260.826 229.647C256.942 231.097 249.895 227.596 246 226.627C235.151 223.927 224.121 222.228 213 221.17C186.411 218.639 159.263 222.922 134 231C128.319 217.578 113.278 210.501 107.028 198C102.737 189.418 106 172.535 106 163L0 163z"/>
<path style="fill:#ed1a1b; stroke:none;" d="M106 163C106 172.778 102.63 190.204 107.028 199C112.918 210.781 126.803 219.482 134 231C160.05 225.028 184.863 218.587 212 221.17C223.474 222.262 234.811 224.076 246 226.873C250.026 227.88 256.748 231.342 260.826 230.212C264.571 229.175 267.194 223.861 269.424 221C275.513 213.19 284.832 205.938 289 197C276.262 189.551 280 176.498 280 163L106 163z"/>
<path style="fill:#675a42; stroke:none;" d="M343 164L344 165L343 164M355 164L355 167L356 167L355 164M343 166L344 167L343 166M924.333 167.667L924.667 168.333L924.333 167.667M342 168L343 169L342 168M341 169L342 170L341 169M356.333 169.667L356.667 170.333L356.333 169.667M340 171L341 172L340 171M923 171L923 174L924 174L923 171M339 172L340 173L339 172M357.333 173.667L357.667 174.333L357.333 173.667M338 174L339 175L338 174M337 175L338 176L337 175M922.333 176.667L922.667 177.333L922.333 176.667M336 177L337 178L336 177M358 177L358 180L359 180L358 177M335 178L336 179L335 178M334 180L335 181L334 180M921.333 180.667L921.667 181.333L921.333 180.667M333 182L334 183L333 182z"/>
<path style="fill:#ed1a1b; stroke:none;" d="M347 182C306.915 241.467 286.027 320.508 292.83 392C299.086 457.735 317.848 518.712 356.71 573C444.033 694.983 606.384 749.023 749 701.485C800.908 684.182 846.294 655.339 885.996 617.911C977.15 531.977 1010.31 390.611 974.72 272C968.142 250.075 959.53 229.43 949.248 209C944.693 199.95 940.053 189.371 933 182C926.077 200.35 922.561 220.318 916.333 239C913.794 246.619 907.124 257.962 907.744 266C908.223 272.205 914.021 280.364 916.742 286C922.341 297.603 926.99 309.868 931.308 322C950.737 376.59 965.539 440.812 941.138 496C918.531 547.132 872.424 585.507 826 614.424C773.806 646.934 709.351 675.23 647 677.961C615.734 679.33 583.441 670.814 554 661C474.161 634.387 385.359 583.857 344.781 507C313.783 448.289 328.618 381.701 349.344 322C353.569 309.829 358.276 297.653 363.781 286C366.622 279.986 372.218 272.746 372.694 266C373.229 258.409 367.396 248.188 365 241C361.03 229.089 357.092 217.145 353.884 205C351.963 197.728 350.92 188.418 347 182z"/>
<path style="fill:#675a42; stroke:none;" d="M359.333 182.667L359.667 183.333L359.333 182.667M932 182L933 183L932 182M332 183L333 184L332 183M934 183L935 184L934 183M345 184L346 185L345 184M348 184L349 185L348 184M920.333 184.667L920.667 185.333L920.333 184.667M331 185L332 186L331 185M360 185L360 188L361 188L360 185M330 187L331 188L330 187M329 188L330 189L329 188M919.333 188.667L919.667 189.333L919.333 188.667M361.333 189.667L361.667 190.333L361.333 189.667M328 190L329 191L328 190M918 191L918 194L919 194L918 191M327 192L328 193L327 192M362.333 193.667L362.667 194.333L362.333 193.667M339 194L340 195L339 194M325 195L326 196L325 195M917.333 195.667L917.667 196.333L917.333 195.667M351 196L352 197L351 196M324 197L325 198L324 197M363.333 197.667L363.667 198.333L363.333 197.667M943 198L944 199L943 198M323 199L324 200L323 199M916.333 199.667L916.667 200.333L916.333 199.667M322 201L323 202L322 201M335 201L336 202L335 201M364 201L365 202L364 201M321 203L322 204L321 203M915.333 203.667L915.667 204.333L915.333 203.667M320.333 204.667L320.667 205.333L320.333 204.667M365.333 204.667L365.667 205.333L365.333 204.667M319.333 206.667L319.667 207.333L319.333 206.667M914.333 206.667L914.667 207.333L914.333 206.667M354 207L355 208L354 207M318.333 208.667L318.667 209.333L318.333 208.667M366 208L367 209L366 208M925 209L926 210L925 209M949 209L950 210L949 209M317 210L318 211L317 210M913 210L914 211L913 210M367.333 211.667L367.667 212.333L367.333 211.667M950 211L951 212L950 211M316.333 212.667L316.667 213.333L316.333 212.667M912.333 213.667L912.667 214.333L912.333 213.667M951 213L952 214L951 213M315.333 214.667L315.667 215.333L315.333 214.667M356 214L357 215L356 214M368.333 214.667L368.667 215.333L368.333 214.667M952 215L953 216L952 215M911.333 216.667L911.667 217.333L911.333 216.667M923 216L924 217L923 216M314 217L315 218L314 217M369 218L370 219L369 218M313 219L314 220L313 219M910.333 219.667L910.667 220.333L910.333 219.667M954 219L955 220L954 219M312 221L313 222L312 221M370.333 221.667L370.667 222.333L370.333 221.667M311 223L312 224L311 223M909 223L910 224L909 223M359 224L360 225L359 224M371.333 224.667L371.667 225.333L371.333 224.667M310.333 225.667L310.667 226.333L310.333 225.667M908 226L909 227L908 226M309.333 227.667L309.667 228.333L309.333 227.667M372.333 227.667L372.667 228.333L372.333 227.667M907.333 229.667L907.667 230.333L907.333 229.667M919 229L920 230L919 229M308 230L309 231L308 230M373.333 230.667L373.667 231.333L373.333 230.667M959 230L960 231L959 230M307.333 232.667L307.667 233.333L307.333 232.667M906.333 232.667L906.667 233.333L906.333 232.667M374.333 233.667L374.667 234.333L374.333 233.667M306 235L307 236L306 235M905.333 235.667L905.667 236.333L905.333 235.667M375.333 236.667L375.667 237.333L375.333 236.667M305.333 237.667L305.667 238.333L305.333 237.667M962 237L963 238L962 237M904.333 238.667L904.667 239.333L904.333 238.667M376.333 239.667L376.667 240.333L376.333 239.667M304 240L305 241L304 240M316 241L317 242L316 241M903.333 241.667L903.667 242.333L903.333 241.667M303.333 242.667L303.667 243.333L303.333 242.667M377.333 242.667L377.667 243.333L377.333 242.667z"/>
<path style="fill:#fffefe; stroke:none;" d="M500 244.465C482.641 247.594 455.615 272.911 474.329 290.471C486.174 301.584 512.359 299.247 527 296.536C544.263 293.341 548.042 277.125 539.521 263C531.556 249.797 515.289 241.708 500 244.465M768 244.465C751.583 247.424 723.496 273.658 741.133 290.786C752.372 301.701 778.962 299.237 793 296.539C810.187 293.236 816.439 275.505 806.892 261C798.888 248.839 782.278 241.89 768 244.465z"/>
<path style="fill:#675a42; stroke:none;" d="M902.333 244.667L902.667 245.333L902.333 244.667M302.333 245.667L302.667 246.333L302.333 245.667M378.333 245.667L378.667 246.333L378.333 245.667M901 247L902 248L901 247M301 248L302 249L301 248M379.333 248.667L379.667 249.333L379.333 248.667M900 250L901 251L900 250M300 251L301 252L300 251M380.333 251.667L380.667 252.333L380.333 251.667M899 253L900 254L899 253M911 253L912 254L911 253M299 254L300 255L299 254M381 254L382 255L381 254M898.333 255.667L898.667 256.333L898.333 255.667M298 257L299 258L298 257M370 257L371 258L370 257M382 257L383 258L382 257M897.333 258.667L897.667 259.333L897.333 258.667M383.333 259.667L383.667 260.333L383.333 259.667z"/>
<path style="fill:#ed1a1b; stroke:none;" d="M0 260L0 562L280 562L281.028 546.39L293 539.244L315 526L305 500C293.902 503.513 283.548 511.638 273 516.742C255.359 525.277 235.473 532.094 216 534.718C162.498 541.925 107.808 512.599 68 479.246C50.852 464.879 32.3415 445.437 26.8997 423C20.9085 398.298 30.5855 366.095 39.0532 343C42.1092 334.665 48.0861 325.706 49.5702 317C50.6192 310.846 46.8119 303.749 45.0255 298C41.1534 285.54 37.6379 272.78 35 260L0 260z"/>
<path style="fill:#675a42; stroke:none;" d="M297 260L298 261L297 260M896 261L897 262L896 261M384 262L385 263L384 262M296.333 263.667L296.667 264.333L296.333 263.667M308 263L309 264L308 263M895 264L896 265L895 264M385 265L386 266L385 265M295.333 266.667L295.667 267.333L295.333 266.667M894 266L895 267L894 266M385 267L386 268L385 267M895 268L896 269L895 268M384 269L385 270L384 269M294.333 270.667L294.667 271.333L294.333 270.667M896 270L897 271L896 270M909 270L910 271L909 270M383 271L384 272L383 271M974 271L975 272L974 271M897 272L898 273L897 272M910 272L911 273L910 272M293.333 273.667L293.667 274.333L293.333 273.667M382 273L383 274L382 273M898 274L899 275L898 274M911 274L912 275L911 274M381 275L382 276L381 275M899 276L900 277L899 276M912 276L913 277L912 276M292.333 277.667L292.667 278.333L292.333 277.667M380 277L381 278L380 277M900 278L901 279L900 278M379 279L380 280L379 279M303 280L304 281L303 280M901 280L902 281L901 280M291.333 281.667L291.667 282.333L291.333 281.667M378 281L379 282L378 281M902 282L903 283L902 282M377 283L378 284L377 283M903 284L904 285L903 284M290.333 285.667L290.667 286.333L290.333 285.667M376 285L377 286L376 285M904 286L905 287L904 286M375 287L376 288L375 287M301 288L302 289L301 288M362 288L363 289L362 288M905 288L906 289L905 288M289.333 289.667L289.667 290.333L289.333 289.667M374 289L375 290L374 289M918 289L919 290L918 289M906 290L907 291L906 290M373.333 291.667L373.667 292.333L373.333 291.667M907 292L908 293L907 292z"/>
<path style="fill:#fffefe; stroke:none;" d="M122 294.519C111.907 296.704 99.9973 310.88 109.558 320.442C115.515 326.401 130.315 326.204 137.999 324.517C146.67 322.614 149.833 311.248 145.467 304.09C140.913 296.624 130.39 292.702 122 294.519M283 325C283.787 318.806 288.689 305.845 285.883 300.188C275.219 278.689 235.126 310.611 258.005 322.547C260.432 323.813 263.308 324.356 266 324.711C271.569 325.443 277.391 325 283 325z"/>
<path style="fill:#675a42; stroke:none;" d="M288.333 294.667L288.667 295.333L288.333 294.667M372 294L373 295L372 294M908 295L909 296L908 295M371 296L372 297L371 296M299 297L300 298L299 297M909 297L910 298L909 297M287 298L287 301L288 301L287 298M370 298L371 299L370 298M910 299L911 300L910 299M369.333 300.667L369.667 301.333L369.333 300.667M911.333 301.667L911.667 302.333L911.333 301.667M356 302L357 303L356 302z"/>
<path style="fill:#ffa409; stroke:none;" d="M286 303L287 304L286 303z"/>
<path style="fill:#675a42; stroke:none;" d="M368 303L369 304L368 303M286 304L286 307L287 307L286 304M912 304L913 305L912 304M367 305L368 306L367 305M913.333 306.667L913.667 307.333L913.333 306.667M297 307L298 308L297 307z"/>
<path style="fill:#ffa409; stroke:none;" d="M285 308L286 309L285 308z"/>
<path style="fill:#675a42; stroke:none;" d="M366 308L367 309L366 308M285 309L285 313L286 313L285 309M914 309L915 310L914 309M365 310L366 311L365 310M915.333 311.667L915.667 312.333L915.333 311.667M296 313L297 314L296 313M364 313L365 314L364 313M456 314L456 315L462 315L456 314M819 314L819 315L826 316L819 314M916 314L917 315L916 314z"/>
<path style="fill:#ffa409; stroke:none;" d="M284 315L285 316L284 315z"/>
<path style="fill:#675a42; stroke:none;" d="M363.333 315.667L363.667 316.333L363.333 315.667M454 315L453 317L454 315z"/>
<path style="fill:#030201; stroke:none;" d="M455.225 316.028C446.276 321.403 449.586 351.639 456.105 357.674C477.269 377.267 513.078 386.915 541 390.05C548.646 390.909 563.928 394.006 570.552 388.86C578.706 382.525 556.277 365.578 552 362.211C530.935 345.624 506.867 332.147 482 322.2C475.557 319.622 462.051 311.927 455.225 316.028z"/>
<path style="fill:#675a42; stroke:none;" d="M463.667 315.333L464.333 315.667L463.667 315.333M816 315L817 316L816 315z"/>
<path style="fill:#030201; stroke:none;" d="M817 315.518C786.62 321.91 755.411 342.037 731 360.375C725.117 364.795 705.699 377.568 708.708 386.772C710.845 393.31 727.806 391.266 733 390.91C757.598 389.226 783.393 381.662 805 369.858C811.888 366.095 819.431 362.775 824.892 356.96C833.046 348.277 835.36 311.655 817 315.518z"/>
<path style="fill:#675a42; stroke:none;" d="M284 316L284 319L285 319L284 316M466.667 316.333L467.333 316.667L466.667 316.333M813 316L814 317L813 316M917.333 316.667L917.667 317.333L917.333 316.667M469.667 317.333L470.333 317.667L469.667 317.333M810 317L811 318L810 317M827 317L828 318L827 317M362 318L363 319L362 318M452 318L453 319L452 318M472 318L473 319L472 318M807 318L808 319L807 318M475 319L476 320L475 319M804.667 319.333L805.333 319.667L804.667 319.333M828 319L829 320L828 319M918.333 319.667L918.667 320.333L918.333 319.667M930 319L931 320L930 319M295 320L296 321L295 320M451.333 320.667L451.667 321.333L451.333 320.667M477.667 320.333L478.333 320.667L477.667 320.333M802 320L803 321L802 320z"/>
<path style="fill:#ffa409; stroke:none;" d="M283 321L284 322L283 321z"/>
<path style="fill:#675a42; stroke:none;" d="M361 321L362 322L361 321M480 321L481 322L480 321M799.667 321.333L800.333 321.667L799.667 321.333M283 322L283 325L284 325L283 322M482.667 322.333L483.333 322.667L482.667 322.333M797 322L798 323L797 322M829 322L829 325L830 325L829 322M919 322L920 323L919 322M985 322L986 323L985 322M360.333 323.667L360.667 324.333L360.333 323.667M485 323L486 324L485 323M794.667 323.333L795.333 323.667L794.667 323.333z"/>
<path style="fill:#ed1a1b; stroke:none;" d="M460 324C459.106 331.076 457.022 341.307 460.318 347.996C464.348 356.174 476.308 360.411 484 364.247C507.821 376.127 533.47 382 560 382C553.597 372.935 543.135 366.121 534 360.001C512.882 345.853 485.656 327.843 460 324z"/>
<path style="fill:#675a42; stroke:none;" d="M487.667 324.333L488.333 324.667L487.667 324.333M792 324L793 325L792 324z"/>
<path style="fill:#ed1a1b; stroke:none;" d="M721 382C747.45 382 773.202 375.974 797 364.244C803.999 360.794 816.097 356.091 819.972 348.91C823.288 342.765 821 330.877 821 324C795.4 327.781 768.048 345.482 747 359.67C737.746 365.908 727.487 372.791 721 382z"/>
<path style="fill:#675a42; stroke:none;" d="M450 325L450 349L451 349L450 325M490 325L491 326L490 325M790 325L791 326L790 325M920 325L921 326L920 325M359.333 326.667L359.667 327.333L359.333 326.667M492 326L493 327L492 326M788 326L789 327L788 326M494 327L495 328L494 327M785 327L786 328L785 327M809 327L810 328L809 327M921.333 327.667L921.667 328.333L921.333 327.667M496 328L497 329L496 328M783 328L784 329L783 328M282 329L282 335L283 335L282 329M358.333 329.667L358.667 330.333L358.333 329.667M498 329L499 330L498 329M781 329L782 330L781 329M500.667 330.333L501.333 330.667L500.667 330.333M779 330L780 331L779 330M922.333 330.667L922.667 331.333L922.333 330.667M986 330L987 331L986 330M502.667 331.333L503.333 331.667L502.667 331.333M777 331L778 332L777 331M830 331L830 344L831 344L830 331M357.333 332.667L357.667 333.333L357.333 332.667M504 332L505 333L504 332M775 332L776 333L775 332M506 333L507 334L506 333M773 333L774 334L773 333M923.333 333.667L923.667 334.333L923.333 333.667M508 334L509 335L508 334M771 334L772 335L771 334M935 334L936 335L935 334M356.333 335.667L356.667 336.333L356.333 335.667M510 335L511 336L510 335M769 335L770 336L769 335M492 336L493 337L492 336M512 336L513 337L512 336M768 336L769 337L768 336M924.333 336.667L924.667 337.333L924.333 336.667M95 337L95 338L99 338L95 337M293 337L294 338L293 337M514 337L515 338L514 337M766 337L767 338L766 337M936 337L937 338L936 337z"/>
<path style="fill:#030201; stroke:none;" d="M160 378C154.802 359.998 129.618 350.102 114 342.782C109.552 340.697 97.2656 334.519 93.5725 340.318C87.7613 349.442 93.051 360.988 101 365.934C114.739 374.484 144.27 385.57 160 378z"/>
<path style="fill:#675a42; stroke:none;" d="M102.667 338.333L103.333 338.667L102.667 338.333M355.333 338.667L355.667 339.333L355.333 338.667M516 338L517 339L516 338M764 338L765 339L764 338M93 339L94 340L93 339M105.667 339.333L106.333 339.667L105.667 339.333M343 339L344 340L343 339M517 339L518 340L517 339M762 339L763 340L762 339M108.667 340.333L109.333 340.667L108.667 340.333M281 340L281 343L282 343L281 340M519 340L520 341L519 340M761 340L762 341L761 340M925 340L926 341L925 340M987.333 340.667L987.667 341.333L987.333 340.667M92.3333 341.667L92.6667 342.333L92.3333 341.667M111 341L112 342L111 341M354.333 341.667L354.667 342.333L354.333 341.667M521 341L522 342L521 341M759 341L760 342L759 341M113 342L114 343L113 342M522 342L523 343L522 342M757 342L758 343L757 342M115 343L116 344L115 343M280 343L281 344L280 343M524 343L525 344L524 343M926 343L927 344L926 343M117 344L118 345L117 344M278 344L279 345L278 344M526 344L527 345L526 344M754 344L755 345L754 344M119 345L120 346L119 345M276 345L277 346L276 345M353 345L354 346L353 345M527 345L528 346L527 345M752 345L753 346L752 345M91 346L91 356L92 356L91 346M121 346L122 347L121 346M274 346L275 347L274 346M459 346L460 347L459 346M529 346L530 347L529 346M751 346L752 347L751 346M927.333 346.667L927.667 347.333L927.333 346.667M123 347L124 348L123 347M272 347L273 348L272 347M513 347L514 348L513 347M749 347L750 348L749 347M125 348L126 349L125 348M270 348L271 349L270 348M352.333 348.667L352.667 349.333L352.333 348.667M532 348L533 349L532 348M127 349L128 350L127 349M268 349L269 350L268 349M534 349L535 350L534 349M746 349L747 350L746 349M829.333 349.667L829.667 350.333L829.333 349.667M928.333 349.667L928.667 350.333L928.333 349.667M129 350L130 351L129 350M267 350L268 351L267 350M292.333 350.667L292.667 351.333L292.333 350.667M535 350L536 351L535 350M265 351L266 352L265 351M351.333 351.667L351.667 352.333L351.333 351.667M451 351L452 352L451 351M537 351L538 352L537 351M743 351L744 352L743 351M940 351L941 352L940 351M132 352L133 353L132 352M263 352L264 353L263 352M538 352L539 353L538 352M816 352L817 353L816 352M828 352L829 353L828 352M134 353L135 354L134 353M262 353L263 354L262 353M339 353L340 354L339 353M452 353L453 354L452 353M740 353L741 354L740 353M929.333 353.667L929.667 354.333L929.333 353.667M136 354L137 355L136 354M260 354L261 355L260 354M541 354L542 355L541 354M739 354L740 355L739 354M827 354L828 355L827 354M137 355L138 356L137 355M258 355L259 356L258 355M350.333 355.667L350.667 356.333L350.333 355.667M542 355L543 356L542 355M737 355L738 356L737 355M826 355L827 356L826 355M139 356L140 357L139 356M257 356L258 357L257 356M544 356L545 357L544 356M736 356L737 357L736 356M825 356L826 357L825 356M930.333 356.667L930.667 357.333L930.333 356.667M141 357L142 358L141 357M255 357L256 358L255 357M545 357L546 358L545 357M824 357L825 358L824 357M142 358L143 359L142 358M349 358L349 361L350 361L349 358M733 358L734 359L733 358M823 358L824 359L823 358M92 359L93 360L92 359M144 359L145 360L144 359M252 359L253 360L252 359M458 359L459 360L458 359M548 359L549 360L548 359M732 359L733 360L732 359M822 359L823 360L822 359M93 360L94 361L93 360M145 360L146 361L145 360M459 360L460 361L459 360M549 360L550 361L549 360M931.333 360.667L931.667 361.333L931.333 360.667M988 360L989 361L988 360M94 361L95 362L94 361M147 361L148 362L147 361M249 361L250 362L249 361M461 361L462 362L461 361M729 361L730 362L729 361M819 361L820 362L819 361M148 362L149 363L148 362M248 362L249 363L248 362M348 362L348 365L349 365L348 362M462 362L463 363L462 362M552 362L553 363L552 362M728 362L729 363L728 362M97 363L98 364L97 363M464 363L465 364L464 363M553 363L554 364L553 363M816 363L817 364L816 363M98 364L99 365L98 364M151 364L152 365L151 364M465 364L466 365L465 364M554 364L555 365L554 364M725 364L726 365L725 364M814 364L815 365L814 364M932.333 364.667L932.667 365.333L932.333 364.667M100 365L101 366L100 365M152 365L153 366L152 365M244 365L245 366L244 365M467 365L468 366L467 365M724 365L725 366L724 365M813 365L814 366L813 365M101 366L102 367L101 366M153 366L154 367L153 366M347 366L347 369L348 369L347 366M469 366L470 367L469 366M557 366L558 367L557 366M723 366L724 367L723 366M811 366L812 367L811 366M103 367L104 368L103 367M154 367L155 368L154 367M470 367L471 368L470 367M558 367L559 368L558 367M722 367L723 368L722 367M809 367L810 368L809 367M105 368L106 369L105 368M155 368L156 369L155 368M472 368L473 369L472 368M559 368L560 369L559 368M807 368L808 369L807 368M933.333 368.667L933.667 369.333L933.333 368.667M107 369L108 370L107 369M241 369L242 370L241 369M474 369L475 370L474 369M560 369L561 370L560 369M805 369L806 370L805 369M109 370L110 371L109 370M240 370L241 371L240 370M346 370L346 373L347 373L346 370M476 370L477 371L476 370M561 370L562 371L561 370M803.667 370.333L804.333 370.667L803.667 370.333M111.667 371.333L112.333 371.667L111.667 371.333M157 371L158 372L157 371M478 371L479 372L478 371M562 371L563 372L562 371M779 371L780 372L779 371M802 371L803 372L802 371M945 371L946 372L945 371M114 372L115 373L114 372M239 372L240 373L239 372M480 372L481 373L480 372M563 372L564 373L563 372M800 372L801 373L800 372M934 372L934 375L935 375L934 372M117 373L118 374L117 373M158 373L159 374L158 373M278.667 373.333L279.333 373.667L278.667 373.333M482 373L483 374L482 373M564 373L565 374L564 373M797.667 373.333L798.333 373.667L797.667 373.333M120 374L121 375L120 374M238 374L239 375L238 374M275.667 374.333L276.333 374.667L275.667 374.333M484 374L485 375L484 374M565 374L566 375L565 374M795 374L796 375L795 374M123.667 375.333L124.333 375.667L123.667 375.333M159 375L160 376L159 375M272.667 375.333L273.333 375.667L272.667 375.333M345.333 375.667L345.667 376.333L345.333 375.667M486.667 375.333L487.333 375.667L486.667 375.333M566 375L567 376L566 375M767 375L768 376L767 375M793 375L794 376L793 375M126.667 376.333L127.333 376.667L126.667 376.333M268.667 376.333L269.333 376.667L268.667 376.333M489 376L490 377L489 376M567 376L568 377L567 376M791 376L792 377L791 376M130 377L130 378L133 378L130 377z"/>
<path style="fill:#fffefe; stroke:none;" d="M120 434C110.779 427.511 103.146 419.656 93 414.32C71.9671 403.259 49.1058 402.176 26 404C26 465.642 95.8789 506.207 147 525.424C163.911 531.78 183.769 537.159 202 535.911C240.606 533.267 270.04 516.062 304 500C298.306 475.397 286.107 451.715 285 426L272 434C265.329 413.499 253.885 394.463 234 384.373C192.434 363.283 133.029 388.774 120 434z"/>
<path style="fill:#675a42; stroke:none;" d="M264.667 377.333L265.333 377.667L264.667 377.333M280 377L280 389L281 389L280 377M491 377L492 378L491 377M568 377L569 378L568 377M712 377L713 378L712 377M788.667 377.333L789.333 377.667L788.667 377.333M935.333 377.667L935.667 378.333L935.333 377.667M135 378L135 379L138 379L135 378M159 378L160 379L159 378M238 378L239 379L238 378M259 378L259 379L262 379L259 378M333 378L334 379L333 378M493.667 378.333L494.333 378.667L493.667 378.333M711 378L712 379L711 378M786 378L787 379L786 378M140 379L140 380L144 380L140 379M157 379L158 380L157 379M240.667 379.333L241.333 379.667L240.667 379.333M251 379L251 380L256 380L251 379M344 379L344 382L345 382L344 379M496.667 379.333L497.333 379.667L496.667 379.333M529 379L530 380L529 379M710 379L711 380L710 379M783.667 379.333L784.333 379.667L783.667 379.333M988 379L989 380L988 379M499 380L500 381L499 380M570 380L571 381L570 380M745 380L746 381L745 380M780.667 380.333L781.333 380.667L780.667 380.333M501.667 381.333L502.333 381.667L501.667 381.333M571 381L572 382L571 381M709 381L710 382L709 381M777.667 381.333L778.333 381.667L777.667 381.333M505 382L506 383L505 382M708.333 382.667L708.667 383.333L708.333 382.667M774.667 382.333L775.333 382.667L774.667 382.333M936.333 382.667L936.667 383.333L936.333 382.667M508.667 383.333L509.333 383.667L508.667 383.333M572.333 383.667L572.667 384.333L572.333 383.667M771.667 383.333L772.333 383.667L771.667 383.333M343 384L343 387L344 387L343 384M511.667 384.333L512.333 384.667L511.667 384.333M767 384L767 385L770 385L767 384M515.667 385.333L516.333 385.667L515.667 385.333M707.333 385.667L707.667 386.333L707.333 385.667M764.667 385.333L765.333 385.667L764.667 385.333M948 385L949 386L948 385M519.667 386.333L520.333 386.667L519.667 386.333M760.667 386.333L761.333 386.667L760.667 386.333M937 386L937 389L938 389L937 386M523.667 387.333L524.333 387.667L523.667 387.333M572 387L573 388L572 387M755 387L755 388L758 388L755 387M528.667 388.333L529.333 388.667L528.667 388.333M708 388L709 389L708 388M750 388L750 389L753 389L750 388M292 389L293 390L292 389M533 389L533 390L537 390L533 389M570 389L571 390L570 389M709.667 389.333L710.333 389.667L709.667 389.333M744 389L744 390L748 390L744 389M342.333 390.667L342.667 391.333L342.333 390.667M540 390L540 391L545 391L540 390M566 390L566 391L569 391L566 390z"/>
<path style="fill:#fffefe; stroke:none;" d="M510 496C498.102 484.102 486.207 472.843 472 463.692C430.94 437.246 384.962 432.893 338 442C339.66 522.399 417.88 582.548 482 617.309C526.312 641.331 578.899 663.723 630 665.961C665.817 667.529 701.641 658.487 735 646.05C808.576 618.62 887.119 573.151 925.691 502C936.127 482.75 938.077 463.679 943 443C902.601 425.618 845.286 440.217 810 462.695C795.064 472.21 783.971 485.717 770 496C767.776 481.152 758.141 465.352 749.997 453C715.368 400.48 651.925 374.985 592 399.452C551.302 416.069 523.296 455.208 510 496z"/>
<path style="fill:#675a42; stroke:none;" d="M712 390L712 391L715 391L712 390M736 390L736 391L741 391L736 390M551 391L551 392L562 392L551 391M719 391L719 392L730 392L719 391M938 392L938 395L939 395L938 392M281 393L281 400L282 400L281 393M330 393L331 394L330 393M341 395L341 398L342 398L341 395M950 396L951 397L950 396M939 397L939 401L940 401L939 397M987 399L988 400L987 399M340 401L340 405L341 405L340 401M951 402L952 403L951 402M940 404L940 408L941 408L940 404M282 405L282 411L283 411L282 405M182 406L182 407L186 407L182 406z"/>
<path style="fill:#030201; stroke:none;" d="M201 460L190.985 465.682L157 464L163 477L166 476L172 491L174 470C192.785 473.49 212.175 472.379 231 470L233 490C238.832 482.935 245.245 473.238 246 464C239.669 464 234.179 465.177 228 465.871C218.87 466.896 200.195 461.49 208.028 448.213C210.398 444.195 216.429 442.676 219.815 439.532C226.275 433.534 230.753 416.603 223.581 409.558C218.624 404.689 210.312 406 204 406C187.718 406 170.842 407.279 177.653 429C181.096 439.981 193.114 439.9 199.258 447.418C201.903 450.655 201 456.106 201 460z"/>
<path style="fill:#675a42; stroke:none;" d="M218.667 406.333L219.333 406.667L218.667 406.333M180 407L181 408L180 407M221 407L222 408L221 407M179 408L180 409L179 408M222 408L223 409L222 408M339 408L339 412L340 412L339 408M178 409L179 410L178 409z"/>
<path style="fill:#ffa409; stroke:none;" d="M177 410L178 411L177 410z"/>
<path style="fill:#675a42; stroke:none;" d="M177 411L178 412L177 411M225 411L226 412L225 411M294 412L295 413L294 412M941 412L941 416L942 416L941 412M176 413L176 427L177 427L176 413M226.333 413.667L226.667 414.333L226.333 413.667M283 415L283 419L284 419L283 415M338 416L338 423L339 423L338 416z"/>
<path style="fill:#ffa409; stroke:none;" d="M26 419L26 422L27 422L26 419z"/>
<path style="fill:#675a42; stroke:none;" d="M942 421L942 429L943 429L942 421M284 422L284 425L285 425L284 422M226 423L226 428L227 428L226 423z"/>
<path style="fill:#ffa409; stroke:none;" d="M27.3333 424.667L27.6667 425.333L27.3333 424.667z"/>
<path style="fill:#675a42; stroke:none;" d="M984 424L985 425L984 424z"/>
<path style="fill:#ffa409; stroke:none;" d="M28.3333 427.667L28.6667 428.333L28.3333 427.667M176 427L177 428L176 427M226 428L227 429L226 428z"/>
<path style="fill:#675a42; stroke:none;" d="M285 428L285 431L286 431L285 428M177 429L178 430L177 429z"/>
<path style="fill:#ffa409; stroke:none;" d="M29 430L30 431L29 430z"/>
<path style="fill:#675a42; stroke:none;" d="M225.333 430.667L225.667 431.333L225.333 430.667M983 430L984 431L983 430M178 431L179 432L178 431z"/>
<path style="fill:#ffa409; stroke:none;" d="M285 431L286 432L285 431z"/>
<path style="fill:#675a42; stroke:none;" d="M337 431L337 444L338 444L337 431z"/>
<path style="fill:#ffa409; stroke:none;" d="M30 433L31 434L30 433M179 433L180 434L179 433z"/>
<path style="fill:#675a42; stroke:none;" d="M224 433L225 434L224 433M180 434L181 435L180 434M286 434L286 437L287 437L286 434z"/>
<path style="fill:#ffa409; stroke:none;" d="M31 435L32 436L31 435z"/>
<path style="fill:#675a42; stroke:none;" d="M181 435L182 436L181 435z"/>
<path style="fill:#ffa409; stroke:none;" d="M223 435L224 436L223 435M619 435L620 436L619 435z"/>
<path style="fill:#675a42; stroke:none;" d="M620 435L620 436L628 436L620 435z"/>
<path style="fill:#030201; stroke:none;" d="M636 506C636 511.451 637.299 518.84 635.397 524C627.01 546.746 603.84 538.443 586.985 537.058C577.78 536.301 568.238 537 559 537L559 542L574.018 552.941L598.004 551.019L657 551L706.942 552.852L721 542L721 537C711.762 537 702.22 536.301 693.015 537.058C676.16 538.443 652.99 546.746 644.603 524C642.701 518.84 644 511.451 644 506C671.056 505.439 700.849 466.967 677.787 443.185C670.076 435.233 655.373 435.051 645 435.001C631.676 434.937 611.048 433.058 601.34 444.093C579.834 468.54 608.961 505.439 636 506z"/>
<path style="fill:#675a42; stroke:none;" d="M652 435L652 436L660 436L652 435z"/>
<path style="fill:#ffa409; stroke:none;" d="M660 435L661 436L660 435z"/>
<path style="fill:#675a42; stroke:none;" d="M182 436L183 437L182 436M222 436L223 437L222 436M614 436L614 437L617 437L614 436M663 436L663 437L666 437L663 436M982 436L983 437L982 436z"/>
<path style="fill:#ffa409; stroke:none;" d="M32 437L33 438L32 437z"/>
<path style="fill:#675a42; stroke:none;" d="M183 437L184 438L183 437z"/>
<path style="fill:#ffa409; stroke:none;" d="M610 437L611 438L610 437z"/>
<path style="fill:#675a42; stroke:none;" d="M611.667 437.333L612.333 437.667L611.667 437.333M667.667 437.333L668.333 437.667L667.667 437.333z"/>
<path style="fill:#ffa409; stroke:none;" d="M669 437L670 438L669 437z"/>
<path style="fill:#675a42; stroke:none;" d="M184 438L185 439L184 438M608 438L609 439L608 438M671 438L672 439L671 438z"/>
<path style="fill:#ffa409; stroke:none;" d="M33 439L34 440L33 439z"/>
<path style="fill:#675a42; stroke:none;" d="M186 439L187 440L186 439M287 439L287 442L288 442L287 439M606 439L607 440L606 439M673 439L674 440L673 439M187 440L188 441L187 440M218 440L219 441L218 440z"/>
<path style="fill:#ffa409; stroke:none;" d="M604 440L605 441L604 440z"/>
<path style="fill:#675a42; stroke:none;" d="M605 440L606 441L605 440M674 440L675 441L674 440z"/>
<path style="fill:#ffa409; stroke:none;" d="M34 441L35 442L34 441M188 441L189 442L188 441z"/>
<path style="fill:#675a42; stroke:none;" d="M189 441L190 442L189 441M217 441L218 442L217 441M603 441L604 442L603 441M676 441L677 442L676 441M981 441L982 442L981 441M190 442L191 443L190 442z"/>
<path style="fill:#ffa409; stroke:none;" d="M216 442L217 443L216 442z"/>
<path style="fill:#675a42; stroke:none;" d="M602 442L603 443L602 442M677 442L678 443L677 442M192 443L193 444L192 443M214 443L215 444L214 443M601 443L602 444L601 443M678 443L679 444L678 443z"/>
<path style="fill:#ffa409; stroke:none;" d="M36 444L37 445L36 444z"/>
<path style="fill:#675a42; stroke:none;" d="M194 444L195 445L194 444M212 444L213 445L212 444z"/>
<path style="fill:#ffa409; stroke:none;" d="M213 444L214 445L213 444z"/>
<path style="fill:#675a42; stroke:none;" d="M288.333 444.667L288.667 445.333L288.333 444.667M600 444L601 445L600 444z"/>
<path style="fill:#ffa409; stroke:none;" d="M679 444L680 445L679 444M942.333 444.667L942.667 445.333L942.333 444.667z"/>
<path style="fill:#675a42; stroke:none;" d="M196.667 445.333L197.333 445.667L196.667 445.333M210 445L211 446L210 445z"/>
<path style="fill:#ffa409; stroke:none;" d="M211 445L212 446L211 445z"/>
<path style="fill:#675a42; stroke:none;" d="M326 445L327 446L326 445z"/>
<path style="fill:#ffa409; stroke:none;" d="M198 446L199 447L198 446z"/>
<path style="fill:#675a42; stroke:none;" d="M199 446L200 447L199 446M208 446L209 447L208 446z"/>
<path style="fill:#ffa409; stroke:none;" d="M288 446L289 447L288 446z"/>
<path style="fill:#675a42; stroke:none;" d="M599 446L600 447L599 446M680 446L681 447L680 446M942 446L942 451L943 451L942 446z"/>
<path style="fill:#ffa409; stroke:none;" d="M38 447L39 448L38 447M207 447L208 448L207 447z"/>
<path style="fill:#675a42; stroke:none;" d="M598 447L599 448L598 447z"/>
<path style="fill:#ffa409; stroke:none;" d="M681 447L682 448L681 447z"/>
<path style="fill:#675a42; stroke:none;" d="M200 448L200 460L201 460L200 448z"/>
<path style="fill:#ffa409; stroke:none;" d="M338.333 448.667L338.667 449.333L338.333 448.667z"/>
<path style="fill:#675a42; stroke:none;" d="M681 448L682 449L681 448z"/>
<path style="fill:#ffa409; stroke:none;" d="M207 449L207 459L208 459L207 449z"/>
<path style="fill:#675a42; stroke:none;" d="M289.333 449.667L289.667 450.333L289.333 449.667M597.333 449.667L597.667 450.333L597.333 449.667z"/>
<path style="fill:#ffa409; stroke:none;" d="M682 449L683 450L682 449M40 450L41 451L40 450z"/>
<path style="fill:#675a42; stroke:none;" d="M338 450L338 455L339 455L338 450M682 450L683 451L682 450M979 450L980 451L979 450z"/>
<path style="fill:#ffa409; stroke:none;" d="M41 451L42 452L41 451z"/>
<path style="fill:#675a42; stroke:none;" d="M596.333 452.667L596.667 453.333L596.333 452.667z"/>
<path style="fill:#ffa409; stroke:none;" d="M683 452L684 453L683 452z"/>
<path style="fill:#675a42; stroke:none;" d="M290.333 453.667L290.667 454.333L290.333 453.667M683.333 453.667L683.667 454.333L683.333 453.667z"/>
<path style="fill:#ffa409; stroke:none;" d="M43 454L44 455L43 454M941 454L942 455L941 454M44 455L45 456L44 455M290 455L291 456L290 455z"/>
<path style="fill:#675a42; stroke:none;" d="M941 455L941 458L942 458L941 455M595 456L595 462L596 462L595 456z"/>
<path style="fill:#ffa409; stroke:none;" d="M684.333 456.667L684.667 457.333L684.333 456.667z"/>
<path style="fill:#675a42; stroke:none;" d="M291.333 457.667L291.667 458.333L291.333 457.667z"/>
<path style="fill:#ffa409; stroke:none;" d="M339 457L340 458L339 457z"/>
<path style="fill:#675a42; stroke:none;" d="M339.333 458.667L339.667 459.333L339.333 458.667M684 458L684 464L685 464L684 458M952 458L953 459L952 458z"/>
<path style="fill:#ffa409; stroke:none;" d="M47 459L48 460L47 459z"/>
<path style="fill:#675a42; stroke:none;" d="M207 459L208 460L207 459z"/>
<path style="fill:#ffa409; stroke:none;" d="M291 459L292 460L291 459M48 460L49 461L48 460z"/>
<path style="fill:#675a42; stroke:none;" d="M197 460L198 461L197 460M209 460L210 461L209 460z"/>
<path style="fill:#ffa409; stroke:none;" d="M210 460L211 461L210 460M940 460L941 461L940 460M49 461L50 462L49 461z"/>
<path style="fill:#675a42; stroke:none;" d="M196 461L197 462L196 461M292.333 461.667L292.667 462.333L292.333 461.667M940.333 461.667L940.667 462.333L940.333 461.667z"/>
<path style="fill:#ffa409; stroke:none;" d="M50 462L51 463L50 462z"/>
<path style="fill:#675a42; stroke:none;" d="M211 462L212 463L211 462z"/>
<path style="fill:#ffa409; stroke:none;" d="M340 462L341 463L340 462M157 463L157 464L169 464L157 463z"/>
<path style="fill:#675a42; stroke:none;" d="M195 463L196 464L195 463z"/>
<path style="fill:#ffa409; stroke:none;" d="M212 463L213 464L212 463z"/>
<path style="fill:#675a42; stroke:none;" d="M304 463L305 464L304 463M340.333 463.667L340.667 464.333L340.333 463.667M172 464L173 465L172 464z"/>
<path style="fill:#ffa409; stroke:none;" d="M194 464L195 465L194 464z"/>
<path style="fill:#675a42; stroke:none;" d="M232 464L233 465L232 464M246.333 464.667L246.667 465.333L246.333 464.667z"/>
<path style="fill:#ffa409; stroke:none;" d="M157 465L158 466L157 465z"/>
<path style="fill:#675a42; stroke:none;" d="M173 465L173 466L181 466L173 465z"/>
<path style="fill:#ffa409; stroke:none;" d="M181 465L181 466L184 466L181 465z"/>
<path style="fill:#675a42; stroke:none;" d="M213 465L214 466L213 465z"/>
<path style="fill:#ffa409; stroke:none;" d="M215 465L215 466L225 466L215 465M231 465L232 466L231 465z"/>
<path style="fill:#675a42; stroke:none;" d="M293 465L294 466L293 465M329 465L330 466L329 465M939.333 465.667L939.667 466.333L939.333 465.667z"/>
<path style="fill:#ffa409; stroke:none;" d="M158 466L159 467L158 466M246 466L247 467L246 466M293 466L294 467L293 466M341 466L342 467L341 466z"/>
<path style="fill:#675a42; stroke:none;" d="M341.333 467.667L341.667 468.333L341.333 467.667M684 467L684 472L685 472L684 467M245.333 468.667L245.667 469.333L245.333 468.667M294.333 468.667L294.667 469.333L294.333 468.667M595 468L595 473L596 473L595 468M161 469L161 472L162 472L161 469M938.333 469.667L938.667 470.333L938.333 469.667M174 470L174 471L177 471L174 470M227 470L227 471L231 471L227 470z"/>
<path style="fill:#ffa409; stroke:none;" d="M294 470L295 471L294 470M179.667 471.333L180.333 471.667L179.667 471.333z"/>
<path style="fill:#675a42; stroke:none;" d="M181 471L181 472L185 472L181 471M219 471L219 472L223 472L219 471z"/>
<path style="fill:#ffa409; stroke:none;" d="M223.667 471.333L224.333 471.667L223.667 471.333z"/>
<path style="fill:#675a42; stroke:none;" d="M342.333 471.667L342.667 472.333L342.333 471.667z"/>
<path style="fill:#ffa409; stroke:none;" d="M161 472L162 473L161 472M174 472L174 478L175 478L174 472M189.667 472.333L190.333 472.667L189.667 472.333z"/>
<path style="fill:#675a42; stroke:none;" d="M191 472L191 473L213 473L191 472z"/>
<path style="fill:#ffa409; stroke:none;" d="M213.667 472.333L214.333 472.667L213.667 472.333z"/>
<path style="fill:#675a42; stroke:none;" d="M244.333 472.667L244.667 473.333L244.333 472.667M295.333 472.667L295.667 473.333L295.333 472.667z"/>
<path style="fill:#ffa409; stroke:none;" d="M684 472L685 473L684 472M937 472L938 473L937 472M61 473L62 474L61 473z"/>
<path style="fill:#675a42; stroke:none;" d="M307 473L308 474L307 473M937.333 473.667L937.667 474.333L937.333 473.667z"/>
<path style="fill:#ffa409; stroke:none;" d="M62 474L63 475L62 474z"/>
<path style="fill:#675a42; stroke:none;" d="M343.333 474.667L343.667 475.333L343.333 474.667M683.333 474.667L683.667 475.333L683.333 474.667z"/>
<path style="fill:#ffa409; stroke:none;" d="M63 475L64 476L63 475z"/>
<path style="fill:#675a42; stroke:none;" d="M162.333 475.667L162.667 476.333L162.333 475.667M296.333 475.667L296.667 476.333L296.333 475.667M596 475L597 476L596 475M972 475L973 476L972 475z"/>
<path style="fill:#ffa409; stroke:none;" d="M64 476L65 477L64 476z"/>
<path style="fill:#675a42; stroke:none;" d="M164.667 476.333L165.333 476.667L164.667 476.333M184 476L184 480L185 480L185 477L217 477L184 476M243 476L244 477L243 476z"/>
<path style="fill:#ffa409; stroke:none;" d="M596 476L597 477L596 476M683 476L684 477L683 476z"/>
<path style="fill:#675a42; stroke:none;" d="M936.333 476.667L936.667 477.333L936.333 476.667z"/>
<path style="fill:#ffa409; stroke:none;" d="M65 477L66 478L65 477z"/>
<path style="fill:#675a42; stroke:none;" d="M166 477L167 478L166 477z"/>
<path style="fill:#030201; stroke:none;" d="M185 477L191 482C197.197 476.313 201.185 489.541 208 479L209 479C212.373 482.022 215.537 481.37 217 477L185 477z"/>
<path style="fill:#675a42; stroke:none;" d="M239 477L240 478L239 477z"/>
<path style="fill:#ffa409; stroke:none;" d="M296 477L297 478L296 477z"/>
<path style="fill:#675a42; stroke:none;" d="M332 477L333 478L332 477z"/>
<path style="fill:#ffa409; stroke:none;" d="M344 477L345 478L344 477z"/>
<path style="fill:#675a42; stroke:none;" d="M174 478L174 488L175 488L174 478M344 478L345 479L344 478M597 478L598 479L597 478M682 478L683 479L682 478z"/>
<path style="fill:#ffa409; stroke:none;" d="M192 479L193 480L192 479M194 479L195 480L194 479z"/>
<path style="fill:#675a42; stroke:none;" d="M195 479L196 480L195 479M208 479L209 480L208 479M238 479L239 480L238 479M297 479L298 480L297 479z"/>
<path style="fill:#ffa409; stroke:none;" d="M597 479L598 480L597 479z"/>
<path style="fill:#675a42; stroke:none;" d="M935.333 479.667L935.667 480.333L935.333 479.667M167 480L168 481L167 480z"/>
<path style="fill:#ffa409; stroke:none;" d="M185 480L186 481L185 480z"/>
<path style="fill:#675a42; stroke:none;" d="M186 480L187 481L186 480M191 480L192 481L191 480M196 480L197 481L196 480M207 480L208 481L207 480M215 480L216 481L215 480z"/>
<path style="fill:#ffa409; stroke:none;" d="M297 480L298 481L297 480z"/>
<path style="fill:#675a42; stroke:none;" d="M345.333 480.667L345.667 481.333L345.333 480.667M681 480L682 481L681 480z"/>
<path style="fill:#ffa409; stroke:none;" d="M70 481L71 482L70 481M167 481L168 482L167 481M187 481L188 482L187 481z"/>
<path style="fill:#675a42; stroke:none;" d="M188 481L189 482L188 481M197 481L198 482L197 481M206 481L207 482L206 481M211 481L212 482L211 481M214 481L215 482L214 481M237 481L238 482L237 481M598 481L599 482L598 481z"/>
<path style="fill:#ffa409; stroke:none;" d="M681 481L682 482L681 481M71 482L72 483L71 482M190 482L191 483L190 482z"/>
<path style="fill:#675a42; stroke:none;" d="M205 482L206 483L205 482z"/>
<path style="fill:#ffa409; stroke:none;" d="M212 482L213 483L212 482M237 482L238 483L237 482z"/>
<path style="fill:#675a42; stroke:none;" d="M298 482L299 483L298 482M680.333 482.667L680.667 483.333L680.333 482.667M934 482L935 483L934 482M946 482L947 483L946 482M168 483L169 484L168 483M198 483L199 484L198 483z"/>
<path style="fill:#ffa409; stroke:none;" d="M298 483L299 484L298 483z"/>
<path style="fill:#675a42; stroke:none;" d="M346.333 483.667L346.667 484.333L346.333 483.667M599 483L600 484L599 483z"/>
<path style="fill:#ffa409; stroke:none;" d="M168 484L169 485L168 484z"/>
<path style="fill:#675a42; stroke:none;" d="M199 484L200 485L199 484M236 484L237 485L236 484M679 484L680 485L679 484z"/>
<path style="fill:#ffa409; stroke:none;" d="M933 484L934 485L933 484z"/>
<path style="fill:#675a42; stroke:none;" d="M969 484L970 485L969 484z"/>
<path style="fill:#ffa409; stroke:none;" d="M75 485L76 486L75 485z"/>
<path style="fill:#675a42; stroke:none;" d="M200 485L200 486L203 486L200 485M299 485L300 486L299 485z"/>
<path style="fill:#ffa409; stroke:none;" d="M347 485L348 486L347 485M600 485L601 486L600 485M679 485L680 486L679 485z"/>
<path style="fill:#675a42; stroke:none;" d="M933 485L934 486L933 485M945 485L946 486L945 485z"/>
<path style="fill:#ffa409; stroke:none;" d="M76 486L77 487L76 486z"/>
<path style="fill:#675a42; stroke:none;" d="M169 486L170 487L169 486M235 486L236 487L235 486z"/>
<path style="fill:#ffa409; stroke:none;" d="M299 486L300 487L299 486z"/>
<path style="fill:#675a42; stroke:none;" d="M347 486L348 487L347 486M601 486L602 487L601 486M678 486L679 487L678 486M231 487L232 488L231 487z"/>
<path style="fill:#ffa409; stroke:none;" d="M235 487L236 488L235 487z"/>
<path style="fill:#675a42; stroke:none;" d="M932 487L933 488L932 487M968 487L969 488L968 487z"/>
<path style="fill:#ffa409; stroke:none;" d="M79 488L80 489L79 488z"/>
<path style="fill:#675a42; stroke:none;" d="M170 488L171 489L170 488z"/>
<path style="fill:#ffa409; stroke:none;" d="M174 488L175 489L174 488M231 488L232 489L231 488z"/>
<path style="fill:#675a42; stroke:none;" d="M234.333 488.667L234.667 489.333L234.333 488.667M300 488L301 489L300 488M312 488L313 489L312 488M348 488L349 489L348 488z"/>
<path style="fill:#ffa409; stroke:none;" d="M602 488L603 489L602 488M677 488L678 489L677 488M80 489L81 490L80 489z"/>
<path style="fill:#675a42; stroke:none;" d="M173 489L174 490L173 489M232 489L233 490L232 489z"/>
<path style="fill:#ffa409; stroke:none;" d="M300 489L301 490L300 489z"/>
<path style="fill:#675a42; stroke:none;" d="M603 489L604 490L603 489M676 489L677 490L676 489z"/>
<path style="fill:#ffa409; stroke:none;" d="M931 489L932 490L931 489M171 490L172 491L171 490z"/>
<path style="fill:#675a42; stroke:none;" d="M233 490L234 491L233 490M349.333 490.667L349.667 491.333L349.333 490.667M604 490L605 491L604 490M675 490L676 491L675 490M931 490L932 491L931 490z"/>
<path style="fill:#ffa409; stroke:none;" d="M83 491L84 492L83 491z"/>
<path style="fill:#675a42; stroke:none;" d="M301 491L302 492L301 491M605 491L606 492L605 491M674 491L675 492L674 491z"/>
<path style="fill:#ffa409; stroke:none;" d="M84 492L85 493L84 492M350 492L351 493L350 492z"/>
<path style="fill:#675a42; stroke:none;" d="M930 492L931 493L930 492M302.333 493.667L302.667 494.333L302.333 493.667M350 493L351 494L350 493z"/>
<path style="fill:#ffa409; stroke:none;" d="M87 494L88 495L87 494z"/>
<path style="fill:#675a42; stroke:none;" d="M671 494L672 495L671 494M929 494L930 495L929 494M351 495L352 496L351 495M609 495L610 496L609 495M670 495L671 496L670 495M965 495L966 496L965 495z"/>
<path style="fill:#ffa409; stroke:none;" d="M90 496L91 497L90 496z"/>
<path style="fill:#675a42; stroke:none;" d="M303 496L304 497L303 496M315 496L316 497L315 496M610 496L611 497L610 496M669 496L670 497L669 496M928 496L929 497L928 496z"/>
<path style="fill:#ffa409; stroke:none;" d="M303 497L304 498L303 497z"/>
<path style="fill:#675a42; stroke:none;" d="M352 497L353 498L352 497M611 497L612 498L611 497M668 497L669 498L668 497z"/>
<path style="fill:#ffa409; stroke:none;" d="M93 498L94 499L93 498M612 498L613 499L612 498z"/>
<path style="fill:#675a42; stroke:none;" d="M666 498L667 499L666 498M927 498L928 499L927 498M304 499L305 500L304 499M353 499L354 500L353 499M614 499L615 500L614 499M665 499L666 500L665 499z"/>
<path style="fill:#ffa409; stroke:none;" d="M96 500L97 501L96 500M302 500L303 501L302 500z"/>
<path style="fill:#675a42; stroke:none;" d="M616 500L617 501L616 500M663 500L664 501L663 500M926 500L927 501L926 500z"/>
<path style="fill:#ffa409; stroke:none;" d="M98 501L99 502L98 501M300 501L301 502L300 501z"/>
<path style="fill:#675a42; stroke:none;" d="M354 501L355 502L354 501z"/>
<path style="fill:#ffa409; stroke:none;" d="M617 501L618 502L617 501z"/>
<path style="fill:#675a42; stroke:none;" d="M618 501L619 502L618 501M661 501L662 502L661 501z"/>
<path style="fill:#ffa409; stroke:none;" d="M662 501L663 502L662 501M99 502L100 503L99 502M299 502L300 503L299 502M355 502L356 503L355 502M619 502L620 503L619 502z"/>
<path style="fill:#675a42; stroke:none;" d="M620 502L621 503L620 502M659 502L660 503L659 502z"/>
<path style="fill:#ffa409; stroke:none;" d="M660 502L661 503L660 502z"/>
<path style="fill:#675a42; stroke:none;" d="M925 502L926 503L925 502z"/>
<path style="fill:#ffa409; stroke:none;" d="M101 503L102 504L101 503M297 503L298 504L297 503z"/>
<path style="fill:#675a42; stroke:none;" d="M355 503L356 504L355 503z"/>
<path style="fill:#ffa409; stroke:none;" d="M621 503L622 504L621 503z"/>
<path style="fill:#675a42; stroke:none;" d="M622 503L623 504L622 503M657 503L658 504L657 503z"/>
<path style="fill:#ffa409; stroke:none;" d="M356 504L357 505L356 504M624 504L625 505L624 504z"/>
<path style="fill:#675a42; stroke:none;" d="M625 504L626 505L625 504M654 504L655 505L654 504z"/>
<path style="fill:#ffa409; stroke:none;" d="M655 504L656 505L655 504z"/>
<path style="fill:#675a42; stroke:none;" d="M924 504L925 505L924 504z"/>
<path style="fill:#ffa409; stroke:none;" d="M104 505L105 506L104 505M294 505L295 506L294 505z"/>
<path style="fill:#675a42; stroke:none;" d="M356 505L357 506L356 505z"/>
<path style="fill:#ffa409; stroke:none;" d="M627 505L628 506L627 505z"/>
<path style="fill:#675a42; stroke:none;" d="M628.667 505.333L629.333 505.667L628.667 505.333M650.667 505.333L651.333 505.667L650.667 505.333z"/>
<path style="fill:#ffa409; stroke:none;" d="M923 505L924 506L923 505M106 506L107 507L106 506M292 506L293 507L292 506z"/>
<path style="fill:#675a42; stroke:none;" d="M357 506L358 507L357 506z"/>
<path style="fill:#ffa409; stroke:none;" d="M632 506L633 507L632 506z"/>
<path style="fill:#675a42; stroke:none;" d="M633 506L633 507L635 526L636 526L636 506L633 506M644 506L644 507L647 507L644 506z"/>
<path style="fill:#ffa409; stroke:none;" d="M647 506L648 507L647 506z"/>
<path style="fill:#675a42; stroke:none;" d="M923 506L924 507L923 506z"/>
<path style="fill:#ffa409; stroke:none;" d="M108 507L109 508L108 507M290 507L291 508L290 507M644 507L645 508L644 507z"/>
<path style="fill:#675a42; stroke:none;" d="M922 507L923 508L922 507M320 508L321 509L320 508M358 508L359 509L358 508M644 508L644 524L645 524L644 508z"/>
<path style="fill:#ffa409; stroke:none;" d="M111 509L112 510L111 509M287 509L288 510L287 509z"/>
<path style="fill:#675a42; stroke:none;" d="M921 509L922 510L921 509z"/>
<path style="fill:#ffa409; stroke:none;" d="M113 510L114 511L113 510M285 510L286 511L285 510z"/>
<path style="fill:#675a42; stroke:none;" d="M346 510L347 511L346 510M359 510L360 511L359 510z"/>
<path style="fill:#ffa409; stroke:none;" d="M920 510L921 511L920 510M115 511L116 512L115 511M283 511L284 512L283 511z"/>
<path style="fill:#675a42; stroke:none;" d="M360 511L361 512L360 511M920 511L921 512L920 511M933 511L934 512L933 511z"/>
<path style="fill:#ffa409; stroke:none;" d="M117 512L118 513L117 512M281 512L282 513L281 512z"/>
<path style="fill:#675a42; stroke:none;" d="M919 512L920 513L919 512z"/>
<path style="fill:#ffa409; stroke:none;" d="M119 513L120 514L119 513M279 513L280 514L279 513z"/>
<path style="fill:#675a42; stroke:none;" d="M361 513L362 514L361 513z"/>
<path style="fill:#ffa409; stroke:none;" d="M121 514L122 515L121 514M277 514L278 515L277 514M362 514L363 515L362 514z"/>
<path style="fill:#675a42; stroke:none;" d="M918 514L919 515L918 514M957 514L958 515L957 514z"/>
<path style="fill:#ffa409; stroke:none;" d="M123 515L124 516L123 515M275 515L276 516L275 515M917 515L918 516L917 515M125 516L126 517L125 516M273 516L274 517L273 516z"/>
<path style="fill:#675a42; stroke:none;" d="M363 516L364 517L363 516M930 516L931 517L930 516z"/>
<path style="fill:#ffa409; stroke:none;" d="M127 517L128 518L127 517M271 517L272 518L271 517M364 517L365 518L364 517z"/>
<path style="fill:#675a42; stroke:none;" d="M916 517L917 518L916 517z"/>
<path style="fill:#ffa409; stroke:none;" d="M129 518L130 519L129 518M269 518L270 519L269 518M915 518L916 519L915 518M132 519L133 520L132 519M266 519L267 520L266 519z"/>
<path style="fill:#675a42; stroke:none;" d="M325 519L326 520L325 519M365 519L366 520L365 519z"/>
<path style="fill:#ffa409; stroke:none;" d="M134 520L135 521L134 520M264 520L265 521L264 520M366 520L367 521L366 520z"/>
<path style="fill:#675a42; stroke:none;" d="M914 520L915 521L914 520z"/>
<path style="fill:#ffa409; stroke:none;" d="M136 521L137 522L136 521M262 521L263 522L262 521z"/>
<path style="fill:#675a42; stroke:none;" d="M913 521L914 522L913 521z"/>
<path style="fill:#ffa409; stroke:none;" d="M139 522L140 523L139 522M259 522L260 523L259 522z"/>
<path style="fill:#675a42; stroke:none;" d="M367 522L368 523L367 522z"/>
<path style="fill:#ffa409; stroke:none;" d="M141 523L142 524L141 523M256.667 523.333L257.333 523.667L256.667 523.333z"/>
<path style="fill:#675a42; stroke:none;" d="M368 523L369 524L368 523M912 523L913 524L912 523z"/>
<path style="fill:#ffa409; stroke:none;" d="M144 524L145 525L144 524M254 524L255 525L254 524M644 524L645 525L644 524z"/>
<path style="fill:#675a42; stroke:none;" d="M911 524L912 525L911 524z"/>
<path style="fill:#ffa409; stroke:none;" d="M146.667 525.333L147.333 525.667L146.667 525.333M251 525L252 526L251 525z"/>
<path style="fill:#675a42; stroke:none;" d="M369 525L370 526L369 525M644 525L645 526L644 525z"/>
<path style="fill:#ffa409; stroke:none;" d="M910 525L911 526L910 525M149 526L150 527L149 526M248 526L249 527L248 526z"/>
<path style="fill:#675a42; stroke:none;" d="M370 526L371 527L370 526M634 526L635 527L634 526M645 526L646 527L645 526z"/>
<path style="fill:#ffa409; stroke:none;" d="M152 527L153 528L152 527M245 527L246 528L245 527z"/>
<path style="fill:#675a42; stroke:none;" d="M371 527L372 528L371 527M633 527L634 528L633 527M646 527L647 528L646 527M909 527L910 528L909 527z"/>
<path style="fill:#ffa409; stroke:none;" d="M155.667 528.333L156.333 528.667L155.667 528.333M242 528L243 529L242 528z"/>
<path style="fill:#675a42; stroke:none;" d="M632 528L633 529L632 528M647 528L648 529L647 528M908 528L909 529L908 528M922 528L923 529L922 528z"/>
<path style="fill:#ffa409; stroke:none;" d="M158.667 529.333L159.333 529.667L158.667 529.333M238.667 529.333L239.333 529.667L238.667 529.333z"/>
<path style="fill:#675a42; stroke:none;" d="M631 529L632 530L631 529M648 529L649 530L648 529z"/>
<path style="fill:#ffa409; stroke:none;" d="M907 529L908 530L907 529M162 530L163 531L162 530M235 530L236 531L235 530z"/>
<path style="fill:#675a42; stroke:none;" d="M359 530L360 531L359 530M373 530L374 531L373 530M630 530L631 531L630 530M649 530L650 531L649 530z"/>
<path style="fill:#ffa409; stroke:none;" d="M165.667 531.333L166.333 531.667L165.667 531.333M231 531L232 532L231 531z"/>
<path style="fill:#675a42; stroke:none;" d="M331 531L332 532L331 531M374 531L375 532L374 531M629 531L630 532L629 531M650 531L651 532L650 531z"/>
<path style="fill:#ffa409; stroke:none;" d="M170 532L171 533L170 532M226.667 532.333L227.333 532.667L226.667 532.333M375 532L376 533L375 532z"/>
<path style="fill:#675a42; stroke:none;" d="M628 532L629 533L628 532M651 532L652 533L651 532M905 532L906 533L905 532z"/>
<path style="fill:#ffa409; stroke:none;" d="M174.667 533.333L175.333 533.667L174.667 533.333M221 533L221 534L224 534L221 533z"/>
<path style="fill:#675a42; stroke:none;" d="M627 533L628 534L627 533M652 533L653 534L652 533M904 533L905 534L904 533z"/>
<path style="fill:#ffa409; stroke:none;" d="M179 534L179 535L182 535L179 534M215 534L215 535L218 535L215 534z"/>
<path style="fill:#675a42; stroke:none;" d="M376 534L377 535L376 534M626 534L627 535L626 534M653 534L654 535L653 534z"/>
<path style="fill:#ffa409; stroke:none;" d="M903 534L904 535L903 534M187 535L187 536L191 536L187 535M205 535L205 536L210 536L205 535z"/>
<path style="fill:#675a42; stroke:none;" d="M377 535L378 536L377 535M625 535L626 536L625 535M654 535L655 536L654 535M378 536L379 537L378 536z"/>
<path style="fill:#ffa409; stroke:none;" d="M558 536L559 537L558 536z"/>
<path style="fill:#675a42; stroke:none;" d="M559 536L559 537L591 537L559 536M624 536L625 537L624 536M655 536L656 537L655 536M689 536L689 537L721 537L689 536M946 536L947 537L946 536M379 537L380 538L379 537M558 537L558 541L559 541L558 537M591 537L592 538L591 537M623 537L624 538L623 537M656 537L657 538L656 537M688 537L689 538L688 537M721 537L721 541L722 541L721 537M901 537L902 538L901 537z"/>
<path style="fill:#ffa409; stroke:none;" d="M380 538L381 539L380 538M592 538L593 539L592 538z"/>
<path style="fill:#675a42; stroke:none;" d="M622 538L623 539L622 538M657 538L658 539L657 538M687.333 538.667L687.667 539.333L687.333 538.667M900 538L901 539L900 538M592 539L593 540L592 539M621 539L622 540L621 539M658 539L659 540L658 539M899 539L900 540L899 539M898 540L899 541L898 540M913 540L914 541L913 540M382 541L383 542L382 541z"/>
<path style="fill:#ffa409; stroke:none;" d="M558 541L559 542L558 541M897 541L898 542L897 541z"/>
<path style="fill:#675a42; stroke:none;" d="M337 542L338 543L337 542M383 542L384 543L383 542M559 542L559 543L565 543L559 542M715 542L715 543L720 543L715 542z"/>
<path style="fill:#ffa409; stroke:none;" d="M720 542L721 543L720 542M896 542L897 543L896 542z"/>
<path style="fill:#675a42; stroke:none;" d="M369 543L370 544L369 543M384 543L385 544L384 543M566 543L567 544L566 543M713 543L714 544L713 543M385 544L386 545L385 544M386 545L387 546L386 545M567.333 545.667L567.667 546.333L567.333 545.667M712.333 545.667L712.667 546.333L712.333 545.667M894 545L895 546L894 545M387 546L388 547L387 546M893 546L894 547L893 546z"/>
<path style="fill:#ffa409; stroke:none;" d="M388 547L389 548L388 547M567 547L568 548L567 547z"/>
<path style="fill:#675a42; stroke:none;" d="M892 547L893 548L892 547z"/>
<path style="fill:#ffa409; stroke:none;" d="M389 548L390 549L389 548z"/>
<path style="fill:#675a42; stroke:none;" d="M711.333 548.667L711.667 549.333L711.333 548.667M891 548L892 549L891 548z"/>
<path style="fill:#ffa409; stroke:none;" d="M390 549L391 550L390 549z"/>
<path style="fill:#675a42; stroke:none;" d="M568.333 549.667L568.667 550.333L568.333 549.667M890 549L891 550L890 549z"/>
<path style="fill:#ffa409; stroke:none;" d="M391 550L392 551L391 550M711 550L712 551L711 550z"/>
<path style="fill:#675a42; stroke:none;" d="M889 550L890 551L889 550z"/>
<path style="fill:#ffa409; stroke:none;" d="M392 551L393 552L392 551z"/>
<path style="fill:#675a42; stroke:none;" d="M592 551L593 552L592 551z"/>
<path style="fill:#ffa409; stroke:none;" d="M593 551L593 552L655 552L688 553C682.098 548.528 669.228 551 662 551L593 551z"/>
<path style="fill:#675a42; stroke:none;" d="M687 551L688 552L687 551M888 551L889 552L888 551z"/>
<path style="fill:#ffa409; stroke:none;" d="M393 552L394 553L393 552z"/>
<path style="fill:#675a42; stroke:none;" d="M569 552L569 553L591 554L591 553L569 552z"/>
<path style="fill:#ffa409; stroke:none;" d="M592 552L593 553L592 552z"/>
<path style="fill:#675a42; stroke:none;" d="M710 552L711 553L710 552M887 552L888 553L887 552z"/>
<path style="fill:#ffa409; stroke:none;" d="M394 553L395 554L394 553M569 553L570 554L569 553M591 553L592 554L591 553z"/>
<path style="fill:#675a42; stroke:none;" d="M688 553L688 554L710 554L688 553M886 553L887 554L886 553z"/>
<path style="fill:#ffa409; stroke:none;" d="M395 554L396 555L395 554z"/>
<path style="fill:#675a42; stroke:none;" d="M885 554L886 555L885 554z"/>
<path style="fill:#ffa409; stroke:none;" d="M396 555L397 556L396 555z"/>
<path style="fill:#675a42; stroke:none;" d="M884 555L885 556L884 555z"/>
<path style="fill:#ffa409; stroke:none;" d="M397 556L398 557L397 556z"/>
<path style="fill:#675a42; stroke:none;" d="M883 556L884 557L883 556M899 556L900 557L899 556z"/>
<path style="fill:#ffa409; stroke:none;" d="M398 557L399 558L398 557z"/>
<path style="fill:#675a42; stroke:none;" d="M882 557L883 558L882 557z"/>
<path style="fill:#ffa409; stroke:none;" d="M399 558L400 559L399 558z"/>
<path style="fill:#675a42; stroke:none;" d="M881 558L882 559L881 558M400 559L401 560L400 559M880 559L881 560L880 559M348 560L349 561L348 560M401 560L402 561L401 560z"/>
<path style="fill:#ffa409; stroke:none;" d="M610 560L610 561L669 561L650 560L610 560z"/>
<path style="fill:#675a42; stroke:none;" d="M879 560L880 561L879 560M402 561L403 562L402 561z"/>
<path style="fill:#030201; stroke:none;" d="M610 561L610 566C619.793 569.126 629.851 584.162 640 584.162C645.942 584.162 653.332 576.257 658 573.025C662.806 569.697 668.498 567.319 669 561L610 561z"/>
<path style="fill:#675a42; stroke:none;" d="M669 561L669 566L670 566L669 561M878 561L879 562L878 561z"/>
<path style="fill:#fffefe; stroke:none;" d="M0 562L0 730L280 730L280 562L0 562z"/>
<path style="fill:#675a42; stroke:none;" d="M403 562L404 563L403 562M404 563L405 564L404 563M405 564L406 565L405 564z"/>
<path style="fill:#ffa409; stroke:none;" d="M874 564L875 565L874 564z"/>
<path style="fill:#675a42; stroke:none;" d="M406 565L407 566L406 565z"/>
<path style="fill:#ffa409; stroke:none;" d="M873 565L874 566L873 565M612 566L613 567L612 566z"/>
<path style="fill:#675a42; stroke:none;" d="M667 566L668 567L667 566M872 566L873 567L872 566M889 566L890 567L889 566z"/>
<path style="fill:#ffa409; stroke:none;" d="M409 567L410 568L409 567z"/>
<path style="fill:#675a42; stroke:none;" d="M614 567L615 568L614 567M665 567L666 568L665 567M871 567L872 568L871 567M927 567L928 568L927 567z"/>
<path style="fill:#ffa409; stroke:none;" d="M410 568L411 569L410 568z"/>
<path style="fill:#675a42; stroke:none;" d="M615 568L616 569L615 568M664 568L665 569L664 568M870 568L871 569L870 568M411 569L412 570L411 569M617 569L618 570L617 569z"/>
<path style="fill:#ffa409; stroke:none;" d="M663 569L664 570L663 569z"/>
<path style="fill:#675a42; stroke:none;" d="M869 569L870 570L869 569M412 570L413 571L412 570M618 570L619 571L618 570M661 570L662 571L661 570M413 571L414 572L413 571z"/>
<path style="fill:#ffa409; stroke:none;" d="M619 571L620 572L619 571M660 571L661 572L660 571M866 571L867 572L866 571z"/>
<path style="fill:#675a42; stroke:none;" d="M621 572L622 573L621 572M658 572L659 573L658 572M865 572L866 573L865 572z"/>
<path style="fill:#ffa409; stroke:none;" d="M416 573L417 574L416 573z"/>
<path style="fill:#675a42; stroke:none;" d="M622 573L623 574L622 573M657 573L658 574L657 573M864 573L865 574L864 573M417 574L418 575L417 574M624 574L625 575L624 574M655 574L656 575L655 574z"/>
<path style="fill:#ffa409; stroke:none;" d="M656 574L657 575L656 574z"/>
<path style="fill:#675a42; stroke:none;" d="M863 574L864 575L863 574M922 574L923 575L922 574M418 575L419 576L418 575M625 575L626 576L625 575M654 575L655 576L654 575z"/>
<path style="fill:#ffa409; stroke:none;" d="M861 575L862 576L861 575z"/>
<path style="fill:#675a42; stroke:none;" d="M359 576L360 577L359 576M419 576L420 577L419 576z"/>
<path style="fill:#ffa409; stroke:none;" d="M626 576L627 577L626 576M653 576L654 577L653 576z"/>
<path style="fill:#675a42; stroke:none;" d="M860 576L861 577L860 576M878 576L879 577L878 576z"/>
<path style="fill:#ffa409; stroke:none;" d="M421 577L422 578L421 577z"/>
<path style="fill:#675a42; stroke:none;" d="M628 577L629 578L628 577M651 577L652 578L651 577M859 577L860 578L859 577M422 578L423 579L422 578M629 578L630 579L629 578M650 578L651 579L650 578M858 578L859 579L858 578M423 579L424 580L423 579M631 579L632 580L631 579M648 579L649 580L648 579z"/>
<path style="fill:#ffa409; stroke:none;" d="M856 579L857 580L856 579z"/>
<path style="fill:#675a42; stroke:none;" d="M362 580L363 581L362 580M424 580L425 581L424 580M632 580L633 581L632 580M647 580L648 581L647 580M855 580L856 581L855 580M426 581L427 582L426 581z"/>
<path style="fill:#ffa409; stroke:none;" d="M633 581L634 582L633 581M646 581L647 582L646 581z"/>
<path style="fill:#675a42; stroke:none;" d="M854 581L855 582L854 581M427 582L428 583L427 582M635 582L636 583L635 582M644 582L645 583L644 582M428 583L429 584L428 583M636 583L637 584L636 583M643 583L644 584L643 583M851 583L852 584L851 583z"/>
<path style="fill:#ffa409; stroke:none;" d="M430 584L431 585L430 584z"/>
<path style="fill:#675a42; stroke:none;" d="M638 584L639 585L638 584M641 584L642 585L641 584M850 584L851 585L850 584M431 585L432 586L431 585M639.667 585.333L640.333 585.667L639.667 585.333M849 585L850 586L849 585M432 586L433 587L432 586M847 586L848 587L847 586M415 587L416 588L415 587M434 587L435 588L434 587M846 587L847 588L846 587M435 588L436 589L435 588z"/>
<path style="fill:#ffa409; stroke:none;" d="M844 588L845 589L844 588M437 589L438 590L437 589z"/>
<path style="fill:#675a42; stroke:none;" d="M843 589L844 590L843 589M438 590L439 591L438 590M842 590L843 591L842 590M439 591L440 592L439 591M840 591L841 592L840 591M441 592L442 593L441 592M839 592L840 593L839 592M908 592L909 593L908 592M442 593L443 594L442 593z"/>
<path style="fill:#ffa409; stroke:none;" d="M837 593L838 594L837 593z"/>
<path style="fill:#675a42; stroke:none;" d="M444 594L445 595L444 594M836 594L837 595L836 594M445 595L446 596L445 595z"/>
<path style="fill:#ffa409; stroke:none;" d="M834 595L835 596L834 595z"/>
<path style="fill:#675a42; stroke:none;" d="M854 595L855 596L854 595M375 596L376 597L375 596z"/>
<path style="fill:#ffa409; stroke:none;" d="M447 596L448 597L447 596z"/>
<path style="fill:#675a42; stroke:none;" d="M833 596L834 597L833 596M448 597L449 598L448 597z"/>
<path style="fill:#ffa409; stroke:none;" d="M831 597L832 598L831 597M450 598L451 599L450 598z"/>
<path style="fill:#675a42; stroke:none;" d="M830 598L831 599L830 598M451 599L452 600L451 599z"/>
<path style="fill:#ffa409; stroke:none;" d="M828 599L829 600L828 599z"/>
<path style="fill:#675a42; stroke:none;" d="M453 600L454 601L453 600M827 600L828 601L827 600M454 601L455 602L454 601M825 601L826 602L825 601M456 602L457 603L456 602M824 602L825 603L824 602M457 603L458 604L457 603z"/>
<path style="fill:#ffa409; stroke:none;" d="M458 603L459 604L458 603z"/>
<path style="fill:#675a42; stroke:none;" d="M822 603L823 604L822 603M382 604L383 605L382 604M459 604L460 605L459 604z"/>
<path style="fill:#ffa409; stroke:none;" d="M820 604L821 605L820 604z"/>
<path style="fill:#675a42; stroke:none;" d="M821 604L822 605L821 604M461 605L462 606L461 605M819 605L820 606L819 605M462 606L463 607L462 606M817 606L818 607L817 606M464 607L465 608L464 607z"/>
<path style="fill:#ffa409; stroke:none;" d="M815 607L816 608L815 607z"/>
<path style="fill:#675a42; stroke:none;" d="M816 607L817 608L816 607M466 608L467 609L466 608M814 608L815 609L814 608M467 609L468 610L467 609M812 609L813 610L812 609M893 609L894 610L893 609M469 610L470 611L469 610z"/>
<path style="fill:#ffa409; stroke:none;" d="M810 610L811 611L810 610z"/>
<path style="fill:#675a42; stroke:none;" d="M811 610L812 611L811 610M892 610L893 611L892 610M471 611L472 612L471 611M809 611L810 612L809 611M472 612L473 613L472 612z"/>
<path style="fill:#ffa409; stroke:none;" d="M473 612L474 613L473 612z"/>
<path style="fill:#675a42; stroke:none;" d="M807 612L808 613L807 612M452 613L453 614L452 613M474 613L475 614L474 613M805 613L806 614L805 613M476 614L477 615L476 614z"/>
<path style="fill:#ffa409; stroke:none;" d="M803 614L804 615L803 614z"/>
<path style="fill:#675a42; stroke:none;" d="M804 614L805 615L804 614M478 615L479 616L478 615M802 615L803 616L802 615M480 616L481 617L480 616M800 616L801 617L800 616M481 617L482 618L481 617z"/>
<path style="fill:#ffa409; stroke:none;" d="M482 617L483 618L482 617z"/>
<path style="fill:#675a42; stroke:none;" d="M798 617L799 618L798 617M821 617L822 618L821 617M483 618L484 619L483 618z"/>
<path style="fill:#ffa409; stroke:none;" d="M484 618L485 619L484 618z"/>
<path style="fill:#675a42; stroke:none;" d="M796 618L797 619L796 618M485 619L486 620L485 619z"/>
<path style="fill:#ffa409; stroke:none;" d="M794 619L795 620L794 619z"/>
<path style="fill:#675a42; stroke:none;" d="M795 619L796 620L795 619M487 620L488 621L487 620z"/>
<path style="fill:#ffa409; stroke:none;" d="M792 620L793 621L792 620z"/>
<path style="fill:#675a42; stroke:none;" d="M793 620L794 621L793 620M816 620L817 621L816 620M489 621L490 622L489 621z"/>
<path style="fill:#ffa409; stroke:none;" d="M790 621L791 622L790 621z"/>
<path style="fill:#675a42; stroke:none;" d="M791 621L792 622L791 621M881 621L882 622L881 621M491 622L492 623L491 622z"/>
<path style="fill:#ffa409; stroke:none;" d="M788 622L789 623L788 622z"/>
<path style="fill:#675a42; stroke:none;" d="M789 622L790 623L789 622M880 622L881 623L880 622M493 623L494 624L493 623z"/>
<path style="fill:#ffa409; stroke:none;" d="M786 623L787 624L786 623z"/>
<path style="fill:#675a42; stroke:none;" d="M787 623L788 624L787 623M879 623L880 624L879 623M495 624L496 625L495 624z"/>
<path style="fill:#ffa409; stroke:none;" d="M784 624L785 625L784 624z"/>
<path style="fill:#675a42; stroke:none;" d="M785 624L786 625L785 624M809 624L810 625L809 624M497 625L498 626L497 625M783 625L784 626L783 625M499 626L500 627L499 626z"/>
<path style="fill:#ffa409; stroke:none;" d="M780 626L781 627L780 626z"/>
<path style="fill:#675a42; stroke:none;" d="M781 626L782 627L781 626M405 627L406 628L405 627M476 627L477 628L476 627M501 627L502 628L501 627z"/>
<path style="fill:#ffa409; stroke:none;" d="M778 627L779 628L778 627z"/>
<path style="fill:#675a42; stroke:none;" d="M779 627L780 628L779 627M503 628L504 629L503 628z"/>
<path style="fill:#ffa409; stroke:none;" d="M776 628L777 629L776 628z"/>
<path style="fill:#675a42; stroke:none;" d="M777 628L778 629L777 628M505 629L506 630L505 629z"/>
<path style="fill:#ffa409; stroke:none;" d="M774 629L775 630L774 629z"/>
<path style="fill:#675a42; stroke:none;" d="M775 629L776 630L775 629M507 630L508 631L507 630M772.667 630.333L773.333 630.667L772.667 630.333M798 630L799 631L798 630M509 631L510 632L509 631z"/>
<path style="fill:#ffa409; stroke:none;" d="M510 631L511 632L510 631z"/>
<path style="fill:#675a42; stroke:none;" d="M770 631L771 632L770 631M511 632L512 633L511 632z"/>
<path style="fill:#ffa409; stroke:none;" d="M512 632L513 633L512 632z"/>
<path style="fill:#675a42; stroke:none;" d="M768 632L769 633L768 632M513.667 633.333L514.333 633.667L513.667 633.333M766 633L767 634L766 633M868 633L869 634L868 633M516 634L517 635L516 634z"/>
<path style="fill:#ffa409; stroke:none;" d="M763 634L764 635L763 634z"/>
<path style="fill:#675a42; stroke:none;" d="M764 634L765 635L764 634M518 635L519 636L518 635z"/>
<path style="fill:#ffa409; stroke:none;" d="M519 635L520 636L519 635z"/>
<path style="fill:#675a42; stroke:none;" d="M761.667 635.333L762.333 635.667L761.667 635.333M520 636L521 637L520 636z"/>
<path style="fill:#ffa409; stroke:none;" d="M521 636L522 637L521 636z"/>
<path style="fill:#675a42; stroke:none;" d="M759 636L760 637L759 636M523 637L524 638L523 637z"/>
<path style="fill:#ffa409; stroke:none;" d="M756 637L757 638L756 637z"/>
<path style="fill:#675a42; stroke:none;" d="M757 637L758 638L757 637M525 638L526 639L525 638z"/>
<path style="fill:#ffa409; stroke:none;" d="M526 638L527 639L526 638z"/>
<path style="fill:#675a42; stroke:none;" d="M754.667 638.333L755.333 638.667L754.667 638.333M527.667 639.333L528.333 639.667L527.667 639.333M752 639L753 640L752 639M780 639L781 640L780 639M420 640L421 641L420 640M530 640L531 641L530 640z"/>
<path style="fill:#ffa409; stroke:none;" d="M531 640L532 641L531 640M749 640L750 641L749 640z"/>
<path style="fill:#675a42; stroke:none;" d="M750 640L751 641L750 640M778 640L779 641L778 640M532.667 641.333L533.333 641.667L532.667 641.333M747 641L748 642L747 641M506 642L507 643L506 642M535 642L536 643L535 642z"/>
<path style="fill:#ffa409; stroke:none;" d="M744 642L745 643L744 642z"/>
<path style="fill:#675a42; stroke:none;" d="M745 642L746 643L745 642M537.667 643.333L538.333 643.667L537.667 643.333z"/>
<path style="fill:#ffa409; stroke:none;" d="M741 643L742 644L741 643z"/>
<path style="fill:#675a42; stroke:none;" d="M742 643L743 644L742 643M425 644L426 645L425 644M540 644L541 645L540 644z"/>
<path style="fill:#ffa409; stroke:none;" d="M541 644L542 645L541 644z"/>
<path style="fill:#675a42; stroke:none;" d="M739.667 644.333L740.333 644.667L739.667 644.333M543 645L544 646L543 645z"/>
<path style="fill:#ffa409; stroke:none;" d="M736 645L737 646L736 645z"/>
<path style="fill:#675a42; stroke:none;" d="M737 645L738 646L737 645M767 645L768 646L767 645M545.667 646.333L546.333 646.667L545.667 646.333z"/>
<path style="fill:#ffa409; stroke:none;" d="M733 646L734 647L733 646z"/>
<path style="fill:#675a42; stroke:none;" d="M734 646L735 647L734 646M852 646L853 647L852 646M548 647L549 648L548 647z"/>
<path style="fill:#ffa409; stroke:none;" d="M549 647L550 648L549 647z"/>
<path style="fill:#675a42; stroke:none;" d="M731.667 647.333L732.333 647.667L731.667 647.333M551 648L552 649L551 648z"/>
<path style="fill:#ffa409; stroke:none;" d="M552 648L553 649L552 648z"/>
<path style="fill:#675a42; stroke:none;" d="M728.667 648.333L729.333 648.667L728.667 648.333M760 648L761 649L760 648M522 649L523 650L522 649M554 649L555 650L554 649z"/>
<path style="fill:#ffa409; stroke:none;" d="M555 649L556 650L555 649z"/>
<path style="fill:#675a42; stroke:none;" d="M725.667 649.333L726.333 649.667L725.667 649.333M557 650L558 651L557 650z"/>
<path style="fill:#ffa409; stroke:none;" d="M558 650L559 651L558 650z"/>
<path style="fill:#675a42; stroke:none;" d="M722.667 650.333L723.333 650.667L722.667 650.333M560 651L561 652L560 651z"/>
<path style="fill:#ffa409; stroke:none;" d="M561 651L562 652L561 651z"/>
<path style="fill:#675a42; stroke:none;" d="M719.667 651.333L720.333 651.667L719.667 651.333M563 652L564 653L563 652z"/>
<path style="fill:#ffa409; stroke:none;" d="M564 652L565 653L564 652z"/>
<path style="fill:#675a42; stroke:none;" d="M716.667 652.333L717.333 652.667L716.667 652.333M437 653L438 654L437 653M532 653L533 654L532 653M566 653L567 654L566 653z"/>
<path style="fill:#ffa409; stroke:none;" d="M567 653L568 654L567 653z"/>
<path style="fill:#675a42; stroke:none;" d="M713.667 653.333L714.333 653.667L713.667 653.333M569.667 654.333L570.333 654.667L569.667 654.333z"/>
<path style="fill:#ffa409; stroke:none;" d="M571 654L572 655L571 654M709 654L710 655L709 654z"/>
<path style="fill:#675a42; stroke:none;" d="M710 654L711 655L710 654M745 654L746 655L745 654M573 655L574 656L573 655z"/>
<path style="fill:#ffa409; stroke:none;" d="M574 655L575 656L574 655z"/>
<path style="fill:#675a42; stroke:none;" d="M706.667 655.333L707.333 655.667L706.667 655.333M576.667 656.333L577.333 656.667L576.667 656.333z"/>
<path style="fill:#ffa409; stroke:none;" d="M702 656L703 657L702 656z"/>
<path style="fill:#675a42; stroke:none;" d="M703 656L704 657L703 656M580.667 657.333L581.333 657.667L580.667 657.333z"/>
<path style="fill:#ffa409; stroke:none;" d="M698 657L699 658L698 657z"/>
<path style="fill:#675a42; stroke:none;" d="M699.667 657.333L700.333 657.667L699.667 657.333M737 657L738 658L737 657M583 658L583 659L586 659L583 658z"/>
<path style="fill:#ffa409; stroke:none;" d="M694 658L695 659L694 658z"/>
<path style="fill:#675a42; stroke:none;" d="M695.667 658.333L696.333 658.667L695.667 658.333M734 658L735 659L734 658M587 659L587 660L590 660L587 659z"/>
<path style="fill:#ffa409; stroke:none;" d="M690 659L691 660L690 659z"/>
<path style="fill:#675a42; stroke:none;" d="M691.667 659.333L692.333 659.667L691.667 659.333M834 659L835 660L834 659M591 660L591 661L594 661L591 660z"/>
<path style="fill:#ffa409; stroke:none;" d="M594 660L595 661L594 660M686 660L687 661L686 660z"/>
<path style="fill:#675a42; stroke:none;" d="M687.667 660.333L688.333 660.667L687.667 660.333M596.667 661.333L597.333 661.667L596.667 661.333z"/>
<path style="fill:#ffa409; stroke:none;" d="M598 661L599 662L598 661M681 661L682 662L681 661z"/>
<path style="fill:#675a42; stroke:none;" d="M682.667 661.333L683.333 661.667L682.667 661.333M831 661L832 662L831 661M601 662L601 663L604 663L601 662z"/>
<path style="fill:#ffa409; stroke:none;" d="M604 662L605 663L604 662M676 662L677 663L676 662z"/>
<path style="fill:#675a42; stroke:none;" d="M677 662L677 663L680 663L677 662M606 663L606 664L610 664L606 663z"/>
<path style="fill:#ffa409; stroke:none;" d="M670 663L671 664L670 663z"/>
<path style="fill:#675a42; stroke:none;" d="M671 663L671 664L675 664L671 663M719 663L720 664L719 663M564 664L565 665L564 664M612 664L612 665L616 665L612 664z"/>
<path style="fill:#ffa409; stroke:none;" d="M616 664L617 665L616 664M664 664L665 665L664 664z"/>
<path style="fill:#675a42; stroke:none;" d="M665 664L665 665L668 665L665 664M619 665L619 666L624 666L619 665z"/>
<path style="fill:#ffa409; stroke:none;" d="M624.667 665.333L625.333 665.667L624.667 665.333M655 665L656 666L655 665z"/>
<path style="fill:#675a42; stroke:none;" d="M656 665L656 666L661 666L656 665M571 666L572 667L571 666M629 666L629 667L652 667L629 666M705 667L706 668L705 667M693 670L694 671L693 670M689 671L690 672L689 671M605 674L606 675L605 674M472 675L473 676L472 675M618 676L619 677L618 676M628 677L629 678L628 677M651 677L652 678L651 677M804 677L805 678L804 677M786 686L787 687L786 686M498 688L499 689L498 688M777 690L778 691L777 690M505 691L506 692L505 691M510 693L511 694L510 693M754 699L755 700L754 699M751 700L752 701L751 700M538 703L539 704L538 703M735 705L736 706L735 705M552 707L553 708L552 707M560 709L561 710L560 709M715 710L716 711L715 710M580 713L581 714L580 713M593 715L594 716L593 715M602 716L603 717L602 716M678 716L679 717L678 716M613 717L614 718L613 717z"/>
</svg>
