<?xml version="1.0" standalone="yes"?>
<svg xmlns="http://www.w3.org/2000/svg" width="1979" height="2000">
<path style="fill:#ffa208; stroke:none;" d="M0 0L0 13L167 13L167 18L0 18L0 47L150 47L150 48L0 48L0 216L130 216L130 217L0 217L0 257L133 257L133 259L0 259L0 294L137 294L137 295L0 295L0 302L138 302L138 303L0 303L0 337L97 337C111.173 337 129.411 340.017 143 336C135.151 341.947 113.774 338 104 338L0 338L0 474L169 474L169 475L0 475L0 487L125 487L158 487C161.788 487 168.284 485.783 171.567 488.028C174.592 490.096 174.814 495.735 175.627 499C177.945 508.319 180.044 517.683 182.373 527C191.415 563.165 201.2 599.15 211.421 635C220.009 665.122 228.77 695.282 238.667 725C242.441 736.333 252.55 755.151 251.425 767C250.147 780.468 236.989 797.63 231.309 810C216.437 842.388 203.281 875.537 191.053 909C155.182 1007.16 129 1117.06 129 1222L130 1222L130 1208C161.019 1207.74 191.732 1201.25 223 1202.01C313.138 1204.22 403.32 1225.32 482 1270.43C509.751 1286.34 535.939 1305.22 560 1326.28C572.868 1337.55 584.076 1352.19 598 1362C609.277 1322.84 637.979 1283.19 662.127 1251C702.981 1196.53 755.218 1148.63 816 1117.26C926.375 1060.29 1070.02 1054.51 1180 1115.86C1247.58 1153.56 1299.29 1214.86 1332.74 1284C1344.98 1309.28 1351.03 1336.51 1362 1362C1377.91 1351.48 1392.39 1338.47 1408 1327.42C1432.91 1309.8 1459.75 1293.96 1487 1280.25C1567.92 1239.53 1656.89 1217.26 1747 1211.09C1779.28 1208.88 1810.87 1212.98 1843 1213L1843 1221L1844 1221C1843.7 1112.09 1821.26 999.701 1782.58 898C1769.36 863.265 1753.35 830.176 1736.75 797C1730.66 784.818 1716.46 768.574 1714.97 755C1713.75 743.924 1723.45 727.667 1726.58 717C1736.16 684.272 1746.55 651.779 1756 619C1766.6 582.235 1775.35 545.103 1784.63 508C1787.04 498.349 1789.24 488.656 1791.63 479C1792.38 475.933 1792.58 470.977 1795.43 469.028C1798.9 466.66 1805.99 468 1810 468L1845 468L1979 468L1979 453L1798 453L1798 452L1979 452L1979 426L1804 426L1804 425L1979 425L1979 352L1871 352L1817 351L1817 350L1979 350L1979 346L1818 346L1818 345L1872 344L1979 344L1979 290L1826 290L1826 289L1979 289L1979 144L1833 144L1833 143L1979 143L1979 111L1830 111L1830 110L1979 110L1979 83L1867 83C1856.65 83 1833.29 87.28 1825 81C1839.7 85.3461 1859.66 82 1875 82L1979 82L1979 71L1822 71L1822 70L1979 70L1979 61L1819 61L1819 60L1979 60L1979 58L1818 58L1818 57L1979 57L1979 45L1813 45L1813 44L1979 44L1979 29L1806 29L1806 27L1979 27L1979 0L1457 0L1457 168L1456 168L1456 0L1449 0L1449 125L1449 159C1449 163.823 1450.19 170.571 1447.97 175C1441.97 187.011 1426.28 198.133 1417.09 208C1397.83 228.672 1379.34 250.145 1361.42 272C1349.4 286.673 1337.53 301.617 1326.42 317C1321.57 323.718 1315.87 335.889 1308.82 340.303C1304.32 343.117 1295.51 338.169 1291 336.667C1274.89 331.303 1258.47 326.491 1242 322.373C1179.49 306.747 1115.45 294.862 1051 292.039C967.345 288.376 881.401 290.787 799 307.001C768.845 312.934 739.47 320.795 710 329.424C701.424 331.936 684.686 341.831 676.039 340.068C669.688 338.773 663.308 325.909 659.627 321C646.292 303.221 632.357 285.857 617.87 269C598.463 246.419 578.187 224.767 557.911 203C550.101 194.617 536.139 186.222 531.028 176C528.813 171.571 530 164.823 530 160L530 125L530 0L269 0L204 0C198.473 0 185.796 -2.34448 182 2L166 0L132 0L0 0z"/>
<path style="fill:#ffffff; stroke:none;" d="M181.333 0.666626L181.667 1.33337L181.333 0.666626z"/>
<path style="fill:#f40401; stroke:none;" d="M530 0L530 126L530 161C530 165.823 528.813 172.572 531.028 177C536.108 187.156 550.135 195.653 557.911 204C578.187 225.767 598.463 247.419 617.87 270C631.809 286.219 645.296 302.892 658.127 320C662.143 325.355 668.471 338.255 675.09 340.303C682.798 342.688 700.309 332.801 708 330.344C734.903 321.749 762.303 314.539 790 309C875.301 291.942 963.291 288.242 1050 292.039C1113.73 294.83 1177.18 306.419 1239 321.873C1255.8 326.074 1272.56 330.875 1289 336.333C1293.89 337.958 1303.83 343.489 1308.82 340.932C1315.51 337.499 1321.37 325.054 1325.71 319C1337.24 302.9 1349.64 287.265 1362.25 272C1379.98 250.543 1398.12 229.364 1417.09 209C1426.28 199.133 1441.97 188.011 1447.97 176C1450.19 171.571 1449 164.823 1449 160L1449 126L1449 0L530 0z"/>
<path style="fill:#ffffff; stroke:none;" d="M1456 0L1456 168L1457 168L1457 50C1457 35.9618 1461.41 12.8829 1456 0M0 13L0 18L167 18L167 13L0 13M1806 27L1806 29L1979 29L1979 27L1806 27M1813 44L1813 45L1979 45C1966.12 39.594 1943.04 44 1929 44L1813 44M0 47L0 48L150 48C138.306 43.093 117.729 47 105 47L0 47M1818 57L1818 58L1979 58C1966.59 52.7936 1944.51 57 1931 57L1818 57M1819 60L1819 61L1979 61C1966.59 55.7936 1944.51 60 1931 60L1819 60M1822 70L1822 71L1979 71C1966.83 65.8934 1945.25 70 1932 70L1822 70M1825 81L1836 83L1864 83L1979 83L1979 82L1876 82L1825 81M1830 110L1830 111L1979 111C1967.31 106.093 1946.73 110 1934 110L1830 110M1833 143L1833 144L1979 144C1967.54 139.193 1947.47 143 1935 143L1833 143M0 216L0 217L130 217C119.734 212.692 102.158 216 91 216L0 216M0 257L0 259L133 259L133 257L0 257M1826 289L1826 290L1979 290C1967.07 284.993 1945.99 289 1933 289L1826 289M0 294L0 295L137 295C126.258 290.493 107.682 294 96 294L0 294M0 302L0 303L138 303C127.02 298.393 107.944 302 96 302L0 302M142 336C128.411 340.017 110.173 337 96 337L0 337L0 338L109 338L135 338L142 336M1818 345L1818 346L1979 346L1979 344L1870 344C1854.07 344 1833.26 340.489 1818 345M1817 350L1817 351C1832.26 355.511 1853.07 352 1869 352L1979 352L1979 350L1817 350M1804 425L1804 426L1979 426L1962 425L1927 425L1804 425M1798 452L1798 453L1979 453L1961 452L1925 452L1798 452z"/>
<path style="fill:#f40401; stroke:none;" d="M0 487L0 2000L1979 2000L1979 468L1847 468L1811 468C1806.66 468 1799.38 466.611 1795.43 468.603C1792.32 470.172 1792.12 476.006 1791.37 479C1788.72 489.65 1786.29 500.35 1783.63 511C1772.74 554.553 1761.69 597.833 1749.29 641C1741.7 667.422 1733.85 693.864 1725.33 720C1722.16 729.712 1713.64 744.802 1714.58 755C1715.84 768.804 1730.58 785.654 1736.75 798C1753.35 831.176 1769.36 864.265 1782.58 899C1816.77 988.886 1834.54 1082.38 1841.09 1178C1843.37 1211.24 1846.38 1243.76 1841.57 1277C1824.85 1392.48 1748.24 1495.55 1665 1573.09C1548.5 1681.61 1408.9 1763.34 1259 1816.69C1173.59 1847.09 1082.98 1869.06 992 1870C908.14 1870.86 822.435 1847.61 744 1819.69C581.198 1761.75 428.483 1669.9 302 1552.09C226.366 1481.64 148.116 1390.43 130.435 1285C123.887 1245.95 128.924 1204.07 132.831 1165C141.918 1074.11 164.016 985.898 194.692 900C205.566 869.552 217.971 839.235 231.781 810C237.493 797.908 250.741 780.281 251.694 767C252.45 756.458 244.314 741.044 240.999 731C232.689 705.821 224.861 680.453 217.424 655C205.316 613.558 193.844 571.883 183.373 530C180.711 519.35 178.277 508.652 175.627 498C174.882 495.005 174.678 489.172 171.567 487.603C167.833 485.721 161.095 487 157 487L123 487L0 487z"/>
<path style="fill:#ffffff; stroke:none;" d="M0 474L0 475L169 475C156.117 469.594 133.038 474 119 474L0 474M625 656.425C580.62 662.466 543.829 688.505 534.211 734C529.96 754.104 531.826 776.227 548.015 790.816C572.253 812.658 607.804 810.275 638 811.015C658.511 811.517 678.542 812.536 699 809.572C732.056 804.783 744.109 748.007 735.251 721C722.477 682.055 664.991 650.982 625 656.425M1352 656.425C1307 662.551 1268.49 690.109 1260.75 737C1257.65 755.808 1259.29 775.82 1274.09 789.711C1298.36 812.494 1334.28 810.262 1365 811.015C1385.49 811.517 1405.54 812.376 1426 809.711C1458.95 805.419 1471.26 747.658 1462.48 721C1449.65 682.057 1391.98 650.984 1352 656.425z"/>
<path style="fill:#635b4d; stroke:none;" d="M1497 872L1497 873L1509 873L1497 872M1488 873L1488 874L1491 874L1488 873z"/>
<path style="fill:#010101; stroke:none;" d="M1491 873.425C1451.74 878.769 1414.62 897.954 1380 916.219C1332.25 941.417 1282.61 968.576 1240 1001.89C1222.67 1015.43 1205.64 1032.79 1196.31 1053C1187.04 1073.09 1191.72 1085.31 1215 1086.91C1287.17 1091.88 1366.24 1070.09 1432 1041.85C1458.85 1030.32 1487.85 1016.61 1509 995.985C1514.4 990.72 1521.48 985.151 1524.39 978C1527.1 971.34 1525.51 963.96 1526.17 957C1527.99 937.894 1527.91 917.845 1524 899C1522.45 891.53 1520.16 879.607 1513.67 874.742C1508.69 871.01 1496.85 872.629 1491 873.425z"/>
<path style="fill:#635b4d; stroke:none;" d="M1512 873L1513 874L1512 873M1482.67 874.333L1483.33 874.667L1482.67 874.333M477 875L477 876L486 876L477 875M1478 875L1479 876L1478 875z"/>
<path style="fill:#010101; stroke:none;" d="M472.213 877.028C466.012 880.686 463.128 893.466 461.665 900C457.672 917.827 458.782 936.002 458.996 954C459.094 962.232 457.604 973.281 460.938 981C464.327 988.847 473.565 995.27 480 1000.54C541.813 1051.13 630.565 1072.96 708 1084.42C726.962 1087.23 745.853 1088 765 1088C774.957 1088 787.355 1087.43 795.867 1081.52C803.655 1076.11 797.816 1063.79 794.988 1057C785.769 1034.85 766.698 1016.93 748 1002.65C726.341 986.121 702.326 972.595 679 958.6C637.123 933.475 593.471 909.217 548 891.204C530.038 884.088 509.53 876.493 490 876.015C485.096 875.895 476.562 874.462 472.213 877.028z"/>
<path style="fill:#635b4d; stroke:none;" d="M495 876L495 877L498 877L495 876M1474 876L1475 877L1474 876M1515 876L1516 877L1515 876M470 877L471 878L470 877M502.667 877.333L503.333 877.667L502.667 877.333M1470 877L1471 878L1470 877M1516 877L1517 878L1516 877M507.667 878.333L508.333 878.667L507.667 878.333M1466.67 878.333L1467.33 878.667L1466.67 878.333M469 879L470 880L469 879M511.667 879.333L512.333 879.667L511.667 879.333M1463 879L1464 880L1463 879M1517 879L1518 880L1517 879M468.333 880.667L468.667 881.333L468.333 880.667M515.667 880.333L516.333 880.667L515.667 880.333M1460 880L1461 881L1460 880M1518.33 880.667L1518.67 881.333L1518.33 880.667M519 881L520 882L519 881M1457 881L1458 882L1457 881M467.333 882.667L467.667 883.333L467.333 882.667M522.667 882.333L523.333 882.667L522.667 882.333M1454 882L1455 883L1454 882M1519.33 882.667L1519.67 883.333L1519.33 882.667M525.667 883.333L526.333 883.667L525.667 883.333M1451 883L1452 884L1451 883M466.333 884.667L466.667 885.333L466.333 884.667M529 884L530 885L529 884M1448 884L1449 885L1448 884M532 885L533 886L532 885M1446 885L1447 886L1446 885M1520.33 885.667L1520.67 886.333L1520.33 885.667M535 886L536 887L535 886M1443 886L1444 887L1443 886M465 887L466 888L465 887M538 887L539 888L538 887M1441 887L1442 888L1441 887M540 888L541 889L540 888M1438 888L1439 889L1438 888M1521.33 888.667L1521.67 889.333L1521.33 888.667M464.333 889.667L464.667 890.333L464.333 889.667M543 889L544 890L543 889M1435 889L1436 890L1435 889M546 890L547 891L546 890M1433 890L1434 891L1433 890M548 891L549 892L548 891M1431 891L1432 892L1431 891M1522.33 891.667L1522.67 892.333L1522.33 891.667M463.333 892.667L463.667 893.333L463.333 892.667M551 892L552 893L551 892M1428 892L1429 893L1428 892M553 893L554 894L553 893M1426 893L1427 894L1426 893M555.667 894.333L556.333 894.667L555.667 894.333M1423.67 894.333L1424.33 894.667L1423.67 894.333M1523 894L1523 897L1524 897L1523 894M462.333 895.667L462.667 896.333L462.333 895.667M558 895L559 896L558 895M1421 895L1422 896L1421 895M560.667 896.333L561.333 896.667L560.667 896.333M1419 896L1420 897L1419 896M563 897L564 898L563 897M1417 897L1418 898L1417 897M461 898L461 901L462 901L461 898M565 898L566 899L565 898M1415 898L1416 899L1415 898M1524 898L1524 902L1525 902L1524 898M567 899L568 900L567 899M1413 899L1414 900L1413 899M569.667 900.333L570.333 900.667L569.667 900.333M1410.67 900.333L1411.33 900.667L1410.67 900.333M571.667 901.333L572.333 901.667L571.667 901.333M1408.67 901.333L1409.33 901.667L1408.67 901.333M460 902L460 907L461 907L460 902M574 902L575 903L574 902M1406 902L1407 903L1406 902M576 903L577 904L576 903M1404 903L1405 904L1404 903M1525 903L1525 907L1526 907L1525 903M578 904L579 905L578 904M1402 904L1403 905L1402 904M580.667 905.333L581.333 905.667L580.667 905.333M1400 905L1401 906L1400 905M582.667 906.333L583.333 906.667L582.667 906.333M1398 906L1399 907L1398 906M584.667 907.333L585.333 907.667L584.667 907.333M1396 907L1397 908L1396 907M459 908L459 914L460 914L459 908M586.667 908.333L587.333 908.667L586.667 908.333M1394 908L1395 909L1394 908M588.667 909.333L589.333 909.667L588.667 909.333M1392 909L1393 910L1392 909M1526 909L1526 917L1527 917L1526 909M590.667 910.333L591.333 910.667L590.667 910.333M1390 910L1391 911L1390 910M592.667 911.333L593.333 911.667L592.667 911.333M1388 911L1389 912L1388 911M594.667 912.333L595.333 912.667L594.667 912.333M1386 912L1387 913L1386 912M596.667 913.333L597.333 913.667L596.667 913.333M1384 913L1385 914L1384 913M598.667 914.333L599.333 914.667L598.667 914.333M1382.67 914.333L1383.33 914.667L1382.67 914.333M600.667 915.333L601.333 915.667L600.667 915.333M1380.67 915.333L1381.33 915.667L1380.67 915.333M602.667 916.333L603.333 916.667L602.667 916.333M1378.67 916.333L1379.33 916.667L1378.67 916.333M458 917L458 935L459 935L458 917M604.667 917.333L605.333 917.667L604.667 917.333M1376.67 917.333L1377.33 917.667L1376.67 917.333M606.667 918.333L607.333 918.667L606.667 918.333M1375 918L1376 919L1375 918M608.667 919.333L609.333 919.667L608.667 919.333M1373 919L1374 920L1373 919M610 920L611 921L610 920M1371 920L1372 921L1371 920M612 921L613 922L612 921M1369 921L1370 922L1369 921M614 922L615 923L614 922M1367.67 922.333L1368.33 922.667L1367.67 922.333M616 923L617 924L616 923M1365.67 923.333L1366.33 923.667L1365.67 923.333M618 924L619 925L618 924M1364 924L1365 925L1364 924M620 925L621 926L620 925M1362 925L1363 926L1362 925M622 926L623 927L622 926M1360 926L1361 927L1360 926M623.667 927.333L624.333 927.667L623.667 927.333M1358.67 927.333L1359.33 927.667L1358.67 927.333M625 928L626 929L625 928M1357 928L1358 929L1357 928M627 929L628 930L627 929M1355 929L1356 930L1355 929M629 930L630 931L629 930M1353 930L1354 931L1353 930M631 931L632 932L631 931M1351 931L1352 932L1351 931M633 932L634 933L633 932M1350 932L1351 933L1350 932M635 933L636 934L635 933M1348 933L1349 934L1348 933M636 934L637 935L636 934M1346 934L1347 935L1346 934M638 935L639 936L638 935M1344 935L1345 936L1344 935M640 936L641 937L640 936M1343 936L1344 937L1343 936M642 937L643 938L642 937M1341 937L1342 938L1341 937M644 938L645 939L644 938M1339 938L1340 939L1339 938M645 939L646 940L645 939M647 940L648 941L647 940M1336 940L1337 941L1336 940M649 941L650 942L649 941M1334 941L1335 942L1334 941M651 942L652 943L651 942M1331 943L1332 944L1331 943M654 944L655 945L654 944M1329 944L1330 945L1329 944M656 945L657 946L656 945M658 946L659 947L658 946M1326 946L1327 947L1326 946M458 947L458 967L459 967L458 947M1324 947L1325 948L1324 947M661 948L662 949L661 948M1322 948L1323 949L1322 948M663 949L664 950L663 949M665 950L666 951L665 950M1319 950L1320 951L1319 950M1317 951L1318 952L1317 951M668 952L669 953L668 952M670 953L671 954L670 953M1314 953L1315 954L1314 953M1526 954L1526 971L1527 971L1526 954M673 955L674 956L673 955M1311 955L1312 956L1311 955M675 956L676 957L675 956M1309 956L1310 957L1309 956M678 958L679 959L678 958M1306 958L1307 959L1306 958M680 959L681 960L680 959M1304 959L1305 960L1304 959M683 961L684 962L683 961M1301 961L1302 962L1301 961M685 962L686 963L685 962M1299 962L1300 963L1299 962M687 963L688 964L687 963M688 964L689 965L688 964M1296 964L1297 965L1296 964M690 965L691 966L690 965M1294 965L1295 966L1294 965M692 966L693 967L692 966M1293 966L1294 967L1293 966M693 967L694 968L693 967M1291 967L1292 968L1291 967M695 968L696 969L695 968M1288 969L1289 970L1288 969M698 970L699 971L698 970M1286 970L1287 971L1286 970M459 971L459 980L460 980L459 971M700 971L701 972L700 971M1283 972L1284 973L1283 972M703 973L704 974L703 973M705 974L706 975L705 974M1280 974L1281 975L1280 974M1525 974L1525 978L1526 978L1525 974M1278 975L1279 976L1278 975M708 976L709 977L708 976M710 977L711 978L710 977M1275 977L1276 978L1275 977M711 978L712 979L711 978M1524 978L1525 979L1524 978M713 979L714 980L713 979M1272 979L1273 980L1272 979M1270 980L1271 981L1270 980M1523 980L1524 981L1523 980M460 981L461 982L460 981M716 981L717 982L716 981M1269 981L1270 982L1269 981M1522 981L1523 982L1522 981M461 982L462 983L461 982M1267 982L1268 983L1267 982M462 983L463 984L462 983M719 983L720 984L719 983M721 984L722 985L721 984M1264 984L1265 985L1264 984M1520 984L1521 985L1520 984M722 985L723 986L722 985M1519 985L1520 986L1519 985M724 986L725 987L724 986M1261 986L1262 987L1261 986M1518 986L1519 987L1518 986M1517 987L1518 988L1517 987M727 988L728 989L727 988M1258 988L1259 989L1258 988M1516 988L1517 989L1516 988M1515 989L1516 990L1515 989M730 990L731 991L730 990M1255 990L1256 991L1255 990M1514 990L1515 991L1514 990M1513 991L1514 992L1513 991M733 992L734 993L733 992M1252 992L1253 993L1252 992M1512 992L1513 993L1512 992M1511 993L1512 994L1511 993M473 994L474 995L473 994M736 994L737 995L736 994M1249 994L1250 995L1249 994M1510 994L1511 995L1510 994M474 995L475 996L474 995M737 995L738 996L737 995M1248 995L1249 996L1248 995M1509 995L1510 996L1509 995M475 996L476 997L475 996M739 996L740 997L739 996M1508 996L1509 997L1508 996M476 997L477 998L476 997M740 997L741 998L740 997M1245 997L1246 998L1245 997M1507 997L1508 998L1507 997M742 998L743 999L742 998M1244 998L1245 999L1244 998M743 999L744 1000L743 999M1243 999L1244 1000L1243 999M481 1001L482 1002L481 1001M746 1001L747 1002L746 1001M1240 1001L1241 1002L1240 1001M1502 1001L1503 1002L1502 1001M482 1002L483 1003L482 1002M747 1002L748 1003L747 1002M1239 1002L1240 1003L1239 1002M1501 1002L1502 1003L1501 1002M485 1004L486 1005L485 1004M750 1004L751 1005L750 1004M486 1005L487 1006L486 1005M751 1005L752 1006L751 1005M1497 1005L1498 1006L1497 1005M752 1006L753 1007L752 1006M1234 1006L1235 1007L1234 1006M1496 1006L1497 1007L1496 1006M489 1007L490 1008L489 1007M754 1007L755 1008L754 1007M1233 1007L1234 1008L1233 1007M490 1008L491 1009L490 1008M755 1008L756 1009L755 1008M1232 1008L1233 1009L1232 1008M1493 1008L1494 1009L1493 1008M756 1009L757 1010L756 1009M1231 1009L1232 1010L1231 1009M493 1010L494 1011L493 1010M757 1010L758 1011L757 1010M1490 1010L1491 1011L1490 1010M496 1012L497 1013L496 1012M1487 1012L1488 1013L1487 1012M761 1013L762 1014L761 1013M1486 1013L1487 1014L1486 1013M499 1014L500 1015L499 1014M762 1014L763 1015L762 1014M1484 1014L1485 1015L1484 1014M763 1015L764 1016L763 1015M1224 1015L1225 1016L1224 1015M502 1016L503 1017L502 1016M764 1016L765 1017L764 1016M1223 1016L1224 1017L1223 1016M1481 1016L1482 1017L1481 1016M504 1017L505 1018L504 1017M765 1017L766 1018L765 1017M1222 1017L1223 1018L1222 1017M1479 1017L1480 1018L1479 1017M505 1018L506 1019L505 1018M766 1018L767 1019L766 1018M1221 1018L1222 1019L1221 1018M1478 1018L1479 1019L1478 1018M507 1019L508 1020L507 1019M767 1019L768 1020L767 1019M1476 1019L1477 1020L1476 1019M509 1020L510 1021L509 1020M768 1020L769 1021L768 1020M1474 1020L1475 1021L1474 1020M769 1021L770 1022L769 1021M512 1022L513 1023L512 1022M770 1022L771 1023L770 1022M1471 1022L1472 1023L1471 1022M514 1023L515 1024L514 1023M771 1023L772 1024L771 1023M1469 1023L1470 1024L1469 1023M516 1024L517 1025L516 1024M772 1024L773 1025L772 1024M1467 1024L1468 1025L1467 1024M518 1025L519 1026L518 1025M773 1025L774 1026L773 1025M1465 1025L1466 1026L1465 1025M774 1026L775 1027L774 1026M1214 1026L1215 1027L1214 1026M1464 1026L1465 1027L1464 1026M521 1027L522 1028L521 1027M775 1027L776 1028L775 1027M1213 1027L1214 1028L1213 1027M1462 1027L1463 1028L1462 1027M523 1028L524 1029L523 1028M1212 1028L1213 1029L1212 1028M1460 1028L1461 1029L1460 1028M525 1029L526 1030L525 1029M1458 1029L1459 1030L1458 1029M527 1030L528 1031L527 1030M1456 1030L1457 1031L1456 1030M529 1031L530 1032L529 1031M778 1031L779 1032L778 1031M1454 1031L1455 1032L1454 1031M531 1032L532 1033L531 1032M779 1032L780 1033L779 1032M1209 1032L1210 1033L1209 1032M1452 1032L1453 1033L1452 1032M533 1033L534 1034L533 1033M780 1033L781 1034L780 1033M1208 1033L1209 1034L1208 1033M1450 1033L1451 1034L1450 1033M535 1034L536 1035L535 1034M1448 1034L1449 1035L1448 1034M537 1035L538 1036L537 1035M1446 1035L1447 1036L1446 1035M540 1036L541 1037L540 1036M782 1036L783 1037L782 1036M1206 1036L1207 1037L1206 1036M542 1037L543 1038L542 1037M783 1037L784 1038L783 1037M1205 1037L1206 1038L1205 1037M1441 1037L1442 1038L1441 1037M544 1038L545 1039L544 1038M1439 1038L1440 1039L1439 1038M546 1039L547 1040L546 1039M1437 1039L1438 1040L1437 1039M785 1040L786 1041L785 1040M1203 1040L1204 1041L1203 1040M1435 1040L1436 1041L1435 1040M551 1041L552 1042L551 1041M1432 1041L1433 1042L1432 1041M553 1042L554 1043L553 1042M1430 1042L1431 1043L1430 1042M787 1043L788 1044L787 1043M1201 1043L1202 1044L1201 1043M1428 1043L1429 1044L1428 1043M558 1044L559 1045L558 1044M788 1044L789 1045L788 1044M1425 1044L1426 1045L1425 1044M560 1045L561 1046L560 1045M1200 1045L1201 1046L1200 1045M1423 1045L1424 1046L1423 1045M563 1046L564 1047L563 1046M789 1046L790 1047L789 1046M1420 1046L1421 1047L1420 1046M1418 1047L1419 1048L1418 1047M568 1048L569 1049L568 1048M790 1048L791 1049L790 1048M1198 1048L1199 1049L1198 1048M1415 1048L1416 1049L1415 1048M571 1049L572 1050L571 1049M791 1049L792 1050L791 1049M1413 1049L1414 1050L1413 1049M573 1050L574 1051L573 1050M1197 1050L1198 1051L1197 1050M1410 1050L1411 1051L1410 1050M576 1051L577 1052L576 1051M792 1051L793 1052L792 1051M1407 1051L1408 1052L1407 1051M579 1052L580 1053L579 1052M1196 1052L1197 1053L1196 1052M1405 1052L1406 1053L1405 1052M582 1053L583 1054L582 1053M793 1053L794 1054L793 1053M1402 1053L1403 1054L1402 1053M584 1054L585 1055L584 1054M1195 1054L1196 1055L1195 1054M1399 1054L1400 1055L1399 1054M587 1055L588 1056L587 1055M794 1055L795 1056L794 1055M1396 1055L1397 1056L1396 1055M590 1056L591 1057L590 1056M1393 1056L1394 1057L1393 1056M593 1057L594 1058L593 1057M795.333 1057.67L795.667 1058.33L795.333 1057.67M1194 1057L1195 1058L1194 1057M1390.67 1057.33L1391.33 1057.67L1390.67 1057.33M596 1058L597 1059L596 1058M1387.67 1058.33L1388.33 1058.67L1387.67 1058.33M599 1059L600 1060L599 1059M1193 1059L1194 1060L1193 1059M1384.67 1059.33L1385.33 1059.67L1384.67 1059.33M602 1060L603 1061L602 1060M796 1060L797 1061L796 1060M1381.67 1060.33L1382.33 1060.67L1381.67 1060.33M605.667 1061.33L606.333 1061.67L605.667 1061.33M1378 1061L1379 1062L1378 1061M608.667 1062.33L609.333 1062.67L608.667 1062.33M797.333 1062.67L797.667 1063.33L797.333 1062.67M1192 1062L1193 1063L1192 1062M1375 1062L1376 1063L1375 1062M612 1063L613 1064L612 1063M1372 1063L1373 1064L1372 1063M615 1064L616 1065L615 1064M1368.67 1064.33L1369.33 1064.67L1368.67 1064.33M618.667 1065.33L619.333 1065.67L618.667 1065.33M798.333 1065.67L798.667 1066.33L798.333 1065.67M1191.33 1065.67L1191.67 1066.33L1191.33 1065.67M1365 1065L1366 1066L1365 1065M622.667 1066.33L623.333 1066.67L622.667 1066.33M1361.67 1066.33L1362.33 1066.67L1361.67 1066.33M625.667 1067.33L626.333 1067.67L625.667 1067.33M1358 1067L1359 1068L1358 1067M629.667 1068.33L630.333 1068.67L629.667 1068.33M1353 1068L1353 1069L1356 1069L1353 1068M633 1069L633 1070L636 1070L633 1069M799 1069L799 1072L800 1072L799 1069M1190 1069L1190 1072L1191 1072L1190 1069M1350.67 1069.33L1351.33 1069.67L1350.67 1069.33M637.667 1070.33L638.333 1070.67L637.667 1070.33M1346 1070L1346 1071L1349 1071L1346 1070M640 1071L640 1072L643 1072L640 1071M1342 1071L1342 1072L1345 1072L1342 1071M644 1072L644 1073L647 1073L644 1072M1337 1072L1337 1073L1341 1073L1337 1072M649 1073L649 1074L652 1074L649 1073z"/>
<path style="fill:#ffffff; stroke:none;" d="M598 1362C570.246 1334.25 541.748 1308.35 509 1286.52C435.915 1237.79 350.872 1212.44 264 1204.17C235.984 1201.5 207.078 1201.17 179 1203.09C162.735 1204.2 146.269 1207.66 130 1208C130 1243.94 127.507 1277.76 137.152 1313C152.005 1367.26 182.264 1415.96 216.576 1460C277.375 1538.04 354.235 1603.19 435 1659.72C517.682 1717.6 607.339 1765.95 701 1803.45C789.186 1838.75 882.747 1864.79 978 1868.96C1038.13 1871.59 1099.68 1860.71 1158 1846.88C1305.24 1811.99 1448.41 1742.51 1570 1652.88C1691.21 1563.54 1811.83 1439.83 1839.58 1286C1843.97 1261.64 1843.2 1237.51 1843 1213C1805.44 1212.9 1768.7 1208.58 1731 1212.17C1632.13 1221.58 1537.13 1249.59 1451 1299.58C1420.06 1317.53 1388.4 1337.7 1362 1362C1334.33 1275.45 1292.78 1197 1219 1140.65C1121.64 1066.3 980.775 1054.2 867 1094.69C799.991 1118.54 740.312 1160.24 692.831 1213C664.911 1244.02 641.289 1277.79 620.579 1314C612.558 1328.02 600.851 1346.01 598 1362z"/>
<path style="fill:#635b4d; stroke:none;" d="M1333 1073L1333 1074L1336 1074L1333 1073M653 1074L653 1075L656 1075L653 1074M1329 1074L1329 1075L1332 1075L1329 1074M657 1075L657 1076L660 1076L657 1075M1190.33 1075.67L1190.67 1076.33L1190.33 1075.67M1324 1075L1324 1076L1328 1076L1324 1075M661 1076L661 1077L665 1077L661 1076M1320 1076L1320 1077L1323 1077L1320 1076M666 1077L666 1078L669 1078L666 1077M799.333 1077.67L799.667 1078.33L799.333 1077.67M1315 1077L1315 1078L1319 1078L1315 1077M671 1078L671 1079L674 1079L671 1078M1191 1078L1192 1079L1191 1078M1310 1078L1310 1079L1314 1079L1310 1078M676 1079L676 1080L679 1080L676 1079M1192 1079L1193 1080L1192 1079M1305 1079L1305 1080L1309 1080L1305 1079M680 1080L680 1081L685 1081L680 1080M797 1080L798 1081L797 1080M1193 1080L1194 1081L1193 1080M1300 1080L1300 1081L1304 1081L1300 1080M686 1081L686 1082L690 1082L686 1081M796 1081L797 1082L796 1081M1194 1081L1195 1082L1194 1081M1294 1081L1294 1082L1298 1082L1294 1081M691 1082L691 1083L696 1083L691 1082M794.667 1082.33L795.333 1082.67L794.667 1082.33M1196 1082L1197 1083L1196 1082M1288 1082L1288 1083L1293 1083L1288 1082M697 1083L697 1084L702 1084L697 1083M792.667 1083.33L793.333 1083.67L792.667 1083.33M1197.67 1083.33L1198.33 1083.67L1197.67 1083.33M1281 1083L1281 1084L1286 1084L1281 1083M703 1084L703 1085L709 1085L703 1084M789.667 1084.33L790.333 1084.67L789.667 1084.33M1200.67 1084.33L1201.33 1084.67L1200.67 1084.33M1273 1084L1273 1085L1279 1085L1273 1084M710 1085L710 1086L716 1086L710 1085M786 1085L786 1086L789 1086L786 1085M1202 1085L1202 1086L1206 1086L1202 1085M1264 1085L1264 1086L1271 1086L1264 1085M717 1086L717 1087L725 1087L717 1086M782 1086L782 1087L786 1087L782 1086M1207 1086L1207 1087L1212 1087L1207 1086M1253 1086L1253 1087L1262 1087L1253 1086M728 1087L728 1088L740 1088L728 1087M776 1087L776 1088L781 1088L776 1087M1214 1087L1214 1088L1250 1088C1240.44 1083.99 1224.39 1087 1214 1087M745 1088L745 1089L774 1089L745 1088z"/>
<path style="fill:#ffa208; stroke:none;" d="M928 1218L928 1219L931 1219L928 1218z"/>
<path style="fill:#635b4d; stroke:none;" d="M931 1218L931 1219L1094 1219C1081.35 1213.69 1058.78 1218 1045 1218L931 1218z"/>
<path style="fill:#ffa208; stroke:none;" d="M917 1219L918 1220L917 1219z"/>
<path style="fill:#635b4d; stroke:none;" d="M918.667 1219.33L919.333 1219.67L918.667 1219.33z"/>
<path style="fill:#010101; stroke:none;" d="M787 1507C787.149 1519.66 800.586 1522.04 806.012 1532C811.857 1542.73 805.701 1561.88 813.988 1571.4C818.335 1576.39 828.362 1568.14 832.86 1574.32C837.572 1580.79 838.443 1593.33 841 1601C846.145 1616.44 853.438 1630.63 861 1645C872.049 1639.35 873 1626.83 873 1616C873 1590.99 872 1566.05 872 1541C890.653 1541.8 909.406 1545.97 928 1547.83C963.131 1551.34 998.647 1552.85 1034 1551.99C1075.29 1550.97 1115.94 1541.76 1157 1540L1157 1598L1157.65 1626L1168 1644L1170 1644L1188.99 1598L1198.82 1575.32L1218.27 1571.4L1223.63 1554L1235 1508C1213.89 1508 1189.85 1504.75 1169.04 1508.15C1163.25 1509.09 1162.46 1516.23 1156.96 1517.68C1148.37 1519.95 1136.88 1518 1128 1518C1110.65 1518 1091.13 1520.53 1074 1517.85C1063.15 1516.16 1059.62 1498.23 1052.24 1491.56C1048.56 1488.24 1042.59 1489 1038 1489C1036.77 1473.36 1037 1457.72 1037 1442C1037 1437.13 1035.37 1428.55 1038.03 1424.27C1040.27 1420.66 1046.3 1419.63 1050 1418.19C1058.31 1414.96 1066.4 1410.84 1074 1406.19C1101.34 1389.44 1127.6 1363.12 1132.73 1330C1134.93 1315.75 1134.93 1301.34 1135.91 1287C1136.56 1277.56 1136.05 1267.27 1134.19 1258C1130.5 1239.53 1112.65 1224.62 1095 1219.64C1085.17 1216.86 1072.18 1219 1062 1219L994 1219C963.55 1219 913.586 1208.68 892.529 1236C881.789 1249.93 883 1267.44 883 1284C883 1298.12 881.921 1315.37 885.746 1329C893.479 1356.55 917.68 1378.18 941 1392.95C954.417 1401.45 968.499 1408.45 983 1414.86C987.951 1417.05 998.074 1419.41 1000.97 1424.22C1003.25 1428.01 1002 1434.75 1002 1439C1002 1450.38 1003 1461.61 1003 1473C1003 1476.62 1004.08 1482.52 1001.97 1485.68C998.628 1490.69 990.679 1486.34 986.59 1492.06C981.813 1498.74 975.482 1515.17 967.815 1518.4C961.065 1521.24 951.095 1518.01 944 1518C923.759 1517.97 902.053 1519.21 882 1516.58C877.69 1516.01 870.999 1517.25 867.228 1514.97C864.005 1513.03 864.107 1508.85 859.942 1508.15C836.878 1504.24 810.42 1507 787 1507z"/>
<path style="fill:#635b4d; stroke:none;" d="M1095 1219L1096 1220L1095 1219M914 1220L915 1221L914 1220M1097 1220L1098 1221L1097 1220M911 1221L912 1222L911 1221M1099 1221L1100 1222L1099 1221M909 1222L910 1223L909 1222M1101 1222L1102 1223L1101 1222z"/>
<path style="fill:#ffa208; stroke:none;" d="M1102 1222L1103 1223L1102 1222z"/>
<path style="fill:#635b4d; stroke:none;" d="M907 1223L908 1224L907 1223z"/>
<path style="fill:#ffa208; stroke:none;" d="M1104 1223L1105 1224L1104 1223M1844 1223L1844 1239L1845 1239L1844 1223z"/>
<path style="fill:#635b4d; stroke:none;" d="M905 1224L906 1225L905 1224M1105 1224L1106 1225L1105 1224z"/>
<path style="fill:#ffa208; stroke:none;" d="M1106 1224L1107 1225L1106 1224z"/>
<path style="fill:#635b4d; stroke:none;" d="M903 1225L904 1226L903 1225M1107 1225L1108 1226L1107 1225z"/>
<path style="fill:#ffa208; stroke:none;" d="M128 1226L128 1268L129 1268C129 1256.04 132.611 1236.99 128 1226z"/>
<path style="fill:#635b4d; stroke:none;" d="M902 1226L903 1227L902 1226M1109 1226L1110 1227L1109 1226z"/>
<path style="fill:#ffa208; stroke:none;" d="M900 1227L901 1228L900 1227z"/>
<path style="fill:#635b4d; stroke:none;" d="M1111 1227L1112 1228L1111 1227M899 1228L900 1229L899 1228z"/>
<path style="fill:#ffa208; stroke:none;" d="M1113 1228L1114 1229L1113 1228z"/>
<path style="fill:#635b4d; stroke:none;" d="M898 1229L899 1230L898 1229M1114 1229L1115 1230L1114 1229M897 1230L898 1231L897 1230M896 1231L897 1232L896 1231z"/>
<path style="fill:#ffa208; stroke:none;" d="M1117 1231L1118 1232L1117 1231z"/>
<path style="fill:#635b4d; stroke:none;" d="M895 1232L896 1233L895 1232M1118 1232L1119 1233L1118 1232M894 1233L895 1234L894 1233M1119 1233L1120 1234L1119 1233M893 1234L894 1235L893 1234M1120 1234L1121 1235L1120 1234M892 1235L893 1236L892 1235M1121 1235L1122 1236L1121 1235M1122 1236L1123 1237L1122 1236M891 1237L892 1238L891 1237M1123 1237L1124 1238L1123 1237M890 1238L891 1239L890 1238z"/>
<path style="fill:#ffa208; stroke:none;" d="M1124 1238L1125 1239L1124 1238z"/>
<path style="fill:#635b4d; stroke:none;" d="M889 1240L890 1241L889 1240z"/>
<path style="fill:#ffa208; stroke:none;" d="M888 1241L889 1242L888 1241z"/>
<path style="fill:#635b4d; stroke:none;" d="M1126 1241L1127 1242L1126 1241M888 1242L889 1243L888 1242z"/>
<path style="fill:#ffa208; stroke:none;" d="M1127 1242L1128 1243L1127 1242M887 1243L888 1244L887 1243M1843 1243L1843 1257L1844 1257L1843 1243z"/>
<path style="fill:#635b4d; stroke:none;" d="M887 1244L888 1245L887 1244M1128 1244L1129 1245L1128 1244z"/>
<path style="fill:#ffa208; stroke:none;" d="M886 1245L887 1246L886 1245z"/>
<path style="fill:#635b4d; stroke:none;" d="M1129 1245L1130 1246L1129 1245M886 1246L887 1247L886 1246M1130 1247L1131 1248L1130 1247z"/>
<path style="fill:#ffa208; stroke:none;" d="M885 1248L886 1249L885 1248z"/>
<path style="fill:#635b4d; stroke:none;" d="M885 1249L886 1250L885 1249M1131 1249L1132 1250L1131 1249z"/>
<path style="fill:#ffa208; stroke:none;" d="M884 1251L885 1252L884 1251z"/>
<path style="fill:#635b4d; stroke:none;" d="M1132 1251L1133 1252L1132 1251M884.333 1252.67L884.667 1253.33L884.333 1252.67M1133 1254L1134 1255L1133 1254z"/>
<path style="fill:#ffa208; stroke:none;" d="M883.333 1255.67L883.667 1256.33L883.333 1255.67z"/>
<path style="fill:#635b4d; stroke:none;" d="M883 1257L883 1260L884 1260L883 1257M1134 1257L1134 1260L1135 1260L1134 1257z"/>
<path style="fill:#ffa208; stroke:none;" d="M1842 1261L1842 1269L1843 1269L1842 1261z"/>
<path style="fill:#635b4d; stroke:none;" d="M1135 1263L1135 1270L1136 1270L1135 1263z"/>
<path style="fill:#ffa208; stroke:none;" d="M129 1270L129 1279L130 1279L129 1270M882 1271L882 1277L883 1277L882 1271M1841 1272L1841 1278L1842 1278L1841 1272M130 1280L130 1286L131 1286L130 1280M1840 1280L1840 1284L1841 1284L1840 1280M1839 1286L1839 1289L1840 1289L1839 1286M131 1287L131 1291L132 1291L131 1287z"/>
<path style="fill:#635b4d; stroke:none;" d="M1135 1290L1135 1305L1136 1305L1135 1290z"/>
<path style="fill:#ffa208; stroke:none;" d="M1838 1291L1838 1294L1839 1294L1838 1291M132 1293L132 1297L133 1297L132 1293M1837 1296L1837 1299L1838 1299L1837 1296z"/>
<path style="fill:#635b4d; stroke:none;" d="M883 1297L883 1313L884 1313L883 1297z"/>
<path style="fill:#ffa208; stroke:none;" d="M133 1298L133 1301L134 1301L133 1298M1836.33 1301.67L1836.67 1302.33L1836.33 1301.67M134 1302L134 1305L135 1305L134 1302M1135.33 1305.67L1135.67 1306.33L1135.33 1305.67M1835.33 1305.67L1835.67 1306.33L1835.33 1305.67M135 1306L135 1309L136 1309L135 1306M1834.33 1309.67L1834.67 1310.33L1834.33 1309.67M136.333 1310.67L136.667 1311.33L136.333 1310.67M883 1313L883 1321L884 1321L883 1313z"/>
<path style="fill:#635b4d; stroke:none;" d="M1134 1313L1134 1319L1135 1319L1134 1313z"/>
<path style="fill:#ffa208; stroke:none;" d="M1833.33 1313.67L1833.67 1314.33L1833.33 1313.67M137.333 1314.67L137.667 1315.33L137.333 1314.67M138.333 1317.67L138.667 1318.33L138.333 1317.67M1832.33 1317.67L1832.67 1318.33L1832.33 1317.67M1134 1319L1135 1320L1134 1319M139.333 1320.67L139.667 1321.33L139.333 1320.67M1831 1321L1832 1322L1831 1321z"/>
<path style="fill:#635b4d; stroke:none;" d="M884 1323L884 1326L885 1326L884 1323z"/>
<path style="fill:#ffa208; stroke:none;" d="M140.333 1324.67L140.667 1325.33L140.333 1324.67z"/>
<path style="fill:#635b4d; stroke:none;" d="M1133 1324L1133 1327L1134 1327L1133 1324z"/>
<path style="fill:#ffa208; stroke:none;" d="M1830.33 1324.67L1830.67 1325.33L1830.33 1324.67M884 1326L885 1327L884 1326M141 1327L142 1328L141 1327M1133 1327L1134 1328L1133 1327z"/>
<path style="fill:#635b4d; stroke:none;" d="M885.333 1328.67L885.667 1329.33L885.333 1328.67z"/>
<path style="fill:#ffa208; stroke:none;" d="M1829 1328L1830 1329L1829 1328M142 1330L143 1331L142 1330M885 1330L886 1331L885 1330z"/>
<path style="fill:#635b4d; stroke:none;" d="M886 1331L887 1332L886 1331M1132.33 1331.67L1132.67 1332.33L1132.33 1331.67z"/>
<path style="fill:#ffa208; stroke:none;" d="M1828 1331L1829 1332L1828 1331M886 1332L887 1333L886 1332M143 1333L144 1334L143 1333z"/>
<path style="fill:#635b4d; stroke:none;" d="M887 1334L888 1335L887 1334z"/>
<path style="fill:#ffa208; stroke:none;" d="M1827 1334L1828 1335L1827 1334M887 1335L888 1336L887 1335M144 1336L145 1337L144 1336z"/>
<path style="fill:#635b4d; stroke:none;" d="M888 1336L889 1337L888 1336M1131 1336L1132 1337L1131 1336z"/>
<path style="fill:#ffa208; stroke:none;" d="M888 1337L889 1338L888 1337M1826 1337L1827 1338L1826 1337M145 1338L146 1339L145 1338z"/>
<path style="fill:#635b4d; stroke:none;" d="M889 1338L890 1339L889 1338z"/>
<path style="fill:#ffa208; stroke:none;" d="M889 1339L890 1340L889 1339z"/>
<path style="fill:#635b4d; stroke:none;" d="M1130 1339L1131 1340L1130 1339M890 1340L891 1341L890 1340z"/>
<path style="fill:#ffa208; stroke:none;" d="M1825 1340L1826 1341L1825 1340M146 1341L147 1342L146 1341M890 1341L891 1342L890 1341z"/>
<path style="fill:#635b4d; stroke:none;" d="M1129 1342L1130 1343L1129 1342M891 1343L892 1344L891 1343z"/>
<path style="fill:#ffa208; stroke:none;" d="M1824 1343L1825 1344L1824 1343M147 1344L148 1345L147 1344z"/>
<path style="fill:#635b4d; stroke:none;" d="M892 1344L893 1345L892 1344M1128 1344L1129 1345L1128 1344z"/>
<path style="fill:#ffa208; stroke:none;" d="M892 1345L893 1346L892 1345M1128 1345L1129 1346L1128 1345M148 1346L149 1347L148 1346z"/>
<path style="fill:#635b4d; stroke:none;" d="M893 1346L894 1347L893 1346z"/>
<path style="fill:#ffa208; stroke:none;" d="M1823 1346L1824 1347L1823 1346M893 1347L894 1348L893 1347z"/>
<path style="fill:#635b4d; stroke:none;" d="M1127 1347L1128 1348L1127 1347M894 1348L895 1349L894 1348M895 1349L896 1350L895 1349M1126 1349L1127 1350L1126 1349z"/>
<path style="fill:#ffa208; stroke:none;" d="M1822 1349L1823 1350L1822 1349M895 1350L896 1351L895 1350M150 1351L151 1352L150 1351z"/>
<path style="fill:#635b4d; stroke:none;" d="M896 1351L897 1352L896 1351M1125 1351L1126 1352L1125 1351M897 1352L898 1353L897 1352z"/>
<path style="fill:#ffa208; stroke:none;" d="M151 1353L152 1354L151 1353M897 1353L898 1354L897 1353z"/>
<path style="fill:#635b4d; stroke:none;" d="M1124 1353L1125 1354L1124 1353M898 1354L899 1355L898 1354z"/>
<path style="fill:#ffa208; stroke:none;" d="M1820 1354L1821 1355L1820 1354z"/>
<path style="fill:#635b4d; stroke:none;" d="M899 1355L900 1356L899 1355M1123 1355L1124 1356L1123 1355z"/>
<path style="fill:#ffa208; stroke:none;" d="M900 1357L901 1358L900 1357z"/>
<path style="fill:#635b4d; stroke:none;" d="M1122 1357L1123 1358L1122 1357z"/>
<path style="fill:#ffa208; stroke:none;" d="M1819 1357L1820 1358L1819 1357M153 1358L154 1359L153 1358z"/>
<path style="fill:#635b4d; stroke:none;" d="M901 1358L902 1359L901 1358M902 1359L903 1360L902 1359M1121 1359L1122 1360L1121 1359z"/>
<path style="fill:#ffa208; stroke:none;" d="M154 1360L155 1361L154 1360z"/>
<path style="fill:#635b4d; stroke:none;" d="M903 1360L904 1361L903 1360M1120 1361L1121 1362L1120 1361z"/>
<path style="fill:#ffa208; stroke:none;" d="M155 1362L156 1363L155 1362M904 1362L905 1363L904 1362M1817 1362L1818 1363L1817 1362z"/>
<path style="fill:#635b4d; stroke:none;" d="M905 1363L906 1364L905 1363z"/>
<path style="fill:#ffa208; stroke:none;" d="M1119 1363L1120 1364L1119 1363M156 1364L157 1365L156 1364z"/>
<path style="fill:#635b4d; stroke:none;" d="M906 1364L907 1365L906 1364M1118 1364L1119 1365L1118 1364M907 1365L908 1366L907 1365M908 1366L909 1367L908 1366M1117 1366L1118 1367L1117 1366M909 1367L910 1368L909 1367M1116 1367L1117 1368L1116 1367z"/>
<path style="fill:#ffa208; stroke:none;" d="M1815 1367L1816 1368L1815 1367z"/>
<path style="fill:#635b4d; stroke:none;" d="M910 1368L911 1369L910 1368M911 1369L912 1370L911 1369M1115 1369L1116 1370L1115 1369M912 1370L913 1371L912 1370M1114 1370L1115 1371L1114 1370M913 1371L914 1372L913 1371M914 1372L915 1373L914 1372z"/>
<path style="fill:#ffa208; stroke:none;" d="M1113 1372L1114 1373L1113 1372M1813 1372L1814 1373L1813 1372z"/>
<path style="fill:#635b4d; stroke:none;" d="M915 1373L916 1374L915 1373M1112 1373L1113 1374L1112 1373M916 1374L917 1375L916 1374M1111 1374L1112 1375L1111 1374z"/>
<path style="fill:#ffa208; stroke:none;" d="M1812 1374L1813 1375L1812 1374M917 1375L918 1376L917 1375z"/>
<path style="fill:#635b4d; stroke:none;" d="M920 1377L921 1378L920 1377z"/>
<path style="fill:#ffa208; stroke:none;" d="M1109 1377L1110 1378L1109 1377M1811 1377L1812 1378L1811 1377M163 1378L164 1379L163 1378z"/>
<path style="fill:#635b4d; stroke:none;" d="M921 1378L922 1379L921 1378z"/>
<path style="fill:#ffa208; stroke:none;" d="M1108 1378L1109 1379L1108 1378z"/>
<path style="fill:#635b4d; stroke:none;" d="M922 1379L923 1380L922 1379z"/>
<path style="fill:#ffa208; stroke:none;" d="M1107 1379L1108 1380L1107 1379M1810 1379L1811 1380L1810 1379M164 1380L165 1381L164 1380M923 1380L924 1381L923 1380M1106 1380L1107 1381L1106 1380M1105 1381L1106 1382L1105 1381M1809 1381L1810 1382L1809 1381M165 1382L166 1383L165 1382z"/>
<path style="fill:#635b4d; stroke:none;" d="M926 1382L927 1383L926 1382M1104 1382L1105 1383L1104 1382M927 1383L928 1384L927 1383M1103 1383L1104 1384L1103 1383z"/>
<path style="fill:#ffa208; stroke:none;" d="M166 1384L167 1385L166 1384M1102 1384L1103 1385L1102 1384M1808 1384L1809 1385L1808 1384z"/>
<path style="fill:#635b4d; stroke:none;" d="M930 1385L931 1386L930 1385z"/>
<path style="fill:#ffa208; stroke:none;" d="M1101 1385L1102 1386L1101 1385M167 1386L168 1387L167 1386z"/>
<path style="fill:#635b4d; stroke:none;" d="M931 1386L932 1387L931 1386z"/>
<path style="fill:#ffa208; stroke:none;" d="M1100 1386L1101 1387L1100 1386M1807 1386L1808 1387L1807 1386M1099 1387L1100 1388L1099 1387z"/>
<path style="fill:#635b4d; stroke:none;" d="M934 1388L935 1389L934 1388z"/>
<path style="fill:#ffa208; stroke:none;" d="M1806 1388L1807 1389L1806 1388z"/>
<path style="fill:#635b4d; stroke:none;" d="M1096 1389L1097 1390L1096 1389M937 1390L938 1391L937 1390M1095 1390L1096 1391L1095 1390z"/>
<path style="fill:#ffa208; stroke:none;" d="M1805 1390L1806 1391L1805 1390M170 1391L171 1392L170 1391M938 1391L939 1392L938 1391z"/>
<path style="fill:#635b4d; stroke:none;" d="M1094 1391L1095 1392L1094 1391M940 1392L941 1393L940 1392z"/>
<path style="fill:#ffa208; stroke:none;" d="M1093 1392L1094 1393L1093 1392M1804 1392L1805 1393L1804 1392M171 1393L172 1394L171 1393M1092 1393L1093 1394L1092 1393z"/>
<path style="fill:#635b4d; stroke:none;" d="M943 1394L944 1395L943 1394M1090 1394L1091 1395L1090 1394M945 1395L946 1396L945 1395M1089 1395L1090 1396L1089 1395z"/>
<path style="fill:#ffa208; stroke:none;" d="M946 1396L947 1397L946 1396M1088 1396L1089 1397L1088 1396z"/>
<path style="fill:#635b4d; stroke:none;" d="M948 1397L949 1398L948 1397M1086 1397L1087 1398L1086 1397z"/>
<path style="fill:#ffa208; stroke:none;" d="M1801 1397L1802 1398L1801 1397M174 1398L175 1399L174 1398z"/>
<path style="fill:#635b4d; stroke:none;" d="M950 1398L951 1399L950 1398M1085 1398L1086 1399L1085 1398z"/>
<path style="fill:#ffa208; stroke:none;" d="M1084 1399L1085 1400L1084 1399M1800 1399L1801 1400L1800 1399M175 1400L176 1401L175 1400z"/>
<path style="fill:#635b4d; stroke:none;" d="M953 1400L954 1401L953 1400M1082 1400L1083 1401L1082 1400M955 1401L956 1402L955 1401z"/>
<path style="fill:#ffa208; stroke:none;" d="M1081 1401L1082 1402L1081 1401M1799 1401L1800 1402L1799 1401z"/>
<path style="fill:#635b4d; stroke:none;" d="M957 1402L958 1403L957 1402M1079 1402L1080 1403L1079 1402z"/>
<path style="fill:#ffa208; stroke:none;" d="M177 1403L178 1404L177 1403z"/>
<path style="fill:#635b4d; stroke:none;" d="M959 1403L960 1404L959 1403M1078 1403L1079 1404L1078 1403z"/>
<path style="fill:#ffa208; stroke:none;" d="M1798 1403L1799 1404L1798 1403z"/>
<path style="fill:#635b4d; stroke:none;" d="M961 1404L962 1405L961 1404M1076 1404L1077 1405L1076 1404z"/>
<path style="fill:#ffa208; stroke:none;" d="M178 1405L179 1406L178 1405M962 1405L963 1406L962 1405M1075 1405L1076 1406L1075 1405z"/>
<path style="fill:#635b4d; stroke:none;" d="M964 1406L965 1407L964 1406M1073 1406L1074 1407L1073 1406z"/>
<path style="fill:#ffa208; stroke:none;" d="M1796 1406L1797 1407L1796 1406z"/>
<path style="fill:#635b4d; stroke:none;" d="M966 1407L967 1408L966 1407M1071 1407L1072 1408L1071 1407z"/>
<path style="fill:#ffa208; stroke:none;" d="M180 1408L181 1409L180 1408z"/>
<path style="fill:#635b4d; stroke:none;" d="M968 1408L969 1409L968 1408z"/>
<path style="fill:#ffa208; stroke:none;" d="M1070 1408L1071 1409L1070 1408M1795 1408L1796 1409L1795 1408M970 1409L971 1410L970 1409z"/>
<path style="fill:#635b4d; stroke:none;" d="M971 1409L972 1410L971 1409M1068 1409L1069 1410L1068 1409z"/>
<path style="fill:#ffa208; stroke:none;" d="M972 1410L973 1411L972 1410z"/>
<path style="fill:#635b4d; stroke:none;" d="M973 1410L974 1411L973 1410M1066 1410L1067 1411L1066 1410z"/>
<path style="fill:#ffa208; stroke:none;" d="M1794 1410L1795 1411L1794 1410M182 1411L183 1412L182 1411M974 1411L975 1412L974 1411z"/>
<path style="fill:#635b4d; stroke:none;" d="M975 1411L976 1412L975 1411M1064 1411L1065 1412L1064 1411M977 1412L978 1413L977 1412M1062 1412L1063 1413L1062 1412z"/>
<path style="fill:#ffa208; stroke:none;" d="M1063 1412L1064 1413L1063 1412M183 1413L184 1414L183 1413z"/>
<path style="fill:#635b4d; stroke:none;" d="M979 1413L980 1414L979 1413M1060 1413L1061 1414L1060 1413z"/>
<path style="fill:#ffa208; stroke:none;" d="M1061 1413L1062 1414L1061 1413M1792 1413L1793 1414L1792 1413z"/>
<path style="fill:#635b4d; stroke:none;" d="M981.667 1414.33L982.333 1414.67L981.667 1414.33M1058 1414L1059 1415L1058 1414z"/>
<path style="fill:#ffa208; stroke:none;" d="M1059 1414L1060 1415L1059 1414z"/>
<path style="fill:#635b4d; stroke:none;" d="M983.667 1415.33L984.333 1415.67L983.667 1415.33M1056 1415L1057 1416L1056 1415z"/>
<path style="fill:#ffa208; stroke:none;" d="M1057 1415L1058 1416L1057 1415M1791 1415L1792 1416L1791 1415M185 1416L186 1417L185 1416M985 1416L986 1417L985 1416z"/>
<path style="fill:#635b4d; stroke:none;" d="M986 1416L987 1417L986 1416M1054 1416L1055 1417L1054 1416M988 1417L989 1418L988 1417M1051.67 1417.33L1052.33 1417.67L1051.67 1417.33z"/>
<path style="fill:#ffa208; stroke:none;" d="M1790 1417L1791 1418L1790 1417z"/>
<path style="fill:#635b4d; stroke:none;" d="M990.667 1418.33L991.333 1418.67L990.667 1418.33M1049 1418L1050 1419L1049 1418z"/>
<path style="fill:#ffa208; stroke:none;" d="M1050 1418L1051 1419L1050 1418M187 1419L188 1420L187 1419z"/>
<path style="fill:#635b4d; stroke:none;" d="M992.667 1419.33L993.333 1419.67L992.667 1419.33M1046.67 1419.33L1047.33 1419.67L1046.67 1419.33z"/>
<path style="fill:#ffa208; stroke:none;" d="M1789 1419L1790 1420L1789 1419M994 1420L995 1421L994 1420z"/>
<path style="fill:#635b4d; stroke:none;" d="M995 1420L996 1421L995 1420M1043.67 1420.33L1044.33 1420.67L1043.67 1420.33z"/>
<path style="fill:#ffa208; stroke:none;" d="M1045 1420L1046 1421L1045 1420M1788 1420L1789 1421L1788 1420z"/>
<path style="fill:#635b4d; stroke:none;" d="M997.667 1421.33L998.333 1421.67L997.667 1421.33M1041.67 1421.33L1042.33 1421.67L1041.67 1421.33z"/>
<path style="fill:#ffa208; stroke:none;" d="M189 1422L190 1423L189 1422z"/>
<path style="fill:#635b4d; stroke:none;" d="M999.667 1422.33L1000.33 1422.67L999.667 1422.33M1038.67 1422.33L1039.33 1422.67L1038.67 1422.33z"/>
<path style="fill:#ffa208; stroke:none;" d="M1787 1422L1788 1423L1787 1422z"/>
<path style="fill:#635b4d; stroke:none;" d="M1001 1423L1001 1434L1002 1434L1001 1423M1037 1423L1038 1424L1037 1423z"/>
<path style="fill:#ffa208; stroke:none;" d="M1786 1424L1787 1425L1786 1424M191 1425L192 1426L191 1425M1784 1427L1785 1428L1784 1427M193 1428L194 1429L193 1428M1783 1429L1784 1430L1783 1429M195 1431L196 1432L195 1431M196 1432L197 1433L196 1432M1781 1432L1782 1433L1781 1432M197 1434L198 1435L197 1434M1001 1434L1001 1445L1002 1445L1001 1434M1780 1434L1781 1435L1780 1434M198 1435L199 1436L198 1435M1779 1435L1780 1436L1779 1435M199 1437L200 1438L199 1437M1778.33 1437.67L1778.67 1438.33L1778.33 1437.67M200 1438L201 1439L200 1438M1037 1438L1037 1448L1038 1448L1037 1438M201 1439L202 1440L201 1439M1777 1439L1778 1440L1777 1439M1776 1440L1777 1441L1776 1440M202 1441L203 1442L202 1441M1775 1441L1776 1442L1775 1441M203 1442L204 1443L203 1442M1773.33 1444.67L1773.67 1445.33L1773.33 1444.67M205 1445L206 1446L205 1445M206 1446L207 1447L206 1446M1772 1446L1773 1447L1772 1446M1771.33 1447.67L1771.67 1448.33L1771.33 1447.67M207 1448L208 1449L207 1448z"/>
<path style="fill:#635b4d; stroke:none;" d="M1037 1448L1037 1485L1038 1485C1038 1474.35 1041.11 1457.8 1037 1448z"/>
<path style="fill:#ffa208; stroke:none;" d="M208 1449L209 1450L208 1449M209 1450L210 1451L209 1450M1769.33 1450.67L1769.67 1451.33L1769.33 1450.67M210 1452L211 1453L210 1452M1768 1452L1769 1453L1768 1452M211 1453L212 1454L211 1453M1767 1453L1768 1454L1767 1453M212 1454L213 1455L212 1454z"/>
<path style="fill:#635b4d; stroke:none;" d="M1002 1454L1002 1487L1003 1487L1002 1454z"/>
<path style="fill:#ffa208; stroke:none;" d="M1766.33 1454.67L1766.67 1455.33L1766.33 1454.67M1765 1456L1766 1457L1765 1456M214 1457L215 1458L214 1457M215 1458L216 1459L215 1458M1764 1458L1765 1459L1764 1458M216 1459L217 1460L216 1459M1763 1460L1764 1461L1763 1460M217 1461L218 1462L217 1461M1762 1461L1763 1462L1762 1461M218 1462L219 1463L218 1462M219 1463L220 1464L219 1463M1760 1464L1761 1465L1760 1464M1759 1465L1760 1466L1759 1465M221 1466L222 1467L221 1466M222 1467L223 1468L222 1467M1758 1467L1759 1468L1758 1467M223 1468L224 1469L223 1468M1757 1468L1758 1469L1757 1468M225 1471L226 1472L225 1471M1755 1471L1756 1472L1755 1471M226 1472L227 1473L226 1472M1754 1472L1755 1473L1754 1472M227 1473L228 1474L227 1473M228 1474L229 1475L228 1474M1752 1475L1753 1476L1752 1475M1751 1476L1752 1477L1751 1476M230 1477L231 1478L230 1477M231 1478L232 1479L231 1478M232 1479L233 1480L232 1479M1749 1479L1750 1480L1749 1479M233 1480L234 1481L233 1480M1748 1480L1749 1481L1748 1480M1746 1483L1747 1484L1746 1483M236 1484L237 1485L236 1484M1745 1484L1746 1485L1745 1484M237 1485L238 1486L237 1485M238 1486L239 1487L238 1486M239 1487L240 1488L239 1487M990 1487L990 1488L1002 1488L990 1487M1743 1487L1744 1488L1743 1487z"/>
<path style="fill:#635b4d; stroke:none;" d="M988 1488L989 1489L988 1488M1038 1488L1038 1489L1041 1489L1038 1488z"/>
<path style="fill:#ffa208; stroke:none;" d="M1041.67 1488.33L1042.33 1488.67L1041.67 1488.33M1742 1488L1743 1489L1742 1488z"/>
<path style="fill:#635b4d; stroke:none;" d="M1048 1489L1048 1490L1051 1490L1048 1489z"/>
<path style="fill:#ffa208; stroke:none;" d="M1051 1489L1052 1490L1051 1489M1741 1489L1742 1490L1741 1489z"/>
<path style="fill:#635b4d; stroke:none;" d="M987 1490L988 1491L987 1490z"/>
<path style="fill:#ffa208; stroke:none;" d="M242 1491L243 1492L242 1491z"/>
<path style="fill:#635b4d; stroke:none;" d="M986.333 1491.67L986.667 1492.33L986.333 1491.67M1052 1491L1053 1492L1052 1491z"/>
<path style="fill:#ffa208; stroke:none;" d="M243 1492L244 1493L243 1492z"/>
<path style="fill:#635b4d; stroke:none;" d="M1053 1492L1054 1493L1053 1492z"/>
<path style="fill:#ffa208; stroke:none;" d="M1739 1492L1740 1493L1739 1492M244 1493L245 1494L244 1493z"/>
<path style="fill:#635b4d; stroke:none;" d="M985 1493L986 1494L985 1493z"/>
<path style="fill:#ffa208; stroke:none;" d="M1738 1493L1739 1494L1738 1493M245 1494L246 1495L245 1494z"/>
<path style="fill:#635b4d; stroke:none;" d="M984.333 1494.67L984.667 1495.33L984.333 1494.67M1054 1494L1055 1495L1054 1494z"/>
<path style="fill:#ffa208; stroke:none;" d="M246 1495L247 1496L246 1495z"/>
<path style="fill:#635b4d; stroke:none;" d="M1055 1495L1056 1496L1055 1495z"/>
<path style="fill:#ffa208; stroke:none;" d="M247 1496L248 1497L247 1496z"/>
<path style="fill:#635b4d; stroke:none;" d="M983 1496L984 1497L983 1496z"/>
<path style="fill:#ffa208; stroke:none;" d="M1736 1496L1737 1497L1736 1496M982 1497L983 1498L982 1497z"/>
<path style="fill:#635b4d; stroke:none;" d="M1056 1497L1057 1498L1056 1497z"/>
<path style="fill:#ffa208; stroke:none;" d="M1735 1497L1736 1498L1735 1497z"/>
<path style="fill:#635b4d; stroke:none;" d="M982 1498L983 1499L982 1498M1057 1498L1058 1499L1057 1498z"/>
<path style="fill:#ffa208; stroke:none;" d="M1734 1498L1735 1499L1734 1498z"/>
<path style="fill:#635b4d; stroke:none;" d="M981 1499L982 1500L981 1499z"/>
<path style="fill:#ffa208; stroke:none;" d="M980 1500L981 1501L980 1500z"/>
<path style="fill:#635b4d; stroke:none;" d="M1058 1500L1059 1501L1058 1500z"/>
<path style="fill:#ffa208; stroke:none;" d="M251 1501L252 1502L251 1501z"/>
<path style="fill:#635b4d; stroke:none;" d="M980 1501L981 1502L980 1501M1059 1501L1060 1502L1059 1501z"/>
<path style="fill:#ffa208; stroke:none;" d="M1732 1501L1733 1502L1732 1501M252 1502L253 1503L252 1502z"/>
<path style="fill:#635b4d; stroke:none;" d="M979 1502L980 1503L979 1502z"/>
<path style="fill:#ffa208; stroke:none;" d="M1731 1502L1732 1503L1731 1502M253 1503L254 1504L253 1503M978 1503L979 1504L978 1503z"/>
<path style="fill:#635b4d; stroke:none;" d="M1060 1503L1061 1504L1060 1503z"/>
<path style="fill:#ffa208; stroke:none;" d="M1730 1503L1731 1504L1730 1503M254 1504L255 1505L254 1504z"/>
<path style="fill:#635b4d; stroke:none;" d="M978 1504L979 1505L978 1504M1061 1504L1062 1505L1061 1504z"/>
<path style="fill:#ffa208; stroke:none;" d="M255 1505L256 1506L255 1505z"/>
<path style="fill:#635b4d; stroke:none;" d="M977 1505L978 1506L977 1505z"/>
<path style="fill:#ffa208; stroke:none;" d="M256 1506L257 1507L256 1506M787 1506L787 1507L814 1507L787 1506M976 1506L977 1507L976 1506z"/>
<path style="fill:#635b4d; stroke:none;" d="M1062 1506L1063 1507L1062 1506M786 1507L786 1512L787 1512L786 1507M831 1507L831 1508L863 1508L831 1507M976 1507L977 1508L976 1507M1063.33 1507.67L1063.67 1508.33L1063.33 1507.67M1166 1507L1166 1508L1231 1508L1210 1507L1166 1507z"/>
<path style="fill:#ffa208; stroke:none;" d="M1231 1507L1231 1508L1235 1508L1231 1507M1727 1507L1728 1508L1727 1507z"/>
<path style="fill:#635b4d; stroke:none;" d="M863 1508L864 1509L863 1508M975 1508L976 1509L975 1508M1165 1508L1166 1509L1165 1508M1235 1508L1235 1512L1236 1512L1235 1508z"/>
<path style="fill:#ffa208; stroke:none;" d="M1726 1508L1727 1509L1726 1508z"/>
<path style="fill:#635b4d; stroke:none;" d="M1064 1509L1065 1510L1064 1509M1164.33 1509.67L1164.67 1510.33L1164.33 1509.67z"/>
<path style="fill:#ffa208; stroke:none;" d="M1725 1509L1726 1510L1725 1509z"/>
<path style="fill:#635b4d; stroke:none;" d="M974 1510L975 1511L974 1510z"/>
<path style="fill:#ffa208; stroke:none;" d="M1065 1510L1066 1511L1065 1510M864 1511L865 1512L864 1511z"/>
<path style="fill:#635b4d; stroke:none;" d="M973 1511L974 1512L973 1511M1065 1511L1066 1512L1065 1511M1163 1511L1164 1512L1163 1511z"/>
<path style="fill:#ffa208; stroke:none;" d="M786 1512L787 1513L786 1512z"/>
<path style="fill:#635b4d; stroke:none;" d="M864 1512L865 1513L864 1512M1066 1512L1067 1513L1066 1512M1162.33 1512.67L1162.67 1513.33L1162.33 1512.67M1234 1512L1234 1515L1235 1515L1234 1512M972 1513L973 1514L972 1513z"/>
<path style="fill:#ffa208; stroke:none;" d="M1067 1513L1068 1514L1067 1513M1722 1513L1723 1514L1722 1513M263 1514L264 1515L263 1514z"/>
<path style="fill:#635b4d; stroke:none;" d="M787 1514L788 1515L787 1514z"/>
<path style="fill:#ffa208; stroke:none;" d="M865 1514L866 1515L865 1514M971 1514L972 1515L971 1514z"/>
<path style="fill:#635b4d; stroke:none;" d="M1067 1514L1068 1515L1067 1514M1161 1514L1162 1515L1161 1514z"/>
<path style="fill:#ffa208; stroke:none;" d="M1721 1514L1722 1515L1721 1514M264 1515L265 1516L264 1515z"/>
<path style="fill:#635b4d; stroke:none;" d="M788 1515L789 1516L788 1515M866 1515L866 1516L874 1516L866 1515z"/>
<path style="fill:#ffa208; stroke:none;" d="M874 1515L874 1516L878 1516L874 1515z"/>
<path style="fill:#635b4d; stroke:none;" d="M971 1515L972 1516L971 1515M1068 1515L1069 1516L1068 1515z"/>
<path style="fill:#ffa208; stroke:none;" d="M1160 1515L1161 1516L1160 1515M1720 1515L1721 1516L1720 1515M265 1516L266 1517L265 1516z"/>
<path style="fill:#635b4d; stroke:none;" d="M789 1516L790 1517L789 1516M881 1516L881 1517L906 1517L881 1516z"/>
<path style="fill:#ffa208; stroke:none;" d="M906 1516L906 1517L911 1517L906 1516z"/>
<path style="fill:#635b4d; stroke:none;" d="M970 1516L971 1517L970 1516M1160 1516L1161 1517L1160 1516M1233 1516L1233 1519L1234 1519L1233 1516z"/>
<path style="fill:#ffa208; stroke:none;" d="M1719 1516L1720 1517L1719 1516M266 1517L267 1518L266 1517M790 1517L791 1518L790 1517z"/>
<path style="fill:#635b4d; stroke:none;" d="M914 1517L914 1518L941 1518L914 1517z"/>
<path style="fill:#ffa208; stroke:none;" d="M941 1517L941 1518L948 1518L941 1517M969 1517L970 1518L969 1517z"/>
<path style="fill:#635b4d; stroke:none;" d="M1070 1517L1070 1518L1155 1518L1129 1517L1070 1517z"/>
<path style="fill:#ffa208; stroke:none;" d="M1155 1517L1156 1518L1155 1517M1158 1517L1159 1518L1158 1517z"/>
<path style="fill:#635b4d; stroke:none;" d="M1159 1517L1160 1518L1159 1517z"/>
<path style="fill:#ffa208; stroke:none;" d="M267 1518L268 1519L267 1518z"/>
<path style="fill:#635b4d; stroke:none;" d="M792 1518L793 1519L792 1518M952 1518L952 1519L970 1519L952 1518z"/>
<path style="fill:#ffa208; stroke:none;" d="M268 1519L269 1520L268 1519z"/>
<path style="fill:#635b4d; stroke:none;" d="M793 1519L794 1520L793 1519M1232 1519L1232 1522L1233 1522L1232 1519z"/>
<path style="fill:#ffa208; stroke:none;" d="M269 1520L270 1521L269 1520z"/>
<path style="fill:#635b4d; stroke:none;" d="M794 1520L795 1521L794 1520z"/>
<path style="fill:#ffa208; stroke:none;" d="M1716 1520L1717 1521L1716 1520M270 1521L271 1522L270 1521z"/>
<path style="fill:#635b4d; stroke:none;" d="M795 1521L796 1522L795 1521z"/>
<path style="fill:#ffa208; stroke:none;" d="M1715 1521L1716 1522L1715 1521M271 1522L272 1523L271 1522z"/>
<path style="fill:#635b4d; stroke:none;" d="M796 1522L797 1523L796 1522z"/>
<path style="fill:#ffa208; stroke:none;" d="M1232 1522L1233 1523L1232 1522M1714 1522L1715 1523L1714 1522M272 1523L273 1524L272 1523M797 1523L798 1524L797 1523z"/>
<path style="fill:#635b4d; stroke:none;" d="M1231 1523L1231 1526L1232 1526L1231 1523z"/>
<path style="fill:#ffa208; stroke:none;" d="M1713 1523L1714 1524L1713 1523M273 1524L274 1525L273 1524z"/>
<path style="fill:#635b4d; stroke:none;" d="M799 1524L800 1525L799 1524z"/>
<path style="fill:#ffa208; stroke:none;" d="M1712 1524L1713 1525L1712 1524M274 1525L275 1526L274 1525z"/>
<path style="fill:#635b4d; stroke:none;" d="M800 1525L801 1526L800 1525z"/>
<path style="fill:#ffa208; stroke:none;" d="M1711 1525L1712 1526L1711 1525M275 1526L276 1527L275 1526z"/>
<path style="fill:#635b4d; stroke:none;" d="M801 1526L802 1527L801 1526z"/>
<path style="fill:#ffa208; stroke:none;" d="M1710 1526L1711 1527L1710 1526M276 1527L277 1528L276 1527z"/>
<path style="fill:#635b4d; stroke:none;" d="M802 1527L803 1528L802 1527M1230 1527L1230 1530L1231 1530L1230 1527z"/>
<path style="fill:#ffa208; stroke:none;" d="M277 1528L278 1529L277 1528z"/>
<path style="fill:#635b4d; stroke:none;" d="M803 1528L804 1529L803 1528z"/>
<path style="fill:#ffa208; stroke:none;" d="M278 1529L279 1530L278 1529z"/>
<path style="fill:#635b4d; stroke:none;" d="M804 1529L805 1530L804 1529z"/>
<path style="fill:#ffa208; stroke:none;" d="M279 1530L280 1531L279 1530M805 1530L806 1531L805 1530M280 1531L281 1532L280 1531z"/>
<path style="fill:#635b4d; stroke:none;" d="M806.333 1531.67L806.667 1532.33L806.333 1531.67M1229.33 1531.67L1229.67 1532.33L1229.33 1531.67z"/>
<path style="fill:#ffa208; stroke:none;" d="M1706 1531L1707 1532L1706 1531M281 1532L282 1533L281 1532M1705 1532L1706 1533L1705 1532M282 1533L283 1534L282 1533M806.333 1533.67L806.667 1534.33L806.333 1533.67M1229 1533L1230 1534L1229 1533M1704 1533L1705 1534L1704 1533M283 1534L284 1535L283 1534z"/>
<path style="fill:#635b4d; stroke:none;" d="M1228 1534L1228 1537L1229 1537L1228 1534z"/>
<path style="fill:#ffa208; stroke:none;" d="M1703 1534L1704 1535L1703 1534M284 1535L285 1536L284 1535M1702 1535L1703 1536L1702 1535M285 1536L286 1537L285 1536z"/>
<path style="fill:#635b4d; stroke:none;" d="M807 1536L807 1543L808 1543L807 1536z"/>
<path style="fill:#ffa208; stroke:none;" d="M1701 1536L1702 1537L1701 1536M286 1537L287 1538L286 1537M1700 1537L1701 1538L1700 1537M287 1538L288 1539L287 1538z"/>
<path style="fill:#635b4d; stroke:none;" d="M1227 1538L1227 1541L1228 1541L1227 1538z"/>
<path style="fill:#ffa208; stroke:none;" d="M1699 1538L1700 1539L1699 1538M288 1539L289 1540L288 1539M1698 1539L1699 1540L1698 1539M289 1540L290 1541L289 1540z"/>
<path style="fill:#635b4d; stroke:none;" d="M1151.67 1540.33L1152.33 1540.67L1151.67 1540.33z"/>
<path style="fill:#ffa208; stroke:none;" d="M1153.67 1540.33L1154.33 1540.67L1153.67 1540.33z"/>
<path style="fill:#635b4d; stroke:none;" d="M1156 1540L1156 1626L1157 1626L1157 1567L1156 1540z"/>
<path style="fill:#ffa208; stroke:none;" d="M1697 1540L1698 1541L1697 1540M290 1541L291 1542L290 1541M872 1541L872 1542L875 1542L872 1541z"/>
<path style="fill:#635b4d; stroke:none;" d="M875 1541L875 1542L878 1542L875 1541M1145.67 1541.33L1146.33 1541.67L1145.67 1541.33z"/>
<path style="fill:#ffa208; stroke:none;" d="M1147.67 1541.33L1148.33 1541.67L1147.67 1541.33M1696 1541L1697 1542L1696 1541M291 1542L292 1543L291 1542M880 1542L880 1543L883 1543L880 1542z"/>
<path style="fill:#635b4d; stroke:none;" d="M883 1542L883 1543L886 1543L883 1542M1138 1542L1138 1543L1141 1543L1138 1542z"/>
<path style="fill:#ffa208; stroke:none;" d="M1141.67 1542.33L1142.33 1542.67L1141.67 1542.33z"/>
<path style="fill:#635b4d; stroke:none;" d="M1226 1542L1226 1545L1227 1545L1226 1542z"/>
<path style="fill:#ffa208; stroke:none;" d="M292 1543L293 1544L292 1543M807 1543L808 1544L807 1543M888.667 1543.33L889.333 1543.67L888.667 1543.33z"/>
<path style="fill:#635b4d; stroke:none;" d="M890 1543L890 1544L893 1544L890 1543M1130 1543L1130 1544L1133 1544L1130 1543z"/>
<path style="fill:#ffa208; stroke:none;" d="M1133 1543L1133 1544L1136 1544L1133 1543M293 1544L294 1545L293 1544M896.667 1544.33L897.333 1544.67L896.667 1544.33z"/>
<path style="fill:#635b4d; stroke:none;" d="M898.667 1544.33L899.333 1544.67L898.667 1544.33M1123 1544L1123 1545L1126 1545L1123 1544z"/>
<path style="fill:#ffa208; stroke:none;" d="M1126.67 1544.33L1127.33 1544.67L1126.67 1544.33M294 1545L295 1546L294 1545z"/>
<path style="fill:#635b4d; stroke:none;" d="M808 1545L808 1550L809 1550L808 1545z"/>
<path style="fill:#ffa208; stroke:none;" d="M903.667 1545.33L904.333 1545.67L903.667 1545.33z"/>
<path style="fill:#635b4d; stroke:none;" d="M905 1545L905 1546L908 1546L905 1545M1115 1545L1115 1546L1118 1546L1115 1545z"/>
<path style="fill:#ffa208; stroke:none;" d="M1118.67 1545.33L1119.33 1545.67L1118.67 1545.33M295 1546L296 1547L295 1546M912 1546L913 1547L912 1546z"/>
<path style="fill:#635b4d; stroke:none;" d="M913 1546L913 1547L916 1547L913 1546M1106 1546L1106 1547L1110 1547L1106 1546z"/>
<path style="fill:#ffa208; stroke:none;" d="M1110.67 1546.33L1111.33 1546.67L1110.67 1546.33z"/>
<path style="fill:#635b4d; stroke:none;" d="M1225.33 1546.67L1225.67 1547.33L1225.33 1546.67z"/>
<path style="fill:#ffa208; stroke:none;" d="M296 1547L297 1548L296 1547M921 1547L922 1548L921 1547z"/>
<path style="fill:#635b4d; stroke:none;" d="M922 1547L922 1548L926 1548L922 1547M1097 1547L1097 1548L1101 1548L1097 1547z"/>
<path style="fill:#ffa208; stroke:none;" d="M1101.67 1547.33L1102.33 1547.67L1101.67 1547.33M1691 1547L1692 1548L1691 1547M297 1548L298 1549L297 1548M930.667 1548.33L931.333 1548.67L930.667 1548.33z"/>
<path style="fill:#635b4d; stroke:none;" d="M932 1548L932 1549L936 1549L932 1548M1087 1548L1087 1549L1091 1549L1087 1548z"/>
<path style="fill:#ffa208; stroke:none;" d="M1091.67 1548.33L1092.33 1548.67L1091.67 1548.33M1225 1548L1226 1549L1225 1548M1690 1548L1691 1549L1690 1548M941.667 1549.33L942.333 1549.67L941.667 1549.33z"/>
<path style="fill:#635b4d; stroke:none;" d="M943 1549L943 1550L948 1550L943 1549M1075 1549L1075 1550L1080 1550L1075 1549z"/>
<path style="fill:#ffa208; stroke:none;" d="M1080.67 1549.33L1081.33 1549.67L1080.67 1549.33M1689 1549L1690 1550L1689 1549M808 1550L809 1551L808 1550M955.667 1550.33L956.333 1550.67L955.667 1550.33z"/>
<path style="fill:#635b4d; stroke:none;" d="M957 1550L957 1551L963 1551L957 1550M1060 1550L1060 1551L1066 1551L1060 1550z"/>
<path style="fill:#ffa208; stroke:none;" d="M1066 1550L1066 1551L1069 1551L1066 1550z"/>
<path style="fill:#635b4d; stroke:none;" d="M1224.33 1550.67L1224.67 1551.33L1224.33 1550.67z"/>
<path style="fill:#ffa208; stroke:none;" d="M1688 1550L1689 1551L1688 1550M972 1551L972 1552L975 1552L972 1551z"/>
<path style="fill:#635b4d; stroke:none;" d="M975 1551L975 1552L985 1552L975 1551M1039 1551L1039 1552L1048 1552L1039 1551z"/>
<path style="fill:#ffa208; stroke:none;" d="M1048 1551L1048 1552L1051 1552L1048 1551M1687 1551L1688 1552L1687 1551z"/>
<path style="fill:#635b4d; stroke:none;" d="M809 1552L809 1556L810 1556L809 1552z"/>
<path style="fill:#ffa208; stroke:none;" d="M1224 1552L1225 1553L1224 1552M1686 1552L1687 1553L1686 1552M1685 1553L1686 1554L1685 1553z"/>
<path style="fill:#635b4d; stroke:none;" d="M1223.33 1554.67L1223.67 1555.33L1223.33 1554.67z"/>
<path style="fill:#ffa208; stroke:none;" d="M1684 1554L1685 1555L1684 1554M305 1555L306 1556L305 1555M1683 1555L1684 1556L1683 1555M306 1556L307 1557L306 1556M809 1556L810 1557L809 1556M1682 1556L1683 1557L1682 1556M307 1557L308 1558L307 1557z"/>
<path style="fill:#635b4d; stroke:none;" d="M810 1557L810 1561L811 1561L810 1557z"/>
<path style="fill:#ffa208; stroke:none;" d="M1681 1557L1682 1558L1681 1557M308 1558L309 1559L308 1558z"/>
<path style="fill:#635b4d; stroke:none;" d="M1222.33 1558.67L1222.67 1559.33L1222.33 1558.67z"/>
<path style="fill:#ffa208; stroke:none;" d="M1680 1558L1681 1559L1680 1558M309 1559L310 1560L309 1559M1679 1559L1680 1560L1679 1559M310 1560L311 1561L310 1560M1678 1560L1679 1561L1678 1560M311 1561L312 1562L311 1561M810 1561L811 1562L810 1561z"/>
<path style="fill:#635b4d; stroke:none;" d="M1221 1561L1221 1564L1222 1564L1221 1561z"/>
<path style="fill:#ffa208; stroke:none;" d="M1677 1561L1678 1562L1677 1561M1676 1562L1677 1563L1676 1562z"/>
<path style="fill:#635b4d; stroke:none;" d="M811 1563L811 1566L812 1566L811 1563z"/>
<path style="fill:#ffa208; stroke:none;" d="M1675 1563L1676 1564L1675 1563M1674 1564L1675 1565L1674 1564M1673 1565L1674 1566L1673 1565M317 1566L318 1567L317 1566M811 1566L812 1567L811 1566z"/>
<path style="fill:#635b4d; stroke:none;" d="M1220.33 1566.67L1220.67 1567.33L1220.33 1566.67z"/>
<path style="fill:#ffa208; stroke:none;" d="M1672 1566L1673 1567L1672 1566M318 1567L319 1568L318 1567z"/>
<path style="fill:#635b4d; stroke:none;" d="M812 1567L812 1571L813 1571L812 1567z"/>
<path style="fill:#ffa208; stroke:none;" d="M1671 1567L1672 1568L1671 1567M319 1568L320 1569L319 1568M1670 1568L1671 1569L1670 1568M320 1569L321 1570L320 1569M872 1569L872 1573L873 1573L872 1569M1669 1569L1670 1570L1669 1569M321 1570L322 1571L321 1570z"/>
<path style="fill:#635b4d; stroke:none;" d="M922 1570L922 1588L923 1588L922 1570z"/>
<path style="fill:#010101; stroke:none;" d="M923 1570L923 1588L955 1600C956.543 1596.29 958.263 1592.61 960.039 1589.01C963.342 1582.31 974.056 1582.38 979.816 1586.6C989.783 1593.9 992.31 1613.99 1006 1616.38C1024.22 1619.55 1029.56 1593.72 1043.17 1587.92C1048.05 1585.84 1055.91 1595.96 1060 1598.11C1066.44 1601.49 1079.33 1593.78 1083.57 1588.79C1086.28 1585.6 1088.28 1574 1083.57 1571.6C1076.45 1567.99 1060.97 1571 1053 1571C1009.65 1571 966.387 1570 923 1570z"/>
<path style="fill:#635b4d; stroke:none;" d="M1007 1570L1007 1571L1063 1571C1069.42 1571 1079.73 1569 1085 1573C1085.8 1568.15 1070.47 1570 1067 1570L1007 1570z"/>
<path style="fill:#ffa208; stroke:none;" d="M1085 1570L1086 1571L1085 1570z"/>
<path style="fill:#635b4d; stroke:none;" d="M1219.33 1570.67L1219.67 1571.33L1219.33 1570.67M813 1572L814 1573L813 1572M820 1572L820 1573L824 1573L820 1572z"/>
<path style="fill:#ffa208; stroke:none;" d="M824 1572L825 1573L824 1572z"/>
<path style="fill:#635b4d; stroke:none;" d="M832 1572L833 1573L832 1572M1218 1572L1219 1573L1218 1572z"/>
<path style="fill:#ffa208; stroke:none;" d="M814 1573L815 1574L814 1573z"/>
<path style="fill:#635b4d; stroke:none;" d="M872 1573L872 1591L873 1591L872 1573z"/>
<path style="fill:#ffa208; stroke:none;" d="M1199 1573L1200 1574L1199 1573M326 1574L327 1575L326 1574z"/>
<path style="fill:#635b4d; stroke:none;" d="M833 1574L833 1577L834 1577L833 1574M1198 1574L1199 1575L1198 1574z"/>
<path style="fill:#ffa208; stroke:none;" d="M327 1575L328 1576L327 1575M1198 1575L1199 1576L1198 1575M328 1576L329 1577L328 1576M1086 1576L1086 1585L1087 1585L1086 1576M1661 1576L1662 1577L1661 1576M329 1577L330 1578L329 1577z"/>
<path style="fill:#635b4d; stroke:none;" d="M1197 1577L1198 1578L1197 1577z"/>
<path style="fill:#ffa208; stroke:none;" d="M1660 1577L1661 1578L1660 1577M330 1578L331 1579L330 1578z"/>
<path style="fill:#635b4d; stroke:none;" d="M834 1578L834 1581L835 1581L834 1578z"/>
<path style="fill:#ffa208; stroke:none;" d="M1659 1578L1660 1579L1659 1578z"/>
<path style="fill:#635b4d; stroke:none;" d="M1196 1579L1197 1580L1196 1579z"/>
<path style="fill:#ffa208; stroke:none;" d="M1658 1579L1659 1580L1658 1579M1196 1580L1197 1581L1196 1580M1657 1580L1658 1581L1657 1580M334 1581L335 1582L334 1581M1656 1581L1657 1582L1656 1581M335 1582L336 1583L335 1582z"/>
<path style="fill:#635b4d; stroke:none;" d="M835 1582L835 1585L836 1585L835 1582M1195 1582L1196 1583L1195 1582z"/>
<path style="fill:#ffa208; stroke:none;" d="M1655 1582L1656 1583L1655 1582M336 1583L337 1584L336 1583z"/>
<path style="fill:#635b4d; stroke:none;" d="M963 1583L964 1584L963 1583z"/>
<path style="fill:#ffa208; stroke:none;" d="M1654 1583L1655 1584L1654 1583M337 1584L338 1585L337 1584M962 1584L963 1585L962 1584M966 1584L967 1585L966 1584z"/>
<path style="fill:#635b4d; stroke:none;" d="M967 1584L967 1585L974 1585L967 1584M1194 1584L1195 1585L1194 1584z"/>
<path style="fill:#ffa208; stroke:none;" d="M1653 1584L1654 1585L1653 1584z"/>
<path style="fill:#635b4d; stroke:none;" d="M961.333 1585.67L961.667 1586.33L961.333 1585.67z"/>
<path style="fill:#ffa208; stroke:none;" d="M976 1585L977 1586L976 1585z"/>
<path style="fill:#635b4d; stroke:none;" d="M977 1585L977 1586L980 1586L977 1585z"/>
<path style="fill:#ffa208; stroke:none;" d="M1652 1585L1653 1586L1652 1585z"/>
<path style="fill:#635b4d; stroke:none;" d="M836 1586L836 1589L837 1589L836 1586M980 1586L981 1587L980 1586M1043 1586L1044 1587L1043 1586z"/>
<path style="fill:#ffa208; stroke:none;" d="M1044 1586L1045 1587L1044 1586z"/>
<path style="fill:#635b4d; stroke:none;" d="M1045 1586L1046 1587L1045 1586M1085 1586L1086 1587L1085 1586M1193 1586L1194 1587L1193 1586z"/>
<path style="fill:#ffa208; stroke:none;" d="M1651 1586L1652 1587L1651 1586M341 1587L342 1588L341 1587z"/>
<path style="fill:#635b4d; stroke:none;" d="M960.333 1587.67L960.667 1588.33L960.333 1587.67M981 1587L982 1588L981 1587M1042 1587L1043 1588L1042 1587M1046 1587L1047 1588L1046 1587z"/>
<path style="fill:#ffa208; stroke:none;" d="M1085 1587L1086 1588L1085 1587M1193 1587L1194 1588L1193 1587M342 1588L343 1589L342 1588z"/>
<path style="fill:#635b4d; stroke:none;" d="M924.667 1588.33L925.333 1588.67L924.667 1588.33z"/>
<path style="fill:#ffa208; stroke:none;" d="M981 1588L982 1589L981 1588z"/>
<path style="fill:#635b4d; stroke:none;" d="M1041 1588L1042 1589L1041 1588M1047 1588L1048 1589L1047 1588M1084 1588L1085 1589L1084 1588z"/>
<path style="fill:#ffa208; stroke:none;" d="M343 1589L344 1590L343 1589z"/>
<path style="fill:#635b4d; stroke:none;" d="M837 1589L837 1592L838 1592L837 1589M926.667 1589.33L927.333 1589.67L926.667 1589.33M982 1589L983 1590L982 1589M1048 1589L1049 1590L1048 1589M1083 1589L1084 1590L1083 1589M1192 1589L1193 1590L1192 1589z"/>
<path style="fill:#ffa208; stroke:none;" d="M344 1590L345 1591L344 1590z"/>
<path style="fill:#635b4d; stroke:none;" d="M928.667 1590.33L929.333 1590.67L928.667 1590.33M959 1590L960 1591L959 1590M983 1590L984 1591L983 1590z"/>
<path style="fill:#ffa208; stroke:none;" d="M1082 1590L1083 1591L1082 1590M1646 1590L1647 1591L1646 1590z"/>
<path style="fill:#635b4d; stroke:none;" d="M930.667 1591.33L931.333 1591.67L930.667 1591.33z"/>
<path style="fill:#ffa208; stroke:none;" d="M983 1591L984 1592L983 1591M1039 1591L1040 1592L1039 1591z"/>
<path style="fill:#635b4d; stroke:none;" d="M1051 1591L1052 1592L1051 1591M1080 1591L1081 1592L1080 1591M1191 1591L1192 1592L1191 1591z"/>
<path style="fill:#ffa208; stroke:none;" d="M1645 1591L1646 1592L1645 1591M347 1592L348 1593L347 1592z"/>
<path style="fill:#635b4d; stroke:none;" d="M932.667 1592.33L933.333 1592.67L932.667 1592.33M958 1592L959 1593L958 1592M984 1592L985 1593L984 1592z"/>
<path style="fill:#ffa208; stroke:none;" d="M1038 1592L1039 1593L1038 1592z"/>
<path style="fill:#635b4d; stroke:none;" d="M1052 1592L1053 1593L1052 1592M1078 1592L1079 1593L1078 1592z"/>
<path style="fill:#ffa208; stroke:none;" d="M1079 1592L1080 1593L1079 1592M1191 1592L1192 1593L1191 1592M1644 1592L1645 1593L1644 1592M348 1593L349 1594L348 1593z"/>
<path style="fill:#635b4d; stroke:none;" d="M838.333 1593.67L838.667 1594.33L838.333 1593.67z"/>
<path style="fill:#ffa208; stroke:none;" d="M934 1593L935 1594L934 1593z"/>
<path style="fill:#635b4d; stroke:none;" d="M935 1593L936 1594L935 1593M985 1593L986 1594L985 1593M1037 1593L1038 1594L1037 1593M1053 1593L1054 1594L1053 1593M1077 1593L1078 1594L1077 1593z"/>
<path style="fill:#ffa208; stroke:none;" d="M1643 1593L1644 1594L1643 1593M349 1594L350 1595L349 1594z"/>
<path style="fill:#635b4d; stroke:none;" d="M937.667 1594.33L938.333 1594.67L937.667 1594.33M957 1594L958 1595L957 1594z"/>
<path style="fill:#ffa208; stroke:none;" d="M985 1594L986 1595L985 1594z"/>
<path style="fill:#635b4d; stroke:none;" d="M1036 1594L1037 1595L1036 1594M1075 1594L1076 1595L1075 1594M1190 1594L1191 1595L1190 1594z"/>
<path style="fill:#ffa208; stroke:none;" d="M1642 1594L1643 1595L1642 1594M350 1595L351 1596L350 1595M838 1595L839 1596L838 1595z"/>
<path style="fill:#635b4d; stroke:none;" d="M939.667 1595.33L940.333 1595.67L939.667 1595.33M986 1595L987 1596L986 1595M1035 1595L1036 1596L1035 1595M1056 1595L1057 1596L1056 1595M1073 1595L1074 1596L1073 1595z"/>
<path style="fill:#ffa208; stroke:none;" d="M1641 1595L1642 1596L1641 1595z"/>
<path style="fill:#635b4d; stroke:none;" d="M839 1596L839 1599L840 1599L839 1596M942.667 1596.33L943.333 1596.67L942.667 1596.33M956 1596L957 1597L956 1596M987 1596L988 1597L987 1596M1034 1596L1035 1597L1034 1596M1057 1596L1058 1597L1057 1596M1071 1596L1072 1597L1071 1596z"/>
<path style="fill:#ffa208; stroke:none;" d="M1072 1596L1073 1597L1072 1596z"/>
<path style="fill:#635b4d; stroke:none;" d="M1189 1596L1190 1597L1189 1596z"/>
<path style="fill:#ffa208; stroke:none;" d="M1640 1596L1641 1597L1640 1596M353 1597L354 1598L353 1597M944 1597L945 1598L944 1597z"/>
<path style="fill:#635b4d; stroke:none;" d="M945.667 1597.33L946.333 1597.67L945.667 1597.33z"/>
<path style="fill:#ffa208; stroke:none;" d="M987 1597L988 1598L987 1597z"/>
<path style="fill:#635b4d; stroke:none;" d="M1033 1597L1034 1598L1033 1597z"/>
<path style="fill:#ffa208; stroke:none;" d="M1058 1597L1059 1598L1058 1597z"/>
<path style="fill:#635b4d; stroke:none;" d="M1069.67 1597.33L1070.33 1597.67L1069.67 1597.33z"/>
<path style="fill:#ffa208; stroke:none;" d="M1639 1597L1640 1598L1639 1597M354 1598L355 1599L354 1598z"/>
<path style="fill:#635b4d; stroke:none;" d="M947 1598L947 1599L950 1599L947 1598M955 1598L956 1599L955 1598M988 1598L989 1599L988 1598M1032 1598L1033 1599L1032 1598M1060 1598L1061 1599L1060 1598M1067.67 1598.33L1068.33 1598.67L1067.67 1598.33z"/>
<path style="fill:#ffa208; stroke:none;" d="M355 1599L356 1600L355 1599z"/>
<path style="fill:#635b4d; stroke:none;" d="M840.333 1599.67L840.667 1600.33L840.333 1599.67z"/>
<path style="fill:#ffa208; stroke:none;" d="M950 1599L951 1600L950 1599z"/>
<path style="fill:#635b4d; stroke:none;" d="M951.667 1599.33L952.333 1599.67L951.667 1599.33M989 1599L990 1600L989 1599M1031 1599L1032 1600L1031 1599M1061 1599L1062 1600L1061 1599M1064 1599L1064 1600L1067 1600L1064 1599M1188 1599L1189 1600L1188 1599z"/>
<path style="fill:#ffa208; stroke:none;" d="M356 1600L357 1601L356 1600M953 1600L954 1601L953 1600z"/>
<path style="fill:#635b4d; stroke:none;" d="M954 1600L955 1601L954 1600M1030 1600L1031 1601L1030 1600M1063 1600L1064 1601L1063 1600z"/>
<path style="fill:#ffa208; stroke:none;" d="M1635 1600L1636 1601L1635 1600M840 1601L841 1602L840 1601z"/>
<path style="fill:#635b4d; stroke:none;" d="M990 1601L991 1602L990 1601M1029 1601L1030 1602L1029 1601M1187 1601L1188 1602L1187 1601z"/>
<path style="fill:#ffa208; stroke:none;" d="M1634 1601L1635 1602L1634 1601M359 1602L360 1603L359 1602z"/>
<path style="fill:#635b4d; stroke:none;" d="M841.333 1602.67L841.667 1603.33L841.333 1602.67M991 1602L992 1603L991 1602M1028 1602L1029 1603L1028 1602z"/>
<path style="fill:#ffa208; stroke:none;" d="M1633 1602L1634 1603L1633 1602M360 1603L361 1604L360 1603z"/>
<path style="fill:#635b4d; stroke:none;" d="M1186 1603L1187 1604L1186 1603z"/>
<path style="fill:#ffa208; stroke:none;" d="M1632 1603L1633 1604L1632 1603M361 1604L362 1605L361 1604M841 1604L842 1605L841 1604z"/>
<path style="fill:#635b4d; stroke:none;" d="M992 1604L993 1605L992 1604z"/>
<path style="fill:#ffa208; stroke:none;" d="M1027 1604L1028 1605L1027 1604M1186 1604L1187 1605L1186 1604M1631 1604L1632 1605L1631 1604z"/>
<path style="fill:#635b4d; stroke:none;" d="M842.333 1605.67L842.667 1606.33L842.333 1605.67M993 1605L994 1606L993 1605z"/>
<path style="fill:#ffa208; stroke:none;" d="M1026 1605L1027 1606L1026 1605M1025 1606L1026 1607L1025 1606z"/>
<path style="fill:#635b4d; stroke:none;" d="M1185 1606L1186 1607L1185 1606z"/>
<path style="fill:#ffa208; stroke:none;" d="M1628 1606L1629 1607L1628 1606M365 1607L366 1608L365 1607M994 1607L995 1608L994 1607z"/>
<path style="fill:#635b4d; stroke:none;" d="M1024 1607L1025 1608L1024 1607z"/>
<path style="fill:#ffa208; stroke:none;" d="M1627 1607L1628 1608L1627 1607M366 1608L367 1609L366 1608z"/>
<path style="fill:#635b4d; stroke:none;" d="M843.333 1608.67L843.667 1609.33L843.333 1608.67M995 1608L996 1609L995 1608M1023 1608L1024 1609L1023 1608M1184 1608L1185 1609L1184 1608z"/>
<path style="fill:#ffa208; stroke:none;" d="M1626 1608L1627 1609L1626 1608z"/>
<path style="fill:#635b4d; stroke:none;" d="M996 1609L997 1610L996 1609M1022 1609L1023 1610L1022 1609z"/>
<path style="fill:#ffa208; stroke:none;" d="M1184 1609L1185 1610L1184 1609M1625 1609L1626 1610L1625 1609z"/>
<path style="fill:#635b4d; stroke:none;" d="M1021 1610L1022 1611L1021 1610z"/>
<path style="fill:#ffa208; stroke:none;" d="M370 1611L371 1612L370 1611z"/>
<path style="fill:#635b4d; stroke:none;" d="M844 1611L845 1612L844 1611z"/>
<path style="fill:#ffa208; stroke:none;" d="M997 1611L998 1612L997 1611z"/>
<path style="fill:#635b4d; stroke:none;" d="M1020 1611L1021 1612L1020 1611M1183 1611L1184 1612L1183 1611z"/>
<path style="fill:#ffa208; stroke:none;" d="M1622 1611L1623 1612L1622 1611M371 1612L372 1613L371 1612z"/>
<path style="fill:#635b4d; stroke:none;" d="M998 1612L999 1613L998 1612M1019 1612L1020 1613L1019 1612z"/>
<path style="fill:#ffa208; stroke:none;" d="M1621 1612L1622 1613L1621 1612z"/>
<path style="fill:#635b4d; stroke:none;" d="M845 1613L846 1614L845 1613M999 1613L1000 1614L999 1613M1018 1613L1019 1614L1018 1613M1182 1613L1183 1614L1182 1613z"/>
<path style="fill:#ffa208; stroke:none;" d="M1620 1613L1621 1614L1620 1613M845 1614L846 1615L845 1614M1000 1614L1001 1615L1000 1614z"/>
<path style="fill:#635b4d; stroke:none;" d="M1016 1614L1017 1615L1016 1614z"/>
<path style="fill:#ffa208; stroke:none;" d="M1017 1614L1018 1615L1017 1614M1182 1614L1183 1615L1182 1614M1619 1614L1620 1615L1619 1614M375 1615L376 1616L375 1615z"/>
<path style="fill:#635b4d; stroke:none;" d="M1002 1615L1003 1616L1002 1615M1015 1615L1016 1616L1015 1615M1181 1615L1182 1616L1181 1615z"/>
<path style="fill:#ffa208; stroke:none;" d="M376 1616L377 1617L376 1616z"/>
<path style="fill:#635b4d; stroke:none;" d="M846 1616L847 1617L846 1616z"/>
<path style="fill:#ffa208; stroke:none;" d="M873 1616L873 1621L874 1621L873 1616M1003 1616L1004 1617L1003 1616z"/>
<path style="fill:#635b4d; stroke:none;" d="M1004.67 1616.33L1005.33 1616.67L1004.67 1616.33M1009 1616L1009 1617L1014 1617L1009 1616z"/>
<path style="fill:#ffa208; stroke:none;" d="M1014 1616L1015 1617L1014 1616M1181 1616L1182 1617L1181 1616M1616 1616L1617 1617L1616 1616M1615 1617L1616 1618L1615 1617M379 1618L380 1619L379 1618z"/>
<path style="fill:#635b4d; stroke:none;" d="M847 1618L848 1619L847 1618M1180 1618L1181 1619L1180 1618z"/>
<path style="fill:#ffa208; stroke:none;" d="M1614 1618L1615 1619L1614 1618M380 1619L381 1620L380 1619M1180 1619L1181 1620L1180 1619M1613 1619L1614 1620L1613 1619z"/>
<path style="fill:#635b4d; stroke:none;" d="M848 1620L849 1621L848 1620M1179 1620L1180 1621L1179 1620z"/>
<path style="fill:#ffa208; stroke:none;" d="M1611 1620L1612 1621L1611 1620z"/>
<path style="fill:#635b4d; stroke:none;" d="M873 1621L873 1630L874 1630L873 1621z"/>
<path style="fill:#ffa208; stroke:none;" d="M1179 1621L1180 1622L1179 1621M1610 1621L1611 1622L1610 1621M384 1622L385 1623L384 1622z"/>
<path style="fill:#635b4d; stroke:none;" d="M849 1622L850 1623L849 1622z"/>
<path style="fill:#ffa208; stroke:none;" d="M1609 1622L1610 1623L1609 1622M385 1623L386 1624L385 1623z"/>
<path style="fill:#635b4d; stroke:none;" d="M1178 1623L1179 1624L1178 1623z"/>
<path style="fill:#ffa208; stroke:none;" d="M1608 1623L1609 1624L1608 1623z"/>
<path style="fill:#635b4d; stroke:none;" d="M850 1624L851 1625L850 1624z"/>
<path style="fill:#ffa208; stroke:none;" d="M1178 1624L1179 1625L1178 1624M388 1625L389 1626L388 1625z"/>
<path style="fill:#635b4d; stroke:none;" d="M1177 1625L1178 1626L1177 1625z"/>
<path style="fill:#ffa208; stroke:none;" d="M1605 1625L1606 1626L1605 1625M389 1626L390 1627L389 1626z"/>
<path style="fill:#635b4d; stroke:none;" d="M851 1626L852 1627L851 1626M1157.33 1626.67L1157.67 1627.33L1157.33 1626.67z"/>
<path style="fill:#ffa208; stroke:none;" d="M1177 1626L1178 1627L1177 1626M1604 1626L1605 1627L1604 1626z"/>
<path style="fill:#635b4d; stroke:none;" d="M1176.33 1627.67L1176.67 1628.33L1176.33 1627.67z"/>
<path style="fill:#ffa208; stroke:none;" d="M1603 1627L1604 1628L1603 1627M392 1628L393 1629L392 1628z"/>
<path style="fill:#635b4d; stroke:none;" d="M852 1628L853 1629L852 1628M1158 1628L1159 1629L1158 1628z"/>
<path style="fill:#ffa208; stroke:none;" d="M393 1629L394 1630L393 1629M1600 1629L1601 1630L1600 1629z"/>
<path style="fill:#635b4d; stroke:none;" d="M853 1630L854 1631L853 1630M1159 1630L1160 1631L1159 1630M1175 1630L1176 1631L1175 1630z"/>
<path style="fill:#ffa208; stroke:none;" d="M1599 1630L1600 1631L1599 1630M396 1631L397 1632L396 1631M872 1631L873 1632L872 1631z"/>
<path style="fill:#635b4d; stroke:none;" d="M1160 1631L1161 1632L1160 1631z"/>
<path style="fill:#ffa208; stroke:none;" d="M1175 1631L1176 1632L1175 1631M1598 1631L1599 1632L1598 1631M397 1632L398 1633L397 1632z"/>
<path style="fill:#635b4d; stroke:none;" d="M854 1632L855 1633L854 1632M871 1632L872 1633L871 1632z"/>
<path style="fill:#ffa208; stroke:none;" d="M1160 1632L1161 1633L1160 1632z"/>
<path style="fill:#635b4d; stroke:none;" d="M1174.33 1632.67L1174.67 1633.33L1174.33 1632.67z"/>
<path style="fill:#ffa208; stroke:none;" d="M1596 1632L1597 1633L1596 1632z"/>
<path style="fill:#635b4d; stroke:none;" d="M1161 1633L1162 1634L1161 1633z"/>
<path style="fill:#ffa208; stroke:none;" d="M1595 1633L1596 1634L1595 1633M400 1634L401 1635L400 1634z"/>
<path style="fill:#635b4d; stroke:none;" d="M855 1634L856 1635L855 1634z"/>
<path style="fill:#ffa208; stroke:none;" d="M870 1634L871 1635L870 1634z"/>
<path style="fill:#635b4d; stroke:none;" d="M1162.33 1634.67L1162.67 1635.33L1162.33 1634.67z"/>
<path style="fill:#ffa208; stroke:none;" d="M1594 1634L1595 1635L1594 1634M401 1635L402 1636L401 1635z"/>
<path style="fill:#635b4d; stroke:none;" d="M869 1635L870 1636L869 1635M1173 1635L1174 1636L1173 1635M856 1636L857 1637L856 1636M1163 1636L1164 1637L1163 1636z"/>
<path style="fill:#ffa208; stroke:none;" d="M1173 1636L1174 1637L1173 1636M1591 1636L1592 1637L1591 1636M404 1637L405 1638L404 1637M868 1637L869 1638L868 1637M1163 1637L1164 1638L1163 1637z"/>
<path style="fill:#635b4d; stroke:none;" d="M1172.33 1637.67L1172.67 1638.33L1172.33 1637.67z"/>
<path style="fill:#ffa208; stroke:none;" d="M1590 1637L1591 1638L1590 1637M405 1638L406 1639L405 1638z"/>
<path style="fill:#635b4d; stroke:none;" d="M857 1638L858 1639L857 1638M867 1638L868 1639L867 1638M1164 1638L1165 1639L1164 1638M1165.33 1639.67L1165.67 1640.33L1165.33 1639.67M1171.33 1639.67L1171.67 1640.33L1171.33 1639.67z"/>
<path style="fill:#ffa208; stroke:none;" d="M1587 1639L1588 1640L1587 1639M408 1640L409 1641L408 1640M858 1640L859 1641L858 1640M866 1640L867 1641L866 1640M1586 1640L1587 1641L1586 1640M409 1641L410 1642L409 1641z"/>
<path style="fill:#635b4d; stroke:none;" d="M865 1641L866 1642L865 1641M1166 1641L1167 1642L1166 1641M1170 1642L1171 1643L1170 1642z"/>
<path style="fill:#ffa208; stroke:none;" d="M412 1643L413 1644L412 1643z"/>
<path style="fill:#635b4d; stroke:none;" d="M860 1643L861 1644L860 1643z"/>
<path style="fill:#ffa208; stroke:none;" d="M864 1643L865 1644L864 1643z"/>
<path style="fill:#635b4d; stroke:none;" d="M1167 1643L1168 1644L1167 1643z"/>
<path style="fill:#ffa208; stroke:none;" d="M1170 1643L1171 1644L1170 1643M1582 1643L1583 1644L1582 1643M413 1644L414 1645L413 1644z"/>
<path style="fill:#635b4d; stroke:none;" d="M863 1644L864 1645L863 1644M1168 1644L1168 1646L1170 1644L1168 1644z"/>
<path style="fill:#ffa208; stroke:none;" d="M1581 1644L1582 1645L1581 1644z"/>
<path style="fill:#635b4d; stroke:none;" d="M862 1645L863 1646L862 1645z"/>
<path style="fill:#ffa208; stroke:none;" d="M1169 1645L1170 1646L1169 1645M416 1646L417 1647L416 1646M1578 1646L1579 1647L1578 1646M1577 1647L1578 1648L1577 1647M419 1648L420 1649L419 1648M420 1649L421 1650L420 1649M1574 1649L1575 1650L1574 1649M423 1651L424 1652L423 1651M1571 1651L1572 1652L1571 1651M1570 1652L1571 1653L1570 1652M426 1653L427 1654L426 1653M427 1654L428 1655L427 1654M1567 1654L1568 1655L1567 1654M1566 1655L1567 1656L1566 1655M430 1656L431 1657L430 1656M1563 1657L1564 1658L1563 1657M433 1658L434 1659L433 1658M1562 1658L1563 1659L1562 1658M436 1660L437 1661L436 1660M1559 1660L1560 1661L1559 1660M437 1661L438 1662L437 1661M1556 1662L1557 1663L1556 1662M440 1663L441 1664L440 1663M1553 1664L1554 1665L1553 1664M443 1665L444 1666L443 1665M1552 1665L1553 1666L1552 1665M446 1667L447 1668L446 1667M1549 1667L1550 1668L1549 1667M449 1669L450 1670L449 1669M1546 1669L1547 1670L1546 1669M450 1670L451 1671L450 1670M452 1671L453 1672L452 1671M1543 1671L1544 1672L1543 1671M453 1672L454 1673L453 1672M1542 1672L1543 1673L1542 1672M455 1673L456 1674L455 1673M456 1674L457 1675L456 1674M1539 1674L1540 1675L1539 1674M458 1675L459 1676L458 1675M459 1676L460 1677L459 1676M1536 1676L1537 1677L1536 1676M461 1677L462 1678L461 1677M462 1678L463 1679L462 1678M1533 1678L1534 1679L1533 1678M464 1679L465 1680L464 1679M1530 1680L1531 1681L1530 1680M467 1681L468 1682L467 1681M1527 1682L1528 1683L1527 1682M470 1683L471 1684L470 1683M1524 1684L1525 1685L1524 1684M473 1685L474 1686L473 1685M475 1686L476 1687L475 1686M1521 1686L1522 1687L1521 1686M476 1687L477 1688L476 1687M478 1688L479 1689L478 1688M1518 1688L1519 1689L1518 1688M479 1689L480 1690L479 1689M1516 1689L1517 1690L1516 1689M481 1690L482 1691L481 1690M1515 1690L1516 1691L1515 1690M1513 1691L1514 1692L1513 1691M484 1692L485 1693L484 1692M486 1693L487 1694L486 1693M1510 1693L1511 1694L1510 1693M487 1694L488 1695L487 1694M489 1695L490 1696L489 1695M1507 1695L1508 1696L1507 1695M490 1696L491 1697L490 1696M1505 1696L1506 1697L1505 1696M492 1697L493 1698L492 1697M1504 1697L1505 1698L1504 1697M494 1698L495 1699L494 1698M1502 1698L1503 1699L1502 1698M495 1699L496 1700L495 1699M497 1700L498 1701L497 1700M1499 1700L1500 1701L1499 1700M498 1701L499 1702L498 1701M500 1702L501 1703L500 1702M1496 1702L1497 1703L1496 1702M502 1703L503 1704L502 1703M1494 1703L1495 1704L1494 1703M503 1704L504 1705L503 1704M505 1705L506 1706L505 1705M1491 1705L1492 1706L1491 1705M507 1706L508 1707L507 1706M1489 1706L1490 1707L1489 1706M508 1707L509 1708L508 1707M510 1708L511 1709L510 1708M1486 1708L1487 1709L1486 1708M512 1709L513 1710L512 1709M1484 1709L1485 1710L1484 1709M513 1710L514 1711L513 1710M1483 1710L1484 1711L1483 1710M515 1711L516 1712L515 1711M1481 1711L1482 1712L1481 1711M517 1712L518 1713L517 1712M1479 1712L1480 1713L1479 1712M518 1713L519 1714L518 1713M1478 1713L1479 1714L1478 1713M520 1714L521 1715L520 1714M1476 1714L1477 1715L1476 1714M522 1715L523 1716L522 1715M1474 1715L1475 1716L1474 1715M523 1716L524 1717L523 1716M525 1717L526 1718L525 1717M1471 1717L1472 1718L1471 1717M527 1718L528 1719L527 1718M1469 1718L1470 1719L1469 1718M528 1719L529 1720L528 1719M530 1720L531 1721L530 1720M1466 1720L1467 1721L1466 1720M532 1721L533 1722L532 1721M1464 1721L1465 1722L1464 1721M534 1722L535 1723L534 1722M1462 1722L1463 1723L1462 1722M1461 1723L1462 1724L1461 1723M537 1724L538 1725L537 1724M1459 1724L1460 1725L1459 1724M539 1725L540 1726L539 1725M1457 1725L1458 1726L1457 1725M541 1726L542 1727L541 1726M1454 1727L1455 1728L1454 1727M544 1728L545 1729L544 1728M1452 1728L1453 1729L1452 1728M546 1729L547 1730L546 1729M1450 1729L1451 1730L1450 1729M548 1730L549 1731L548 1730M1448 1730L1449 1731L1448 1730M551 1732L552 1733L551 1732M1445 1732L1446 1733L1445 1732M553 1733L554 1734L553 1733M1443 1733L1444 1734L1443 1733M555 1734L556 1735L555 1734M1441 1734L1442 1735L1441 1734M557 1735L558 1736L557 1735M1439 1735L1440 1736L1439 1735M559 1736L560 1737L559 1736M1436 1737L1437 1738L1436 1737M562 1738L563 1739L562 1738M1434 1738L1435 1739L1434 1738M564 1739L565 1740L564 1739M1432 1739L1433 1740L1432 1739M566 1740L567 1741L566 1740M1430 1740L1431 1741L1430 1740M568 1741L569 1742L568 1741M1428 1741L1429 1742L1428 1741M570 1742L571 1743L570 1742M1423 1744L1424 1745L1423 1744M1421 1745L1422 1746L1421 1745M577 1746L578 1747L577 1746M1419 1746L1420 1747L1419 1746M579 1747L580 1748L579 1747M1417 1747L1418 1748L1417 1747M581 1748L582 1749L581 1748M1415 1748L1416 1749L1415 1748M583 1749L584 1750L583 1749M1413 1749L1414 1750L1413 1749M585 1750L586 1751L585 1750M1411 1750L1412 1751L1411 1750M587 1751L588 1752L587 1751M1409 1751L1410 1752L1409 1751M589 1752L590 1753L589 1752M1407 1752L1408 1753L1407 1752M591 1753L592 1754L591 1753M1405 1753L1406 1754L1405 1753M593 1754L594 1755L593 1754M1403 1754L1404 1755L1403 1754M595 1755L596 1756L595 1755M1401 1755L1402 1756L1401 1755M597 1756L598 1757L597 1756M1399 1756L1400 1757L1399 1756M599 1757L600 1758L599 1757M1397 1757L1398 1758L1397 1757M601 1758L602 1759L601 1758M1395 1758L1396 1759L1395 1758M1393 1759L1394 1760L1393 1759M1391 1760L1392 1761L1391 1760M606 1761L607 1762L606 1761M1389 1761L1390 1762L1389 1761M608 1762L609 1763L608 1762M1387 1762L1388 1763L1387 1762M610.667 1763.33L611.333 1763.67L610.667 1763.33M1385 1763L1386 1764L1385 1763M613 1764L614 1765L613 1764M1383 1764L1384 1765L1383 1764M615 1765L616 1766L615 1765M1381 1765L1382 1766L1381 1765M617 1766L618 1767L617 1766M1379 1766L1380 1767L1379 1766M619 1767L620 1768L619 1767M1377 1767L1378 1768L1377 1767M621 1768L622 1769L621 1768M1375 1768L1376 1769L1375 1768M623 1769L624 1770L623 1769M1372.67 1769.33L1373.33 1769.67L1372.67 1769.33M625 1770L626 1771L625 1770M1370.67 1770.33L1371.33 1770.67L1370.67 1770.33M627 1771L628 1772L627 1771M1368.67 1771.33L1369.33 1771.67L1368.67 1771.33M629 1772L630 1773L629 1772M1366.67 1772.33L1367.33 1772.67L1366.67 1772.33M631.667 1773.33L632.333 1773.67L631.667 1773.33M1364.67 1773.33L1365.33 1773.67L1364.67 1773.33M633.667 1774.33L634.333 1774.67L633.667 1774.33M1362 1774L1363 1775L1362 1774M636 1775L637 1776L636 1775M1360 1775L1361 1776L1360 1775M638 1776L639 1777L638 1776M1357.67 1776.33L1358.33 1776.67L1357.67 1776.33M640 1777L641 1778L640 1777M1355.67 1777.33L1356.33 1777.67L1355.67 1777.33M642 1778L643 1779L642 1778M1353.67 1778.33L1354.33 1778.67L1353.67 1778.33M644 1779L645 1780L644 1779M1351 1779L1352 1780L1351 1779M646.667 1780.33L647.333 1780.67L646.667 1780.33M1349 1780L1350 1781L1349 1780M648.667 1781.33L649.333 1781.67L648.667 1781.33M1346.67 1781.33L1347.33 1781.67L1346.67 1781.33M651 1782L652 1783L651 1782M1344.67 1782.33L1345.33 1782.67L1344.67 1782.33M653 1783L654 1784L653 1783M1342 1783L1343 1784L1342 1783M655.667 1784.33L656.333 1784.67L655.667 1784.33M1340 1784L1341 1785L1340 1784M657.667 1785.33L658.333 1785.67L657.667 1785.33M1337.67 1785.33L1338.33 1785.67L1337.67 1785.33M660 1786L661 1787L660 1786M1335.67 1786.33L1336.33 1786.67L1335.67 1786.33M662 1787L663 1788L662 1787M1333 1787L1334 1788L1333 1787M664.667 1788.33L665.333 1788.67L664.667 1788.33M1330.67 1788.33L1331.33 1788.67L1330.67 1788.33M666.667 1789.33L667.333 1789.67L666.667 1789.33M1328.67 1789.33L1329.33 1789.67L1328.67 1789.33M669 1790L670 1791L669 1790M1326 1790L1327 1791L1326 1790M671.667 1791.33L672.333 1791.67L671.667 1791.33M1323.67 1791.33L1324.33 1791.67L1323.67 1791.33M673.667 1792.33L674.333 1792.67L673.667 1792.33M1321 1792L1322 1793L1321 1792M676 1793L677 1794L676 1793M1319 1793L1320 1794L1319 1793M678.667 1794.33L679.333 1794.67L678.667 1794.33M1316.67 1794.33L1317.33 1794.67L1316.67 1794.33M681 1795L682 1796L681 1795M1314 1795L1315 1796L1314 1795M683 1796L684 1797L683 1796M1311.67 1796.33L1312.33 1796.67L1311.67 1796.33M685.667 1797.33L686.333 1797.67L685.667 1797.33M1309 1797L1310 1798L1309 1797M688 1798L689 1799L688 1798M1306.67 1798.33L1307.33 1798.67L1306.67 1798.33M690.667 1799.33L691.333 1799.67L690.667 1799.33M1304 1799L1305 1800L1304 1799M693 1800L694 1801L693 1800M1302 1800L1303 1801L1302 1800M695 1801L696 1802L695 1801M1299 1801L1300 1802L1299 1801M698 1802L699 1803L698 1802M1297 1802L1298 1803L1297 1802M700.667 1803.33L701.333 1803.67L700.667 1803.33M1294 1803L1295 1804L1294 1803M703 1804L704 1805L703 1804M1291.67 1804.33L1292.33 1804.67L1291.67 1804.33M705 1805L706 1806L705 1805M1289 1805L1290 1806L1289 1805M708 1806L709 1807L708 1806M1286 1806L1287 1807L1286 1806M710 1807L711 1808L710 1807M1284 1807L1285 1808L1284 1807M713 1808L714 1809L713 1808M1281 1808L1282 1809L1281 1808M716 1809L717 1810L716 1809M1278 1809L1279 1810L1278 1809M718 1810L719 1811L718 1810M1276 1810L1277 1811L1276 1810M721 1811L722 1812L721 1811M1273 1811L1274 1812L1273 1811M724 1812L725 1813L724 1812M1270 1812L1271 1813L1270 1812M726 1813L727 1814L726 1813M1268 1813L1269 1814L1268 1813M729 1814L730 1815L729 1814M1265 1814L1266 1815L1265 1814M732 1815L733 1816L732 1815M1262 1815L1263 1816L1262 1815M734 1816L735 1817L734 1816M1259 1816L1260 1817L1259 1816M737 1817L738 1818L737 1817M740 1818L741 1819L740 1818M1254 1818L1255 1819L1254 1818M743 1819L744 1820L743 1819M1251 1819L1252 1820L1251 1819M1248 1820L1249 1821L1248 1820M748 1821L749 1822L748 1821M1245 1821L1246 1822L1245 1821M751 1822L752 1823L751 1822M1242 1822L1243 1823L1242 1822M754 1823L755 1824L754 1823M1239 1823L1240 1824L1239 1823M757 1824L758 1825L757 1824M1236 1824L1237 1825L1236 1824M760 1825L761 1826L760 1825M1233 1825L1234 1826L1233 1825M763 1826L764 1827L763 1826M1230 1826L1231 1827L1230 1826M766 1827L767 1828L766 1827M1227 1827L1228 1828L1227 1827M769 1828L770 1829L769 1828M1223.67 1828.33L1224.33 1828.67L1223.67 1828.33M772 1829L773 1830L772 1829M1220 1829L1221 1830L1220 1829M775 1830L776 1831L775 1830M1217 1830L1218 1831L1217 1830M778 1831L779 1832L778 1831M1214 1831L1215 1832L1214 1831M781.667 1832.33L782.333 1832.67L781.667 1832.33M1211 1832L1212 1833L1211 1832M784.667 1833.33L785.333 1833.67L784.667 1833.33M1207.67 1833.33L1208.33 1833.67L1207.67 1833.33M788 1834L789 1835L788 1834M1204 1834L1205 1835L1204 1834M791 1835L792 1836L791 1835M1201 1835L1202 1836L1201 1835M794.667 1836.33L795.333 1836.67L794.667 1836.33M1197 1836L1198 1837L1197 1836M798 1837L799 1838L798 1837M1194 1837L1195 1838L1194 1837M801 1838L802 1839L801 1838M1190.67 1838.33L1191.33 1838.67L1190.67 1838.33M805 1839L806 1840L805 1839M1187 1839L1188 1840L1187 1839M808 1840L809 1841L808 1840M1183 1840L1184 1841L1183 1840M812 1841L813 1842L812 1841M1179.67 1841.33L1180.33 1841.67L1179.67 1841.33M815.667 1842.33L816.333 1842.67L815.667 1842.33M1176 1842L1177 1843L1176 1842M819.667 1843.33L820.333 1843.67L819.667 1843.33M1171.67 1843.33L1172.33 1843.67L1171.67 1843.33M823 1844L824 1845L823 1844M1168 1844L1169 1845L1168 1844M826.667 1845.33L827.333 1845.67L826.667 1845.33M1164.67 1845.33L1165.33 1845.67L1164.67 1845.33M830.667 1846.33L831.333 1846.67L830.667 1846.33M1159.67 1846.33L1160.33 1846.67L1159.67 1846.33M834.667 1847.33L835.333 1847.67L834.667 1847.33M1155.67 1847.33L1156.33 1847.67L1155.67 1847.33M838 1848L838 1849L841 1849L838 1848M1151.67 1848.33L1152.33 1848.67L1151.67 1848.33M842 1849L842 1850L845 1850L842 1849M1146 1849L1146 1850L1149 1850L1146 1849M846 1850L846 1851L849 1851L846 1850M1142 1850L1142 1851L1145 1851L1142 1850M850 1851L850 1852L854 1852L850 1851M1137 1851L1137 1852L1140 1852L1137 1851M855 1852L855 1853L858 1853L855 1852M1133 1852L1133 1853L1136 1853L1133 1852M859 1853L859 1854L863 1854L859 1853M1128 1853L1128 1854L1131 1854L1128 1853M864 1854L864 1855L867 1855L864 1854M1123 1854L1123 1855L1126 1855L1123 1854M868 1855L868 1856L872 1856L868 1855M1118 1855L1118 1856L1122 1856L1118 1855M874 1856L874 1857L877 1857L874 1856M1113 1856L1113 1857L1117 1857L1113 1856M879 1857L879 1858L882 1858L879 1857M1107 1857L1107 1858L1111 1858L1107 1857M884 1858L884 1859L887 1859L884 1858M1102 1858L1102 1859L1106 1859L1102 1858M889 1859L889 1860L894 1860L889 1859M1096 1859L1096 1860L1100 1860L1096 1859M895 1860L895 1861L899 1861L895 1860M1090 1860L1090 1861L1095 1861L1090 1860M901 1861L901 1862L905 1862L901 1861M1083 1861L1083 1862L1088 1862L1083 1861M907 1862L907 1863L912 1863L907 1862M1077 1862L1077 1863L1082 1863L1077 1862M914 1863L914 1864L919 1864L914 1863M1069 1863L1069 1864L1075 1864L1069 1863M921 1864L921 1865L926 1865L921 1864M1061 1864L1061 1865L1067 1865L1061 1864M928 1865L928 1866L935 1866L928 1865M1052 1865L1052 1866L1059 1866L1052 1865M937 1866L937 1867L944 1867L937 1866M1042 1866L1042 1867L1050 1867L1042 1866M947 1867L947 1868L956 1868L947 1867M1029 1867L1029 1868L1039 1868L1029 1867M959 1868L959 1869L974 1869L959 1868M1009 1868L1009 1869L1026 1869L1009 1868M982 1869L982 1870L999 1870L982 1869M1000 1869L1001 1870L1000 1869z"/>
</svg>
