<svg width="20" height="20" viewBox="0 0 20 20" fill="none" xmlns="http://www.w3.org/2000/svg">
<path d="M9.73001 0.402344C15.0816 0.402344 19.4175 4.73828 19.4175 10.0898C19.4175 15.4414 15.0816 19.7773 9.73001 19.7773C4.37845 19.7773 0.042511 15.4414 0.042511 10.0898C0.042511 4.73828 4.37845 0.402344 9.73001 0.402344ZM14.4566 7.04297C14.6128 6.41797 14.2222 6.14453 13.7925 6.30078L4.45657 9.89453C3.83157 10.1289 3.83157 10.5195 4.33939 10.6758L6.7222 11.418L12.2691 7.90234C12.5425 7.74609 12.7769 7.86328 12.5816 8.01953L8.08939 12.082L7.93314 14.543C8.16751 14.543 8.2847 14.4258 8.40189 14.3086L9.57376 13.1758L11.9956 14.9727C12.4644 15.207 12.7769 15.0898 12.8941 14.543L14.4566 7.04297Z" fill="white"/>
</svg>
