<svg width="21" height="17" viewBox="0 0 21 17" fill="none" xmlns="http://www.w3.org/2000/svg">
<path d="M18.4297 4.02734C18.4297 4.22266 18.4297 4.37891 18.4297 4.57422C18.4297 10.0039 14.3281 16.2148 6.78906 16.2148C4.44531 16.2148 2.29688 15.5508 0.5 14.3789C0.8125 14.418 1.125 14.457 1.47656 14.457C3.39062 14.457 5.14844 13.793 6.55469 12.6992C4.75781 12.6602 3.23438 11.4883 2.72656 9.84766C3 9.88672 3.23438 9.92578 3.50781 9.92578C3.85938 9.92578 4.25 9.84766 4.5625 9.76953C2.6875 9.37891 1.28125 7.73828 1.28125 5.74609V5.70703C1.82812 6.01953 2.49219 6.17578 3.15625 6.21484C2.02344 5.47266 1.32031 4.22266 1.32031 2.81641C1.32031 2.03516 1.51562 1.33203 1.86719 0.746094C3.89844 3.20703 6.94531 4.84766 10.3438 5.04297C10.2656 4.73047 10.2266 4.41797 10.2266 4.10547C10.2266 1.83984 12.0625 0.00390625 14.3281 0.00390625C15.5 0.00390625 16.5547 0.472656 17.3359 1.29297C18.2344 1.09766 19.1328 0.746094 19.9141 0.277344C19.6016 1.25391 18.9766 2.03516 18.1172 2.54297C18.9375 2.46484 19.7578 2.23047 20.4609 1.91797C19.9141 2.73828 19.2109 3.44141 18.4297 4.02734Z" fill="white"/>
</svg>
