<svg width="40" height="45" viewBox="0 0 40 45" fill="none" xmlns="http://www.w3.org/2000/svg">
<path d="M4.76649 39.1373H30.5257L29.2955 35.1539L32.2383 37.6794L34.9355 40.0966L39.8492 44.2028V5.31731C39.7264 2.90018 37.6453 0.846161 35.0655 0.846161L4.77552 0.85158C2.19761 0.85158 0.105652 2.90921 0.105652 5.32635V34.6643C0.105652 37.2133 2.194 39.1373 4.76649 39.1373V39.1373ZM23.8217 11.1126L23.7621 11.1343L23.7838 11.1126H23.8217ZM10.0361 13.4051C13.3475 10.9952 16.4168 11.1108 16.4168 11.1108L16.6643 11.3547C12.6122 12.3212 10.775 14.1314 10.775 14.1314C10.775 14.1314 11.2664 13.8911 12.1245 13.5244C17.582 11.3782 23.5417 11.5336 29.0588 14.2506C29.0588 14.2506 27.218 12.5579 23.4153 11.474L23.7513 11.1434C24.277 11.1452 27.059 11.2427 30.0362 13.4196C30.0362 13.4196 33.3674 19.1101 33.3674 26.1014C33.2572 25.9677 31.3007 29.1111 26.266 29.2195C26.266 29.2195 25.4133 28.2548 24.8063 27.4129C27.7509 26.5675 28.8529 24.8766 28.8529 24.8766C27.8864 25.4854 27.0048 25.8467 26.2894 26.208C25.1893 26.6921 24.0873 26.9306 22.9871 27.1745C17.7771 28.0199 14.8523 26.6054 12.0883 25.4836L11.1435 25.003C11.1435 25.003 12.2437 26.6939 15.0709 27.5394C14.3284 28.3867 13.5932 29.3495 13.5932 29.3495C8.56019 29.2303 6.72476 26.0869 6.72476 26.0869C6.72476 19.0848 10.0361 13.4051 10.0361 13.4051V13.4051Z" fill="white"/>
<path d="M24.1468 23.9172C25.4313 23.9172 26.4772 22.8333 26.4772 21.4965C26.4772 20.1687 25.4367 19.0847 24.1468 19.0847V19.0902C22.8678 19.0902 21.82 20.1705 21.8164 21.5073C21.8164 22.8333 22.8624 23.9172 24.1468 23.9172Z" fill="white"/>
<path d="M15.8042 23.9172C17.0887 23.9172 18.1347 22.8333 18.1347 21.4965C18.1347 20.1687 17.0959 19.0847 15.8115 19.0847L15.8042 19.0902C14.5198 19.0902 13.4738 20.1705 13.4738 21.5073C13.4738 22.8333 14.5198 23.9172 15.8042 23.9172Z" fill="white"/>
</svg>
