<svg width="54" height="44" viewBox="0 0 54 44" fill="none" xmlns="http://www.w3.org/2000/svg">
<path d="M48.2066 11.1202C48.2391 11.5904 48.2391 12.0606 48.2391 12.5351C48.2391 26.9935 37.2322 43.6684 17.1057 43.6684V43.6597C11.1603 43.6684 5.33839 41.9654 0.333313 38.7543C1.19783 38.8583 2.06667 38.9103 2.93769 38.9125C7.86476 38.9168 12.651 37.2636 16.5272 34.2194C11.845 34.1306 7.7391 31.0777 6.30474 26.6208C7.94493 26.9371 9.63496 26.8721 11.2448 26.4323C6.14007 25.4009 2.46751 20.9159 2.46751 15.7071C2.46751 15.6594 2.46751 15.6139 2.46751 15.5684C3.98854 16.4156 5.69156 16.8858 7.43359 16.9378C2.62568 13.7246 1.14366 7.32848 4.04704 2.32773C9.60246 9.16367 17.7991 13.3194 26.5981 13.7592C25.7162 9.95885 26.9209 5.97646 29.7636 3.30492C34.1707 -0.837815 41.102 -0.625478 45.2447 3.77942C47.6952 3.29625 50.0439 2.39707 52.1933 1.12305C51.3764 3.65592 49.6669 5.80746 47.3832 7.17464C49.5521 6.91897 51.6711 6.3383 53.6666 5.45212C52.1976 7.65348 50.3473 9.57101 48.2066 11.1202Z" fill="white"/>
</svg>
