<svg xmlns="http://www.w3.org/2000/svg" xmlns:xlink="http://www.w3.org/1999/xlink"><symbol id="arrow-left" viewBox="0 0 16 7" xml:space="preserve" xmlns="http://www.w3.org/2000/svg"><style>.aast0{fill-rule:evenodd;clip-rule:evenodd}</style><path class="aast0" d="M0 3.5L4 7V4h12V3H4V0z"/></symbol><symbol id="arrow-right" viewBox="0 0 16 7" xml:space="preserve" xmlns="http://www.w3.org/2000/svg"><style>.abst0{fill-rule:evenodd;clip-rule:evenodd}</style><path class="abst0" d="M16 3.5L12 0v3H0v1h12v3z"/></symbol><symbol id="calendar" viewBox="0 0 10 10" xml:space="preserve" xmlns="http://www.w3.org/2000/svg"><style>.acst0{fill-rule:evenodd;clip-rule:evenodd}</style><path id="acFill-1" class="acst0" d="M9.4 1c.3 0 .6.2.6.6v7.8c0 .3-.3.6-.6.6H.6c-.3 0-.6-.3-.6-.6V1.6c0-.4.3-.6.6-.6h1.6V.4c0-.2.2-.4.4-.4s.4.2.4.4V1h4.2V.4c0-.2.1-.4.3-.4.2 0 .4.2.4.4V1h1.5zM.7 9.3h8.5V4.1H.7v5.2zm1.5-7.6H.7v1.7h8.5V1.7H7.9v.6c0 .2-.2.4-.4.4s-.4-.2-.4-.4v-.6H3v.6c0 .2-.2.4-.4.4s-.4-.2-.4-.4v-.6z"/></symbol><symbol id="caret-down" viewBox="0 0 8 4" xml:space="preserve" xmlns="http://www.w3.org/2000/svg"><style>.adst0{fill-rule:evenodd;clip-rule:evenodd}</style><path id="adPath-2" class="adst0" d="M0 0l4 4 4-4z"/></symbol><symbol id="code" viewBox="0 0 15 15" xml:space="preserve" xmlns="http://www.w3.org/2000/svg"><style>.aest0{fill:none;stroke:#fff;stroke-width:1.1765;stroke-linecap:round;stroke-linejoin:round;stroke-miterlimit:2.5}</style><path class="aest0" d="M-294.1-27.3l2.4 2.4-2.4 2.4M-301.2-27.3l-2.4 2.4 2.4 2.4M-296.5-28.9l-2.4 7.9"/><path d="M11.5 10.8c-.2 0-.3-.1-.5-.2-.3-.3-.3-.7 0-.9l2.2-2.2L11 5.3c-.3-.3-.3-.7 0-.9.3-.3.7-.3.9 0L14.6 7c.3.3.3.7 0 .9L12 10.6c-.2.2-.3.2-.5.2zM3.5 10.8c-.2 0-.3-.1-.5-.2L.4 8c-.3-.3-.3-.7 0-1L3 4.4c.3-.3.7-.3.9 0 .3.2.3.6.1.9L1.8 7.5 4 9.7c.3.3.3.7 0 .9-.2.2-.3.2-.5.2zM6.2 12.7H6c-.4-.1-.6-.5-.4-.8l2.7-9c0-.4.4-.6.7-.5.4.1.6.5.4.8l-2.7 9c0 .3-.2.5-.5.5z"/></symbol><symbol viewBox="0 0 17.58 17.58" id="cross" xmlns="http://www.w3.org/2000/svg"><path d="M17.58 1.32L16.26 0 8.79 7.47 1.32 0 0 1.32l7.47 7.47L0 16.26l1.32 1.32 7.47-7.47 7.47 7.47 1.32-1.32-7.47-7.47 7.47-7.47z"/></symbol><symbol id="discord" viewBox="0 0 15 15" xmlns="http://www.w3.org/2000/svg"><defs><style>.agcls-1{fill:#fff}</style></defs><path class="agcls-1" d="M12.71 2.67a12.08 12.08 0 0 0-3.1-1c-.14.27-.27.55-.39.83a11 11 0 0 0-3.43 0 9.12 9.12 0 0 0-.41-.83 12 12 0 0 0-3.09 1 13 13 0 0 0-2.23 8.69 12.32 12.32 0 0 0 3.8 1.94 9.72 9.72 0 0 0 .81-1.3 7.6 7.6 0 0 1-1.28-.63l.32-.25a8.69 8.69 0 0 0 7.58 0l.32.25a8 8 0 0 1-1.28.63 8.68 8.68 0 0 0 .81 1.34 12.47 12.47 0 0 0 3.8-2 13 13 0 0 0-2.23-8.67zM5 9.61a1.45 1.45 0 0 1-1.34-1.53A1.46 1.46 0 0 1 5 6.54a1.45 1.45 0 0 1 1.36 1.53A1.44 1.44 0 0 1 5 9.61zm5 0a1.46 1.46 0 0 1-1.36-1.53A1.45 1.45 0 0 1 10 6.54a1.44 1.44 0 0 1 1.35 1.52A1.44 1.44 0 0 1 10 9.61z"/></symbol><symbol id="download" viewBox="0 0 25 19" xml:space="preserve" xmlns="http://www.w3.org/2000/svg"><style>.ahst0{fill-rule:evenodd;clip-rule:evenodd}</style><path class="ahst0" d="M13.7 8.7V0h-2v8.7h-3l4 4.6 4-4.6z"/><path d="M25 19H0v-7.4h2V17h21v-5.4h2z"/></symbol><symbol viewBox="0 0 7.1 15.3" id="facebook" xmlns="http://www.w3.org/2000/svg"><path d="M4.8 5V3.7v-.5c0-.1.1-.2.1-.3.1-.1.2-.2.3-.2.1 0 .3-.1.6-.1h1.3V0H5C3.8 0 2.9.3 2.4.9c-.5.6-.8 1.4-.8 2.6V5H0v2.6h1.6v7.7h3.2V7.7h2.1l.3-2.6H4.8z"/></symbol><symbol id="github" viewBox="0 0 15 15" xml:space="preserve" xmlns="http://www.w3.org/2000/svg"><style>.ajst0{fill-rule:evenodd;clip-rule:evenodd}</style><path id="ajFill-1" class="ajst0" d="M14 3.8c-.7-1.2-1.6-2.1-2.7-2.8-1.1-.7-2.4-1-3.8-1S4.9.3 3.7 1c-1.1.7-2 1.7-2.7 2.8C.3 5 0 6.3 0 7.7c0 1.7.5 3.2 1.4 4.5 1 1.3 2.2 2.3 3.7 2.8.2 0 .3 0 .4-.1.1-.1.1-.2.1-.3v-.5-.9h-.7c-.2 0-.4 0-.7-.1-.2 0-.5-.1-.7-.3-.2-.2-.3-.4-.4-.6L3 12c-.1-.2-.2-.3-.3-.5-.1-.2-.3-.3-.4-.4l-.1-.1-.1-.1-.1-.1v-.1h.5c.1 0 .3.1.5.2s.3.3.5.5c.1.3.3.6.5.7.2.1.4.2.6.2h.6c.2 0 .3-.1.4-.2.1-.4.2-.8.5-1-.4 0-.7-.1-1-.2-.3-.1-.6-.2-.9-.4-.3-.2-.6-.4-.8-.7-.2-.2-.4-.6-.5-1-.1-.4-.2-.9-.2-1.5 0-.8.3-1.5.8-2.1-.2-.6-.2-1.3.1-2 .2-.1.5 0 .8.1l.8.4c.2.1.3.2.4.3.6-.2 1.2-.3 1.9-.3.6 0 1.3.1 1.9.3l.4-.2c.3-.2.6-.3.9-.4.3-.1.6-.2.8-.1.3.8.3 1.4.1 2 .5.6.8 1.3.8 2.1 0 .6-.1 1.1-.2 1.5-.1.4-.3.8-.5 1.1-.2.3-.5.5-.8.7-.3.2-.6.3-.9.4-.3.1-.6.1-1 .2.3.3.5.8.5 1.4v2.1c0 .1 0 .2.1.3 0-.1.1-.1.3-.1 1.5-.5 2.7-1.4 3.7-2.8 1-1.3 1.4-2.8 1.4-4.5 0-1.4-.3-2.7-1-3.9"/></symbol><symbol viewBox="0 0 16.7 16" id="linkedin" xmlns="http://www.w3.org/2000/svg"><path d="M.22 5.2h3.6V16H.22V5.2zm15.4 1c.8.8 1.1 2 1.1 3.6V16h-3.6v-5.8c0-.8-.1-1.4-.4-1.8-.3-.4-.8-.6-1.4-.6-.5 0-.8.1-1.1.4-.4.2-.6.5-.7.9-.1.2-.2.5-.2.9v6h-3.5V9 5.3h3.6v1.5c.1-.2.3-.4.4-.6.1-.2.3-.4.6-.6.3-.2.6-.4.9-.5.4-.1.8-.2 1.2-.2 1.3 0 2.3.4 3.1 1.3zM2.02 0c.6 0 1.1.2 1.4.5.4.4.5.8.6 1.3 0 .5-.2 1-.5 1.3-.4.4-.9.6-1.5.6s-1.1-.2-1.5-.5c-.4-.4-.5-.8-.5-1.3S.22.9.62.6c.3-.4.8-.6 1.4-.6z"/></symbol><symbol id="list" viewBox="0 0 18 13" xml:space="preserve" xmlns="http://www.w3.org/2000/svg"><style>.alst0{fill-rule:evenodd;clip-rule:evenodd}</style><path id="alRectangle" class="alst0" d="M7 1h10c.6 0 1 .4 1 1s-.4 1-1 1H7c-.6 0-1-.4-1-1s.4-1 1-1z"/><circle id="alOval-Copy" class="alst0" cx="1.5" cy="1.5" r="1.5"/><path class="alst0" d="M7 6h10c.6 0 1 .4 1 1s-.4 1-1 1H7c-.6 0-1-.4-1-1s.4-1 1-1z"/><circle id="alOval" class="alst0" cx="1.5" cy="6.5" r="1.5"/><path class="alst0" d="M7 11h10c.6 0 1 .4 1 1s-.4 1-1 1H7c-.6 0-1-.4-1-1s.4-1 1-1z"/><circle id="alOval-Copy-2" class="alst0" cx="1.5" cy="11.5" r="1.5"/></symbol><symbol viewBox="0 0 11 12" id="login" xmlns="http://www.w3.org/2000/svg"><g data-name="MAIN NAV"><circle cx="5.5" cy="2.5" r="2.5"/><path d="M5.5 7A5.27 5.27 0 0 0 0 12h11a5.27 5.27 0 0 0-5.5-5z"/></g></symbol><symbol id="mail" viewBox="0 0 15 10" xml:space="preserve" xmlns="http://www.w3.org/2000/svg"><style>.anst0{fill-rule:evenodd;clip-rule:evenodd}</style><g id="anDekstop"><g id="anBATCH-02---NEWS-DETAIL" transform="translate(-257 -1377)"><g id="anSocial" transform="translate(240 1188)"><g id="anYoutube-Copy" transform="translate(0 170)"><g id="anPage-1" transform="translate(17 19)"><path id="anFill-1" class="anst0" d="M4.3 4.9L1 8.3V1.6l3.3 3.3zm.7.8l1.4 1.5c.1.2.3.3.5.4.2.1.4.1.6.1.2 0 .4 0 .6-.1.2-.1.4-.2.5-.4L10 5.7 13.2 9H1.8L5 5.7zm2.5.9c-.1 0-.2 0-.3-.1L1.9 1h11.2L7.8 6.4c-.1.1-.2.2-.3.2zm6.5-5v6.7l-3.3-3.4L14 1.6zm.8-1.6H0V10H15V0h-.2z"/></g></g></g></g></g></symbol><symbol viewBox="0 0 18.4 14.4" id="medium" xmlns="http://www.w3.org/2000/svg"><path d="M18.38 2.1h-1c-.3 0-1 .3-1 .6V12c0 .3.7.5 1 .5h1v2.1h-6.6v-2.1h1.3V2.7h-.2l-3.1 11.7h-2.5L4.18 2.7h-.2v9.6h1.3v2.1h-5.3v-2.1h.7c.3 0 .6-.2.6-.5V2.6c0-.3-.3-.6-.6-.6h-.7V-.1h6.8l2.3 8.3 2.2-8.2h7.1v2.1z"/></symbol><symbol id="meetup" viewBox="0 0 16 13" xml:space="preserve" xmlns="http://www.w3.org/2000/svg"><style>.apst0{fill-rule:evenodd;clip-rule:evenodd}</style><g id="apDekstop"><g id="apBATCH-02---HOME---COLORS-01" transform="translate(-1284 -6385)"><g id="apGroup-18" transform="translate(0 5053)"><g id="apELEMENTS" transform="translate(140 943)"><g id="apSOCIAL" transform="translate(950 386)"><g id="apGroup-3" transform="translate(194 3)"><path id="apFill-1" class="apst0" d="M14.3 13c-2-.2-3.8-1.2-3.3-3.7.1-.6.4-1.3.7-1.9.4-.9 1-1.7 1.4-2.5.1-.3.3-.6.3-.9 0-.2-.2-.6-.4-.7-.2-.1-.6 0-.7.2-.3.3-.5.6-.7 1-.7 1.4-1.3 2.8-2 4.2-.3.5-.6 1-1 1.5-.2.2-.5.4-.8.4-.7.2-1.2-.3-1.1-1 .1-.4.2-.8.4-1.2.4-1 .8-2.1 1.2-3.1.1-.8-.1-1.3-.6-1.4-.5-.1-.8.1-1.1.9-.7 1.9-1.5 3.8-2.1 5.8-.4 1.2-1.1 1.7-2.7 1.5-1.3-.2-2-1-1.7-2.4.3-1.5.7-3 1.2-4.4.3-1.2.8-2.3 1.3-3.4.8-1.6 2-2 3.7-1.2.2.1.3.2.4.2.9.5 1.3.4 2-.2 1-.9 1.5-.9 2.6-.1.4.3.7.4 1.2.2.5-.1 1.1-.2 1.6-.2 1.2.1 1.8.8 1.7 2-.1 1.3-.8 2.4-1.3 3.6-.4 1-.8 1.9-1.2 2.9-.1.3-.1.6-.1.9 0 .6.3.9.9 1 .4.1.8.1 1.1.2.3.1.6.5.7.8 0 .2-.3.6-.6.7-.2.2-.6.2-1 .3"/></g></g></g></g></g></g></symbol><symbol viewBox="0 0 23 18.91" id="menu" xmlns="http://www.w3.org/2000/svg"><path d="M0 0h23v2.1H0z"/><path data-name="Rectangle-2" d="M0 8.4h23v2.1H0zM0 16.81h23v2.1H0v-2.1z"/></symbol><symbol viewBox="0 0 15 18" id="paper" xmlns="http://www.w3.org/2000/svg"><path d="M8.6 7.5c-.3 0-.6-.1-.8-.3-.2-.2-.3-.5-.3-.8V0H1.1C.8 0 .5.1.3.3c-.2.2-.3.5-.3.8v15.8c0 .3.1.6.3.8.2.2.5.3.8.3h12.8c.3 0 .6-.1.8-.3.2-.2.3-.5.3-.8V7.5H8.6zm3.4 7.1c0 .1 0 .2-.1.3-.1.1-.2.1-.3.1H3.4c-.1 0-.2 0-.3-.1-.1-.1-.1-.2-.1-.3v-.8c0-.1 0-.2.1-.3.1-.1.2-.1.3-.1h8.3c.1 0 .2 0 .3.1.1.1.1.2.1.3v.8zm0-3c0 .1 0 .2-.1.3-.1.1-.2.1-.3.1H3.4c-.1 0-.2 0-.3-.1-.1-.1-.1-.2-.1-.3v-.8c0-.1 0-.2.1-.3.1-.1.2-.1.3-.1h8.3c.1 0 .2 0 .3.1.1.1.1.2.1.3v.8z"/><path d="M14.2 4.4L10.5.7C10.2.4 9.6.1 9 0v6h6c-.1-.6-.4-1.2-.8-1.6z"/></symbol><symbol id="pin" viewBox="0 0 9.5 11.6" xml:space="preserve" xmlns="http://www.w3.org/2000/svg"><style>.asst0{fill-rule:evenodd;clip-rule:evenodd}</style><path d="M4.8 11.6l-.3-.2C4.3 11.4 0 8.6 0 4.8 0 2.1 2.1 0 4.8 0s4.8 2.1 4.8 4.8c0 3.7-4.3 6.6-4.5 6.7l-.3.1zM4.8 1C2.7 1 1 2.7 1 4.8c0 2.8 2.8 5 3.7 5.7.9-.7 3.8-3 3.8-5.7C8.5 2.7 6.8 1 4.8 1z"/><path id="asFill-3" class="asst0" d="M5.7 4.8c0 .5-.4 1-1 1s-1-.4-1-1 .4-1 1-1 1 .5 1 1"/></symbol><symbol viewBox="0 0 18 18" id="plyr-captions-off" xmlns="http://www.w3.org/2000/svg"><path d="M1 1c-.6 0-1 .4-1 1v11c0 .6.4 1 1 1h4.6l2.7 2.7c.2.2.4.3.7.3.3 0 .5-.1.7-.3l2.7-2.7H17c.6 0 1-.4 1-1V2c0-.6-.4-1-1-1H1zm4.52 10.15c1.99 0 3.01-1.32 3.28-2.41l-1.29-.39c-.19.66-.78 1.45-1.99 1.45-1.14 0-2.2-.83-2.2-2.34 0-1.61 1.12-2.37 2.18-2.37 1.23 0 1.78.75 1.95 1.43l1.3-.41C8.47 4.96 7.46 3.76 5.5 3.76c-1.9 0-3.61 1.44-3.61 3.7 0 2.26 1.65 3.69 3.63 3.69zm7.57 0c1.99 0 3.01-1.32 3.28-2.41l-1.29-.39c-.19.66-.78 1.45-1.99 1.45-1.14 0-2.2-.83-2.2-2.34 0-1.61 1.12-2.37 2.18-2.37 1.23 0 1.78.75 1.95 1.43l1.3-.41c-.28-1.15-1.29-2.35-3.25-2.35-1.9 0-3.61 1.44-3.61 3.7 0 2.26 1.65 3.69 3.63 3.69z" fill-rule="evenodd" fill-opacity=".5"/></symbol><symbol viewBox="0 0 18 18" id="plyr-captions-on" xmlns="http://www.w3.org/2000/svg"><path d="M1 1c-.6 0-1 .4-1 1v11c0 .6.4 1 1 1h4.6l2.7 2.7c.2.2.4.3.7.3.3 0 .5-.1.7-.3l2.7-2.7H17c.6 0 1-.4 1-1V2c0-.6-.4-1-1-1H1zm4.52 10.15c1.99 0 3.01-1.32 3.28-2.41l-1.29-.39c-.19.66-.78 1.45-1.99 1.45-1.14 0-2.2-.83-2.2-2.34 0-1.61 1.12-2.37 2.18-2.37 1.23 0 1.78.75 1.95 1.43l1.3-.41C8.47 4.96 7.46 3.76 5.5 3.76c-1.9 0-3.61 1.44-3.61 3.7 0 2.26 1.65 3.69 3.63 3.69zm7.57 0c1.99 0 3.01-1.32 3.28-2.41l-1.29-.39c-.19.66-.78 1.45-1.99 1.45-1.14 0-2.2-.83-2.2-2.34 0-1.61 1.12-2.37 2.18-2.37 1.23 0 1.78.75 1.95 1.43l1.3-.41c-.28-1.15-1.29-2.35-3.25-2.35-1.9 0-3.61 1.44-3.61 3.7 0 2.26 1.65 3.69 3.63 3.69z" fill-rule="evenodd"/></symbol><symbol viewBox="0 0 18 18" id="plyr-enter-fullscreen" xmlns="http://www.w3.org/2000/svg"><path d="M10 3h3.6l-4 4L11 8.4l4-4V8h2V1h-7zM7 9.6l-4 4V10H1v7h7v-2H4.4l4-4z"/></symbol><symbol viewBox="0 0 18 18" id="plyr-exit-fullscreen" xmlns="http://www.w3.org/2000/svg"><path d="M1 12h3.6l-4 4L2 17.4l4-4V17h2v-7H1zM16 .6l-4 4V1h-2v7h7V6h-3.6l4-4z"/></symbol><symbol viewBox="0 0 18 18" id="plyr-fast-forward" xmlns="http://www.w3.org/2000/svg"><path d="M7.875 7.171L0 1v16l7.875-6.171V17L18 9 7.875 1z"/></symbol><symbol viewBox="0 0 18 18" id="plyr-muted" xmlns="http://www.w3.org/2000/svg"><path d="M12.4 12.5l2.1-2.1 2.1 2.1 1.4-1.4L15.9 9 18 6.9l-1.4-1.4-2.1 2.1-2.1-2.1L11 6.9 13.1 9 11 11.1zM3.786 6.008H.714C.286 6.008 0 6.31 0 6.76v4.512c0 .452.286.752.714.752h3.072l4.071 3.858c.5.3 1.143 0 1.143-.602V2.752c0-.601-.643-.977-1.143-.601L3.786 6.008z"/></symbol><symbol viewBox="0 0 18 18" id="plyr-pause" xmlns="http://www.w3.org/2000/svg"><path d="M6 1H3c-.6 0-1 .4-1 1v14c0 .6.4 1 1 1h3c.6 0 1-.4 1-1V2c0-.6-.4-1-1-1zM12 1c-.6 0-1 .4-1 1v14c0 .6.4 1 1 1h3c.6 0 1-.4 1-1V2c0-.6-.4-1-1-1h-3z"/></symbol><symbol viewBox="0 0 18 18" id="plyr-play" xmlns="http://www.w3.org/2000/svg"><path d="M15.562 8.1L3.87.225C3.052-.337 2 .225 2 1.125v15.75c0 .9 1.052 1.462 1.87.9L15.563 9.9c.584-.45.584-1.35 0-1.8z"/></symbol><symbol viewBox="0 0 18 18" id="plyr-restart" xmlns="http://www.w3.org/2000/svg"><path d="M9.7 1.2l.7 6.4 2.1-2.1c1.9 1.9 1.9 5.1 0 7-.9 1-2.2 1.5-3.5 1.5-1.3 0-2.6-.5-3.5-1.5-1.9-1.9-1.9-5.1 0-7 .6-.6 1.4-1.1 2.3-1.3l-.6-1.9C6 2.6 4.9 3.2 4 4.1 1.3 6.8 1.3 11.2 4 14c1.3 1.3 3.1 2 4.9 2 1.9 0 3.6-.7 4.9-2 2.7-2.7 2.7-7.1 0-9.9L16 1.9l-6.3-.7z"/></symbol><symbol viewBox="0 0 18 18" id="plyr-rewind" xmlns="http://www.w3.org/2000/svg"><path d="M10.125 1L0 9l10.125 8v-6.171L18 17V1l-7.875 6.171z"/></symbol><symbol viewBox="0 0 18 18" id="plyr-volume" xmlns="http://www.w3.org/2000/svg"><path d="M15.6 3.3c-.4-.4-1-.4-1.4 0-.4.4-.4 1 0 1.4C15.4 5.9 16 7.4 16 9c0 1.6-.6 3.1-1.8 4.3-.4.4-.4 1 0 1.4.2.2.5.3.7.3.3 0 .5-.1.7-.3C17.1 13.2 18 11.2 18 9s-.9-4.2-2.4-5.7z"/><path d="M11.282 5.282a.909.909 0 0 0 0 1.316c.735.735.995 1.458.995 2.402 0 .936-.425 1.917-.995 2.487a.909.909 0 0 0 0 1.316c.145.145.636.262 1.018.156a.725.725 0 0 0 .298-.156C13.773 11.733 14.13 10.16 14.13 9c0-.17-.002-.34-.011-.51-.053-.992-.319-2.005-1.522-3.208a.909.909 0 0 0-1.316 0zM3.786 6.008H.714C.286 6.008 0 6.31 0 6.76v4.512c0 .452.286.752.714.752h3.072l4.071 3.858c.5.3 1.143 0 1.143-.602V2.752c0-.601-.643-.977-1.143-.601L3.786 6.008z"/></symbol><symbol viewBox="0 0 16 16" id="slack" xmlns="http://www.w3.org/2000/svg"><path d="M15.9 8.6c-.2-.7-1-1.2-1.8-.9l-1.4.5c-.3-1-.7-2-1-3 .9-.3 1.4-.5 1.4-.5.7-.2 1.2-1 .9-1.8s-1-1.2-1.8-.9l-1.4.5c-.2-1-.4-1.5-.4-1.5C10.1.2 9.3-.2 8.6.1c-.7.2-1.2 1-.9 1.8l.5 1.4-3 1c-.4-.9-.5-1.5-.5-1.5-.3-.7-1.1-1.1-1.8-.9-.8.3-1.2 1.1-.9 1.8l.5 1.4-1.6.5c-.7.3-1.1 1-.9 1.7.2.8 1 1.2 1.8 1l1.5-.5 1 3-1.5.5c-.7.3-1.1 1-.9 1.7.2.8 1 1.2 1.8 1l1.5-.5.4 1.6c.3.7 1 1.1 1.7.9.8-.2 1.2-1 1-1.8l-.5-1.5c1-.3 2-.7 3-1l.5 1.5c.3.7 1 1.1 1.7.9.8-.2 1.2-1 1-1.8l-.5-1.5c.9-.3 1.4-.5 1.4-.5.9-.2 1.3-1 1-1.7zM7 10c-.3-1-.7-2-1-3 1-.3 2-.7 3-1l1 3-3 1z"/></symbol><symbol viewBox="0 0 17.6 14.4" id="twitter" xmlns="http://www.w3.org/2000/svg"><path d="M17.56 1.7c-.6.3-1.3.5-2.1.6.7-.4 1.3-1.2 1.6-2-.7.4-1.5.7-2.3.9-.7-.7-1.6-1.1-2.6-1.1-2 0-3.6 1.6-3.6 3.6 0 .3 0 .6.1.8-3-.2-5.7-1.6-7.4-3.8-.3.5-.5 1.1-.5 1.8 0 1.3.6 2.4 1.6 3-.6 0-1.2-.2-1.7-.4 0 1.8 1.2 3.2 2.9 3.6-.3.1-.6.1-.9.1-.2 0-.5 0-.7-.1.5 1.4 1.8 2.5 3.4 2.5-1.2 1-2.8 1.6-4.5 1.6h-.9c1.6 1 3.5 1.6 5.5 1.6 6.7 0 10.3-5.5 10.3-10.3v-.5c.7-.5 1.4-1.2 1.8-1.9z"/></symbol><symbol viewBox="0 0 10.7 16" id="victory" xmlns="http://www.w3.org/2000/svg"><path d="M3.76 4.5l-1.3-3.2c-.2-.5 0-1 .5-1.2.5-.2 1 0 1.2.5l1.9 4.7c.1.1.3.2.5.2s.4-.1.4-.3L8.86.5c.2-.5.8-.7 1.2-.5s.7.8.5 1.2l-2.5 6h-2.4v-.9c0-.9-.9-1.8-1.9-1.8zm-.9 1.9c0-.5.4-.9.9-.9s.9.4.9.9v.9h-.9c-.3 0-.7.1-.9.3V6.4zm-1.9 3.8c-.5 0-.9-.4-.9-.9V6.4c0-.5.4-.9.9-.9s.9.4.9.9v2.8c0 .5-.4 1-.9 1zm9.8-1v1.4c0 3-2.4 5.4-5.4 5.4-2.9 0-5.3-2.3-5.4-5.2.3.2.6.3.9.3.6 0 1.1-.2 1.4-.6.3.4.8.6 1.4.6h4.7c.3 0 .5-.2.5-.5s-.2-.4-.5-.4h-4.6c-.5 0-.9-.4-.9-.9s.4-.9.9-.9h6c.6-.1 1 .3 1 .8z"/></symbol></svg>