<svg viewBox="0 0 24 24" width="24" color="text" xmlns="http://www.w3.org/2000/svg" class="sc-bdnxRM MWMwF"><path d="M13.78 2.72a.75.75 0 0 1 0 1.06l-.97.97 1.22 1.22H20c1.1 0 2 .9 2 2v4.76a4.47 4.47 0 0 0-2.5-.76c-2.31 0-4.2 1.76-4.45 4h-3.14c.05-.33.09-.66.09-1 0-1.54-.59-2.94-1.54-4H11c1.1 0 2-.9 2-2V7.06l-1.25-1.25-.97.97a.75.75 0 1 1-1.06-1.06l3-3a.75.75 0 0 1 1.06 0Z"/><path fill-rule="evenodd" clip-rule="evenodd" d="M11 15a5 5 0 1 1-10 0 5 5 0 0 1 10 0Zm-2 0a3 3 0 1 1-6 0 3 3 0 0 1 6 0ZM19.5 12.97c-1.93 0-3.5 1.57-3.5 3.5s1.57 3.5 3.5 3.5 3.5-1.57 3.5-3.5-1.57-3.5-3.5-3.5Zm0 5c-.83 0-1.5-.67-1.5-1.5s.67-1.5 1.5-1.5 1.5.67 1.5 1.5-.67 1.5-1.5 1.5Z"/><path d="M9 8.97H4c-.55 0-1-.44-1-1 0-.55.45-1 1-1h3c1.1 0 2 .9 2 2Z"/></svg>