<svg viewBox="0 0 24 24" width="24" color="text" xmlns="http://www.w3.org/2000/svg" class="sc-bdnxRM MWMwF"><path d="M7.5 13a2 2 0 0 1 2-2h3a2 2 0 0 1 2 2v2a2 2 0 0 1-2 2h-3a2 2 0 0 1-2-2v-2Z"/><path fill-rule="evenodd" clip-rule="evenodd" d="M9.5 2a2 2 0 0 0-2 2v2.495c0 .437-.289.814-.682 1.005A5 5 0 0 0 4 12v5a4 4 0 0 0 4 4h6a4 4 0 0 0 4-4v-5c0-.582-.1-1.142-.283-1.662l.072-.041A3.532 3.532 0 0 0 14.5 4.051V4a2 2 0 0 0-2-2h-3Zm0 4.25V4h3v2.25h-3Zm-.273 1.5a3.286 3.286 0 0 1-1.535 1.549A3 3 0 0 0 6 12v5a2 2 0 0 0 2 2h6a2 2 0 0 0 2-2v-5a3 3 0 0 0-1.692-2.701 3.286 3.286 0 0 1-1.535-1.549H9.227ZM14.5 6.323v.172c0 .437.289.814.682 1.005.57.277 1.081.66 1.506 1.124l.101-.06a1.532 1.532 0 0 0-1.498-2.672l-.791.43Z"/></svg>