<svg width="150" height="19" viewBox="0 0 150 19" fill="none" xmlns="http://www.w3.org/2000/svg">
<path d="M21.8555 0.40625H28.2663C29.7926 0.40625 31.8936 0.40625 32.9352 1.04144C34.1024 1.72956 35.0182 2.92936 35.0182 4.65849C35.0182 6.51112 34.0485 7.88736 32.3965 8.54019V8.59313C34.5693 9.05187 35.7545 10.6398 35.7545 12.7748C35.7545 15.2979 33.869 17.7504 30.3852 17.7504H21.8555V0.40625ZM28.9127 7.86972C31.5884 7.86972 32.6658 6.95222 32.6658 5.09959C32.6658 2.6647 30.9599 2.3471 28.9127 2.3471H24.2079V7.86972H28.9127ZM30.0979 15.8096C32.1451 15.8096 33.4021 14.6274 33.4021 12.7042C33.4021 10.4458 31.5525 9.81057 29.5771 9.81057H24.2079V15.8096H30.0979Z" fill="white"/>
<path d="M39.2534 0.40625H37.1523V17.7504H39.2534V0.40625Z" fill="white"/>
<path d="M46.6 4.90527C50.6583 4.90527 52.8132 7.79891 52.8132 11.4865C52.8132 15.1565 50.6583 18.0502 46.6 18.0502C42.5416 18.0502 40.3867 15.1565 40.3867 11.4865C40.4047 7.79891 42.5416 4.90527 46.6 4.90527ZM46.6 16.2328C48.8087 16.2328 50.5865 14.539 50.5865 11.4865C50.5865 8.45174 48.8087 6.72262 46.6 6.72262C44.3912 6.72262 42.6134 8.45174 42.6134 11.4865C42.6134 14.5213 44.4092 16.2328 46.6 16.2328Z" fill="white"/>
<path d="M62.655 9.22809C62.3318 7.64011 61.2364 6.72262 59.4945 6.72262C56.4597 6.72262 55.508 9.10458 55.508 11.6277C55.508 13.9567 56.5674 16.2152 59.2431 16.2152C61.2902 16.2152 62.4754 15.0683 62.7448 13.1627H64.8997C64.4328 16.2505 62.4934 18.0502 59.2611 18.0502C55.3463 18.0502 53.2812 15.4035 53.2812 11.6277C53.2812 7.86949 55.2566 4.90527 59.3149 4.90527C62.242 4.90527 64.5046 6.24623 64.8278 9.22809H62.655Z" fill="white"/>
<path d="M65.9414 0.40625H68.0424V10.6928L73.8786 5.20545H76.6979L71.6339 9.77528L77.075 17.7681H74.3993L70.0357 11.2045L68.0424 13.0042V17.7681H65.9414V0.40625Z" fill="white"/>
<path d="M86.5369 0C90.3618 0 93.4864 1.69384 94.1328 5.75199H91.7804C91.2956 3.14066 89.1766 1.94085 86.5369 1.94085C82.263 1.94085 80.4852 5.61083 80.4852 9.29846C80.4852 12.9155 82.6042 16.215 86.5369 16.215C90.2002 16.215 92.3191 13.7448 92.1934 10.5512H86.5548V8.61034H94.2945V17.75H92.804L92.1934 15.5798C90.8107 17.3795 88.584 18.1558 86.5369 18.1558C81.2754 18.1558 78.1328 13.9565 78.1328 9.40432C78.1328 4.37574 80.9521 0 86.5369 0Z" fill="white"/>
<path d="M107.49 17.7149C107.113 17.9266 106.592 18.0502 105.982 18.0502C104.886 18.0502 104.204 17.4679 104.204 16.1093C103.037 17.4679 101.492 18.0502 99.6965 18.0502C97.38 18.0502 95.4766 17.0621 95.4766 14.5213C95.4766 11.6806 97.6314 11.0454 99.8043 10.6573C102.103 10.1985 104.114 10.3926 104.114 8.80463C104.114 6.98728 102.588 6.72262 101.277 6.72262C99.499 6.72262 98.1881 7.25194 98.0804 9.10458H95.9794C96.1051 5.99921 98.5293 4.90527 101.402 4.90527C103.701 4.90527 106.197 5.41695 106.197 8.36352V14.8213C106.197 15.7917 106.197 16.2328 106.862 16.2328C107.059 16.2328 107.275 16.1799 107.508 16.1093V17.7149H107.49ZM104.078 11.2748C102.444 12.457 97.6853 11.2924 97.6853 14.3802C97.6853 15.7388 98.8705 16.2328 100.163 16.2328C102.929 16.2328 104.078 14.5566 104.078 13.3921V11.2748Z" fill="white"/>
<path d="M108.139 5.20516H110.114V7.05779H110.168C111.138 5.62862 112.485 4.92285 114.298 4.92285C115.879 4.92285 117.297 5.50511 117.8 7.05779C118.662 5.69919 120.153 4.92285 121.805 4.92285C124.355 4.92285 126.061 5.96386 126.061 8.57519V17.7854H123.96V9.52797C123.96 7.97529 123.546 6.7402 121.481 6.7402C119.434 6.7402 118.141 8.01058 118.141 9.95143V17.7678H116.04V9.52797C116.04 7.90471 115.52 6.7402 113.634 6.7402C111.156 6.7402 110.222 8.981 110.222 9.95143V17.7678H108.121V5.20516H108.139Z" fill="white"/>
<path d="M138.559 13.7803C137.984 16.568 135.991 18.0502 133.1 18.0502C129.024 18.0502 127.084 15.2624 126.977 11.4336C126.977 7.64011 129.491 4.90527 132.992 4.90527C137.518 4.90527 138.9 9.06929 138.775 12.1041H129.203C129.113 14.292 130.371 16.2328 133.172 16.2328C134.932 16.2328 136.117 15.4388 136.494 13.7803H138.559ZM136.53 10.2691C136.404 8.29295 134.95 6.72262 132.849 6.72262C130.676 6.72262 129.311 8.32824 129.185 10.2691H136.53Z" fill="white"/>
<path d="M141.202 13.7978C141.274 15.6505 142.944 16.2327 144.65 16.2327C145.961 16.2327 147.738 15.9328 147.738 14.3625C147.738 11.1336 139.388 13.3215 139.388 8.48697C139.388 5.96386 141.902 4.92285 144.165 4.92285C147.038 4.92285 149.211 5.80506 149.408 8.85749H147.307C147.182 7.25188 145.691 6.7402 144.344 6.7402C143.087 6.7402 141.633 7.07544 141.633 8.34581C141.633 9.81028 143.86 10.0926 145.817 10.5337C147.918 10.9924 150.001 11.6982 150.001 14.0978C150.001 17.1149 147.164 18.0501 144.56 18.0501C141.687 18.0501 139.262 16.9032 139.137 13.7978H141.202Z" fill="white"/>
<path d="M17.6521 0.40625H0V17.7504H17.6521V0.40625Z" fill="white"/>
</svg>
