<svg width="24" height="24" viewBox="0 0 24 24" fill="none" xmlns="http://www.w3.org/2000/svg">
<path d="M2.5 17.8812C3.4645 18.4147 10.4455 22.4387 15.41 19.3372C20.374 16.2357 20.1 10.8922 20.1 8.44317C20.55 7.50117 21.5 7.02217 21.5 4.47217C20.567 5.33417 19.6395 5.62717 18.7175 5.35217C17.8145 3.97517 16.572 3.36567 14.9895 3.52467C12.6165 3.76317 11.7485 6.09117 12.004 9.10367C8.345 10.9537 5.476 7.76217 3.997 5.35217C3.503 7.25017 3.027 9.52917 3.997 12.0497C4.644 13.7307 6.1995 15.1512 8.6625 16.3127C6.166 17.6652 4.112 18.1887 2.5 17.8812Z" stroke="white" stroke-width="1.5" stroke-linejoin="round"/>
</svg>
