<svg width="44" height="34" viewBox="0 0 44 34" fill="none" xmlns="http://www.w3.org/2000/svg">
<path d="M37.2479 2.81841C34.4434 1.51389 31.4361 0.552779 28.2918 0.00230915C28.2346 -0.00831475 28.1774 0.0182349 28.1479 0.0713356C27.7611 0.768712 27.3327 1.6785 27.0327 2.39358C23.6507 1.88029 20.2862 1.88029 16.9736 2.39358C16.6735 1.6626 16.2296 0.768712 15.8411 0.0713356C15.8116 0.0200066 15.7544 -0.00654305 15.6971 0.00230915C12.5545 0.55102 9.54719 1.51213 6.74105 2.81841C6.71675 2.82903 6.69593 2.84675 6.68211 2.86974C0.977885 11.5092 -0.584742 19.9363 0.18183 28.259C0.185299 28.2997 0.207845 28.3386 0.239063 28.3634C4.00255 31.1653 7.64813 32.8663 11.226 33.9938C11.2833 34.0115 11.3439 33.9903 11.3804 33.9425C12.2267 32.7708 12.9812 31.5353 13.628 30.236C13.6662 30.16 13.6298 30.0697 13.5518 30.0396C12.3551 29.5794 11.2156 29.0183 10.1195 28.3811C10.0328 28.3298 10.0259 28.2041 10.1056 28.1439C10.3363 27.9687 10.567 27.7863 10.7873 27.6022C10.8271 27.5686 10.8826 27.5615 10.9295 27.5828C18.1304 30.9158 25.9262 30.9158 33.0421 27.5828C33.0889 27.5598 33.1445 27.5669 33.186 27.6005C33.4063 27.7846 33.637 27.9687 33.8694 28.1439C33.9492 28.2041 33.944 28.3298 33.8573 28.3811C32.7612 29.0307 31.6217 29.5794 30.4233 30.0378C30.3452 30.0679 30.3105 30.16 30.3487 30.236C31.0095 31.5335 31.7639 32.7689 32.5946 33.9407C32.6293 33.9903 32.6918 34.0115 32.749 33.9938C36.3442 32.8663 39.9898 31.1653 43.7533 28.3634C43.7863 28.3386 43.8071 28.3014 43.8106 28.2607C44.728 18.6388 42.2739 10.2808 37.3051 2.8715C37.2929 2.84675 37.2722 2.82903 37.2479 2.81841ZM14.7034 23.1914C12.5354 23.1914 10.7491 21.1736 10.7491 18.6955C10.7491 16.2175 12.5008 14.1997 14.7034 14.1997C16.9233 14.1997 18.6923 16.2352 18.6576 18.6955C18.6576 21.1736 16.9059 23.1914 14.7034 23.1914ZM29.3237 23.1914C27.1558 23.1914 25.3695 21.1736 25.3695 18.6955C25.3695 16.2175 27.1211 14.1997 29.3237 14.1997C31.5437 14.1997 33.3126 16.2352 33.278 18.6955C33.278 21.1736 31.5437 23.1914 29.3237 23.1914Z" fill="white"/>
</svg>
