<svg width="40" height="34" viewBox="0 0 40 34" fill="none" xmlns="http://www.w3.org/2000/svg">
<path d="M35.8895 8.46592C35.9058 8.83992 35.9058 9.19692 35.9058 9.57092C35.922 20.91 27.6686 34 12.5751 34C8.12348 34 3.75305 32.657 0 30.141C0.649878 30.226 1.29976 30.26 1.94963 30.26C5.63769 30.26 9.22827 28.968 12.1365 26.571C8.62713 26.503 5.54021 24.106 4.46791 20.604C5.70268 20.859 6.96994 20.808 8.17222 20.451C4.35418 19.669 1.60845 16.1499 1.5922 12.0529C1.5922 12.0189 1.5922 11.9849 1.5922 11.9509C2.72949 12.6139 4.013 12.9879 5.31275 13.0219C1.72218 10.5059 0.601137 5.49091 2.77823 1.5639C6.9537 6.93591 13.095 10.1829 19.6913 10.5399C19.0252 7.56492 19.935 4.4369 22.0634 2.3289C25.3615 -0.918112 30.5605 -0.748111 33.6799 2.7029C35.5158 2.3289 37.2868 1.6149 38.8952 0.611893C38.2778 2.6009 36.9943 4.2839 35.2884 5.35491C36.9131 5.15091 38.5053 4.69191 40 4.0119C38.8952 5.74591 37.498 7.24191 35.8895 8.46592Z" fill="white"/>
</svg>
