<svg width="32" height="40" viewBox="0 0 32 40" fill="none" xmlns="http://www.w3.org/2000/svg">
<path d="M28.015 8.55457C27.7658 8.41504 27.5232 8.26208 27.2882 8.09626C26.6046 7.60667 25.9778 7.02977 25.4214 6.37802C24.0293 4.65227 23.5093 2.90152 23.3178 1.67575H23.3255C23.1655 0.658301 23.2316 0 23.2416 0H16.9007V26.5637C16.9007 26.9203 16.9007 27.2728 16.8869 27.6211C16.8869 27.6645 16.883 27.7044 16.8807 27.7511C16.8807 27.7703 16.8807 27.7903 16.8769 27.8103C16.8769 27.8153 16.8769 27.8203 16.8769 27.8253C16.81 28.7784 16.528 29.6991 16.0557 30.5064C15.5833 31.3137 14.935 31.9829 14.1679 32.455C13.3684 32.9478 12.4642 33.2063 11.5443 33.205C8.59001 33.205 6.19563 30.5951 6.19563 27.372C6.19563 24.1488 8.59001 21.5389 11.5443 21.5389C12.1036 21.5384 12.6594 21.6337 13.1911 21.8214L13.1988 14.8268C11.5846 14.6009 9.94474 14.7398 8.38262 15.2349C6.82051 15.73 5.37005 16.5705 4.12276 17.7033C3.02984 18.7321 2.11102 19.9596 1.40764 21.3306C1.13997 21.8306 0.130073 23.8396 0.00777759 27.1003C-0.0691379 28.9511 0.443888 30.8685 0.688479 31.6609V31.6776C0.84231 32.1442 1.43841 33.7366 2.40985 35.0791C3.19318 36.1559 4.11867 37.1019 5.1565 37.8864V37.8698L5.17188 37.8864C8.24158 40.1463 11.6451 39.998 11.6451 39.998C12.2343 39.9722 14.2079 39.998 16.4492 38.8472C18.9351 37.5715 20.3504 35.6707 20.3504 35.6707C21.2545 34.535 21.9734 33.2407 22.4763 31.8434C23.0501 30.2093 23.2416 28.2494 23.2416 27.4661V13.3735C23.3186 13.4235 24.3431 14.1576 24.3431 14.1576C24.3431 14.1576 25.8191 15.1826 28.1219 15.85C29.7741 16.325 32 16.425 32 16.425V9.60535C31.2201 9.69702 29.6364 9.43036 28.015 8.55457Z" fill="white"/>
</svg>
