<svg width="40" height="40" viewBox="0 0 40 40" fill="none" xmlns="http://www.w3.org/2000/svg">
<path d="M2.40362 22.6373L2.52929 22.4264L10.6983 8.15039C10.8239 7.93941 11.0753 7.93941 11.201 8.22068C12.5834 11.6666 13.7145 15.8861 13.2118 18.5585C12.9605 19.6837 12.3321 21.1605 11.578 22.4967C11.5152 22.7077 11.3895 22.9187 11.2639 23.0593C11.201 23.1297 11.1382 23.2 11.0125 23.2H2.59213C2.40362 23.1297 2.27794 22.8483 2.40362 22.6373Z" fill="white"/>
<path d="M40 25.5856V27.8918C40 28.036 39.9352 28.1081 39.8055 28.1802C39.1572 28.4684 36.8881 29.6216 35.9805 31.0631C33.5819 34.7387 31.7666 40 27.7471 40H10.8266C4.86223 40 0 34.5946 0 27.8918V27.6756C0 27.5315 0.129661 27.3874 0.25932 27.3874H9.78933C9.9838 27.3874 10.1135 27.6036 10.1135 27.7477C10.0486 28.3964 10.1783 29.1171 10.4376 29.7657C11.0211 31.0631 12.188 31.7838 13.4198 31.7838H18.0875V27.7477H13.4846C13.2253 27.7477 13.0956 27.4594 13.2253 27.2432C13.2901 27.1712 13.3549 27.0991 13.4198 26.9549C13.8736 26.2342 14.4571 25.2252 15.1053 23.9999C15.5591 23.2072 15.9481 22.2702 16.2723 21.4054C16.3371 21.2612 16.4019 21.1171 16.4668 20.9009C16.5316 20.6126 16.6613 20.3243 16.7261 20.1081C16.7909 19.8919 16.8557 19.6757 16.9206 19.4594C17.0503 18.7388 17.1151 17.9459 17.1151 17.0811C17.1151 16.7928 17.1151 16.4324 17.0503 16.0721C17.0503 15.7117 16.9854 15.3513 16.9854 14.991C16.9854 14.7027 16.9206 14.3423 16.8557 14.0541C16.7909 13.5495 16.7261 13.1171 16.5964 12.6126L16.5316 12.4684C16.4668 12.1802 16.4019 11.8198 16.2723 11.5315C16.0129 10.5225 15.6888 9.5135 15.3647 8.64862C15.235 8.28828 15.1053 7.92793 14.9757 7.56759C14.7812 7.06305 14.5867 6.55855 14.3922 6.12612C14.3274 5.9099 14.1977 5.76576 14.1329 5.54954C14.0681 5.33332 13.9384 5.1171 13.8736 4.90089C13.8087 4.75674 13.7439 4.61261 13.6791 4.46846L13.0956 3.3153C13.0308 3.17117 13.1605 2.95495 13.2901 3.02702L16.8557 4.1081L17.3095 4.25224L17.8282 4.39639L18.0227 4.46846V2.09008C18.0227 0.936931 18.8655 0 19.8379 0C20.3565 0 20.8104 0.216207 21.1345 0.576567C21.4587 0.936924 21.6531 1.44143 21.6531 2.01801V5.47747L22.0421 5.62161C22.0421 5.62161 22.107 5.62161 22.107 5.69368C22.1718 5.76576 22.3015 5.9099 22.4959 6.05405C22.6256 6.19819 22.7553 6.34234 22.9497 6.48648C23.2739 6.77477 23.7277 7.20717 24.1815 7.63961C24.3112 7.78374 24.4409 7.85583 24.5057 7.99996C25.0891 8.57659 25.7375 9.29728 26.3857 10.0901C26.5802 10.3063 26.7099 10.5225 26.9044 10.7387C27.0989 10.955 27.2285 11.2432 27.423 11.4594C27.6175 11.7477 27.8768 12.1081 28.0713 12.3964C28.1361 12.5405 28.2658 12.6846 28.3307 12.9009C28.5899 13.3333 28.7845 13.7658 29.0437 14.1982C29.1086 14.4144 29.2383 14.6306 29.3031 14.8469C29.5624 15.4234 29.7569 16 29.8217 16.6486C29.8865 16.7928 29.8865 16.9369 29.8865 17.009C29.9514 17.1531 29.9514 17.3693 29.9514 17.5856C30.0162 18.2342 29.9514 18.8108 29.8865 19.4594C29.8217 19.7478 29.7569 19.9639 29.6921 20.2522C29.6272 20.4685 29.5624 20.7568 29.4327 21.045C29.2383 21.5496 28.9789 22.054 28.7196 22.5586C28.6548 22.7027 28.5251 22.9189 28.3955 23.1351C28.2658 23.3514 28.1361 23.4955 28.0713 23.7117C27.9417 23.9279 27.7471 24.1441 27.6175 24.3604C27.4879 24.5766 27.3582 24.7928 27.1637 25.009C26.9692 25.2973 26.7099 25.5856 26.5154 25.8738C26.3857 26.018 26.2561 26.2342 26.0616 26.3784C25.9319 26.5225 25.8023 26.7387 25.6078 26.8828C25.4133 27.0991 25.2188 27.3153 25.0243 27.4594L24.6353 27.8198C24.5705 27.8918 24.5057 27.8918 24.4409 27.8918H21.5883V31.9279H25.1539C25.9319 31.9279 26.7099 31.6396 27.2933 31.0631C27.4879 30.8468 28.3955 29.982 29.4975 28.6846C29.5624 28.6126 29.5624 28.6126 29.6272 28.6126L39.4813 25.4414C39.8703 25.2252 40 25.3694 40 25.5856Z" fill="white"/>
</svg>
