<svg width="31" height="20" viewBox="0 0 31 20" fill="none" xmlns="http://www.w3.org/2000/svg">
<path d="M12.7591 19.0011C11.0932 19.9391 9.07638 18.2627 9.74659 16.4722L10.252 15.122C10.7413 13.8146 9.77481 12.4209 8.37891 12.4209H2C0.895432 12.4209 0 11.5254 0 10.4208L0 9.57622C0 8.47165 0.89543 7.57622 2 7.57622H8.3789C9.7748 7.57622 10.7413 6.18243 10.252 4.87511L9.74659 3.52487C9.07638 1.73435 11.0932 0.0579322 12.7591 0.99596C15.2631 2.4059 18.304 4.01649 20.9428 5.12353C23.192 6.06712 26.1776 7.06983 28.8969 7.91896C30.8459 8.52757 30.8459 11.4695 28.8969 12.0781C26.1776 12.9272 23.192 13.9299 20.9428 14.8735C18.304 15.9806 15.2631 17.5912 12.7591 19.0011Z" fill="white"/>
</svg>
